<mxfile host="app.diagrams.net" modified="2022-11-14T07:27:53.053Z" agent="5.0 (Windows NT 10.0; Win64; x64) AppleWebKit/537.36 (KHTML, like Gecko) Chrome/105.0.0.0 Safari/537.36" etag="wqP2_wKgFClw6UbPRUGE" version="20.5.3" type="github">
  <diagram id="4UpDenWozJau5NGh5Xu6" name="第 1 页">
    <mxGraphModel dx="1438" dy="547" grid="0" gridSize="10" guides="1" tooltips="1" connect="1" arrows="1" fold="1" page="0" pageScale="1" pageWidth="827" pageHeight="1169" math="0" shadow="0">
      <root>
        <mxCell id="0" />
        <mxCell id="1" parent="0" />
        <mxCell id="SGKVoEZ6r1D_lGeSKff7-9" value="mark_task_starting" style="rounded=0;whiteSpace=wrap;html=1;" vertex="1" parent="1">
          <mxGeometry x="-31" y="25" width="605" height="154" as="geometry" />
        </mxCell>
        <mxCell id="SGKVoEZ6r1D_lGeSKff7-5" style="edgeStyle=orthogonalEdgeStyle;rounded=0;orthogonalLoop=1;jettySize=auto;html=1;exitX=1;exitY=0.5;exitDx=0;exitDy=0;entryX=0;entryY=0.5;entryDx=0;entryDy=0;" edge="1" parent="1" source="SGKVoEZ6r1D_lGeSKff7-2" target="SGKVoEZ6r1D_lGeSKff7-3">
          <mxGeometry relative="1" as="geometry" />
        </mxCell>
        <mxCell id="SGKVoEZ6r1D_lGeSKff7-2" value="&lt;span style=&quot;text-align: left;&quot;&gt;wake_up_new_task&lt;/span&gt;" style="rounded=0;whiteSpace=wrap;html=1;" vertex="1" parent="1">
          <mxGeometry x="-21" y="139" width="120" height="34" as="geometry" />
        </mxCell>
        <mxCell id="SGKVoEZ6r1D_lGeSKff7-6" style="edgeStyle=orthogonalEdgeStyle;rounded=0;orthogonalLoop=1;jettySize=auto;html=1;exitX=1;exitY=0.5;exitDx=0;exitDy=0;entryX=0;entryY=0.5;entryDx=0;entryDy=0;" edge="1" parent="1" source="SGKVoEZ6r1D_lGeSKff7-3" target="SGKVoEZ6r1D_lGeSKff7-4">
          <mxGeometry relative="1" as="geometry" />
        </mxCell>
        <mxCell id="SGKVoEZ6r1D_lGeSKff7-3" value="&lt;div style=&quot;text-align: left;&quot;&gt;&lt;span style=&quot;background-color: initial;&quot;&gt;android_rvh_new_task_stats&lt;/span&gt;&lt;/div&gt;" style="rounded=0;whiteSpace=wrap;html=1;" vertex="1" parent="1">
          <mxGeometry x="175" y="139" width="166" height="34" as="geometry" />
        </mxCell>
        <mxCell id="SGKVoEZ6r1D_lGeSKff7-4" value="&lt;div style=&quot;text-align: left;&quot;&gt;mark_task_starting&lt;br&gt;&lt;/div&gt;" style="rounded=0;whiteSpace=wrap;html=1;" vertex="1" parent="1">
          <mxGeometry x="417" y="139" width="141" height="34" as="geometry" />
        </mxCell>
        <mxCell id="SGKVoEZ6r1D_lGeSKff7-8" value="" style="shape=image;verticalLabelPosition=bottom;labelBackgroundColor=default;verticalAlign=top;aspect=fixed;imageAspect=0;image=data:image/png,iVBORw0KGgoAAAANSUhEUgAAAywAAADJCAYAAADB77YxAAAgAElEQVR4nOydd5idVbW436+e3s+c6T3JpAHpIYSEEAQJIiiCFMWG13YtV72W61V/KvfqFVHRq2JBUa8oRSnSe4CQSnojPZne5/T2td8fMyEzqTOQhPa9z5PnyTOzz/ettWafvffae621ha7cAQsbGxsbGxsbGxsbG5s3IPLrLYCNjY3NmxuDlu3dLF0WR6wOs/DcGNVe4fUWysbGxsbG5i2D7bDYvC0xjRQP//d2ntqdI3hGGR/4aBMToqfmXZZhoRsmpimgOkVej6Xs6dR3rLwR7PNa5Mm19vLnm9dw2/1xrIowH/3aLL54bRl+6bSIa2NjY2Nj85bHdlhs3pZYRp7tT7fwwOokpa1F5l5QRX3Ig3KSF5lWTmP/qg4efbGV5lSAG748nnEl6mlflJ8ufccs1xvEPq9FHjOn0d+dJ58zEPoyNO/sJ5kK4wu+fnrY2NjY2Ni8lbAdFpu3PaZpoOsm1inI5iomUjx8x1pu/kcKz9QaLrq2krqoivI6rmRPpb5j5Y1mn1cjj6cxxvtvmEhcbaVQFuCS84K4RdtVsbGxsbGxOVnYDsspIhvfwEMHtlASXsDCqhok4Y29gHmzyftmQi/q5PImqjbkKLzeAr3BeKPZZ8zyiCpzLp/C1IX1pDM6iseFz6u8vqcrVo6u5xO4Z5fgc9uxaTZvBSwKvQniLRCaHkR9vcWxsbE5rcimaSEIAsdan1qWhWUxss3Qz442kQvCYNuhhljmyHbHe9epxjQL6KaEIsuvfjFhmWiGjiApyMdUJM/OvX/nZ8v+SUm1ybiKD1AtvZEXDWOUN7uHv26+m0LJtVxdW8cJ10P9ce64fSer90i868P1yGsO8OhLSSKzK7j68hh9z+zlrqeTaA0Rrr9+AtPrVUQBjHyaHWu7eGFtD7t3FUglAKdI7IwIS+bXMG2KF5dj8BWWabHtgfXc/mgKoSrKdR8eT4Me5x937mLNLp1I1MuF1zQxd5oX53HcdDOfY/2je7jzvj5SgkjVpEo+/KU6qlVx9ObMpXn89p08sjJFtlBk1/o8WBb55j5u/d5a/h5QEBFQ3AoXfmIG75rmRBLHpu+Q1mT7s2x+roWVz/SxN6FTQMRbFmDBZeWcPzuM33H8P85J0Xes8pwG+4ypP2hjl0fk0PPT+WEmCLiYf1UT1y90jrRzvI//+/EuVsdF5lwxgSXVGe5/cD8bt+gYLifTzq/myotKifqG/71M4l0DLHv8AM+tSQ3qexiRuhKu+8JEpkQO/b0so0j3gy+z/g95Jv0kjLdRGt2Yaw7l7ggCinwac4ksC9Ow0HQL2SEhjfHFlqWjGSaSrHKqRlkz9zJ3rH0AsfIarq6rOc7Yf3KwzCJFQ0BRFF7NN/GkyvKa7WthGDoI0Nm1khW9Ti6YOhOPYY5tLjZNCtu62PTtNmLfmMbki8Ior0oeGxubNyNyy44+/KV+AkEF8bAwBsvQSXX00xfXcISClJR5UCSLQjJFb1uKonHY0wQB1e+ntNqLLFhoqSyJ3jTZtI4BCA4HgaiXQNCJeJpHYcsy2Lv9V9zbXsb7Fr+fxlfpQBSy+3l05Z9IVV3Fe5um4j1qK5VIoJ5x0XGUhisIC6/3lHMixiiv1seG5ufISRdzZU3diR+fzbH++RbufyFPa1sv+9Z00zWg432hi/2bS2l+tIWN3RqWv4POfoEf3DiROq/A3se28u//tZ9drXmyGRNdB0QBh7+Fx2MHuPI/ZvKJK0oIqAKWZdG5pZ0H/96DOC7D+GqTu+/bzwPLeunLgeqQWbp8gE/9+Gyumes9+iRp6exesZeff20TT7UUCdaGuHZWKWZ/Ab3MNfrjSK3AjhVtPPj3XjLDflzoz7D8iUM/cfgdBM6uZWFTBQGXNSZ9ARIHOrn9u+v529I4vT1FsrqFiYDsUHjqkWZafjiXj1wUxXuseKaTpe8Qo5bnNNhnTP1h0tjl8TsPPT+eG/ahkBuzPsJ7ZnjweQ9Z0MxmWftEMw/s1tl5IMOT+QFWbUySTFogiyx9rIW9HWfztY9VEnELgEX/gQPc8p3NPPB0gt4BfVDfEQiUTchxzhWVTIkEhl5kklx5gE23tRG4YiaxSnV0zoplMrC1lSeeame3EuLajzTRcPTB7aRT7Euycel+HlqTZd6/zOCiRgdjiahL963ir6uWUjf7Y5wfKz8lO++m1s2GA8vAfSlXj2LIe630tNzLHzf1snjxR5jh8b6uTstrtq/Vy/otj9PlmEiF2k1rp0VbmcC6HT2cO30R9R7X6JwWQcQ7tYyac9vZdNtOIg3TqWx0vG4boDY2NqcX2Shm6W7RQYoQDAwPY7AoxlMM9BTQTANBOxTzLggikiwhDR9FDZ1cTkdwDzYyizn6WgZI6wKKMrhrZhbz9LXrIJcQOs0ldCzLpLnnJV7sncklr+E5hWKCDZ0vYUXfhXnMViJV9dfzy6qrQHThecPHs58eefO5Iqte6MYfc1AtC7S0Z3jonmb8AZXaKoGW9jzbn29jy74aqqZ4KAxoxDWBslofbkVEAoyiRueBNPt3dfF//7uVGTPOZtH4kROepeVZcc8eNmzJEawLUKoVaT6QY9e2Tv52zwHeMWUiJc7DpbMY2NHK736whWdbC7jLg1zz6XG898IoJUHH2HYWJYWqSSFmzTZJFXS629K09pkIbgdN41x4hhwI1aNQ6jIwTcBibPoaBZb+cgO/f6CL7qJEeY2X8SEZEQtD04n3FmjfnyCdC+M9amb9SdQXMPUxyHM67DNc0xP1h69WjFkeAQjURZk122AgY5LqyrK/vUgRC0MzMIxjBJJlC2x5tpltqkh5pZ+GOovetjSt7WkevmMHFy4Os3iSG8Eo8sIvt/OPf/YRR6ZifICIW8RIFWhrztKXB3eZh4kTXHiFQztHRm+cvX/bQ3ZSAzMvLcHlGuXfz8jxxG838f17EtRePJkrPjTGDvCq0dm3+gA//NYmthZCjL9u7AGBqUwzKzq34tS1UyDf60NPfAvLenLMfN0DJE+CfXWBtNnJk9tXEPCGSScL/H7VU2iOWUzTxzDXCAJiOED9hxvp+Pe1bLm7gvC/VeN2v9HnVxsbm5OBXF7jp3N/ilxWw+dXkIe++2YuR393FsHjwWelKbzyEQHV76XMP3z7zaLQN0B7WwFP2IkkgJ4pkNNN3GUxSkucSFgUM0na9qQp5DSG1/w0ChqZZB7B7cbrHmX4wgiK9MV3sXr/WpqLeRzOUs6sXMjUUAjVTLC19QWWdjWzu6OD5sRa7nnpNp4XBERRpan6XSyMlSAJYOTa2NT6Etvj3SQsiLnHMaf+HKo8DqzMTv6xeyWt8X2sT3bBvn9yW2EDTsDtaWRR/QLq3DKJ1Hae27GCVtMEQaG8bDGXHSUnxCr28XLHSyzvaaVgqlSGZ7O4djy+0ZRtMvpZt+8FNhcqWDJhGjFl8GDcNAts2/tP9gjjWVA3jbBkUci3sXXvcjal4+QFibrgNGbXTieiioA5SnmH7NuxluZ0HiPXwvZknLFvNAq4o34++I1Gyl48wE/+1k3K7eCdn5jMvGwbP/xNB7quk8tqGKZAybR6Pvv1KLXjvZRHXLhF0Abi3PXjDfzi70lSewfYuiPJvAYnzmHi5juzrO9xMuXdDXzo/ZVEerr5/ne38OIBk76tcVoSBSKHOSxmTz9//udW7lmVQ4i4WXJ9HZeeX0FdfRC3Y4wd0uPnvV+Zw+KPZkm2DfDn/1nN/z6Swz8hxldvmsj0atcr9hUVGZdDAIEx6eswk+xYlSWVBVxOLnj/JD55bSl+B2jpLDvWJsmXOI8ZunJS9QWsschzGuwzpv6g1fOeMcojSAIzr5vDb9+ZIJ0rsPy3G/neb9ppH4WtTFlkwgXlfPK6BuZWyzz22w386M99ZPb1sXZrinPGu3Bk+3lpeZZUVqTmnFI+940JnFPnQdvTw63/tZ6/rtUoPaeKr3yxgQlVQ16JaZDc2Mr+nSLjv1lNMDbyjMw0Cuxa38XaLUnicRBFB42TIsw6U2LVU/t4ckOGvpSOvL2bu27dylkLqlk0TmLrC/vZ3AqlMyuZ4kiydpNO06ISHLs7WbVTIzQuyqILYoRlk45Nbfzz+QRWwM/Fl1VQE5IRgWxvio3Le9hyIIdmWAhBhemLqgm2tnPPg53s79XJCjmW/m0H2sthzn9HBXWR442FFvn4Wu7eu5n2njXsy7UhbP0rydYwEhAMzeaSujMJKhIYaVq6N7ChYyftuo5DDg7ODyVlHIp8zNLatZnVrdvoMjT83nHMrp5Ho9d19BA1y6Sl5X6eGjCoKj+f82LRUZ48GKSzzazbt4YdmTiC7GdC+bnMiFXhFXU6upbxz5ZdtLVtoyuv8ciGP7FDUREQKCu7iIsrq3FJWXbsX8ZecSKzIyLrD6xkdzpBaWga59VPIyIrZOMbeLh5G3XVlzEz6EUUBu11f1sHEyoXMyPoGeoUBfoGtrG0dQtdhTxuRyPzaufSFHSP3r4nQoly3rR/o9z7B7771C08q4V4x/R/5wezllDlGhyI+7a18cSKJNGzyihPDbBmY5ai7GTGeZXMnOIaEZGhji9l3OISlt+7k/b3lNI4yT5lsbF5OyCrLidONYlpDiWlCIChkexJoaluwiVu8p2ZYQ7LUdCKJAfyCG4Pft9gTKrkUFAlkWI8R8Yl4nRAJl5AlGScnuGRpybFdJq+A0msoIWjzocqj2X0sejrWc6vlv+Uh5v3060VUJQgjY0D3LLgaiYoKTbv/Ts3b1iJYeTQrGb++OJaREBRw7xbmsOCWBTLSrBs/c+4Zevz7EolyGARUMqZ3/UFvrro3VSktnPX+t/yUl83RUNDzN7Dpr2DckZKl1BRMpc6NyTTm7jzxVtYYRQpWk7OmlHLpZXVIxwAs9DCo+t+x++2LmVTqgfLUon65pF+57d4X3XliMWWaQwm/YqiOGxQNmhrfZTbdpmES2/iXdEgIhb53EbuXnEbrVWfZ17dNAr5fdy3/CZu376K/YUcuiASdozjgmmf5rOzLqZK1Uchb5Ge7sf59YrbeKh9Pz25AqZloFkc1WE5urxDyCKlZ8ZYMjtKZ1s3ToeAEvYxb0EJ1VsHcDohfbCtKBA7s5QlEYmNy3r4/Yv76UnpCIZB+w4dE5AsMLWhUJlhXSoX1/BPi3H5JRVMP6sEvxDiqy4XW3ZmkN0efKbJ8GhGK5vnmT9v59ln+rB8ThZf08h176qgscGP51Us3gEERSVYruISTLyeg7OtgOJ2E60Nox7x2LHp65S8jJ/lwLkZcrk8z9+7F0fO4Pz31XLG5AoWNJaBDoLryGCSU6KvMDZ5TrV9xtwfxiwPCJKIJxbCQ5FQSB1l7oVI1aQoH7q+kQVzY5QFJc6YFib25z46TY3EQJ5CERyiiEMGAQutKOBwegmW+Ih3JkhbFhaQLljIPg++8KDDYuY0ep5qRguXEm3yjAgjsrQcz/5mPbf+tZVNB/IU8wKSoDL13Ca+870gj/5lB4+ty6KZ0LG9kz/9uJe5mocZAReP/+4lfrfMYsq7exnf0cOT+x38a/gsAo9u4/t3Jpl4+VQmzY8Rdui0r9rNjf95ABpqqJkdpToo0L2tgz/+fBsPPNVH64COKIDgl7lC93JO6y7+eFc3mTxYVoYnfruJDXNqqTyj9BWHxbIsTNNEEMRDYcuWSbJ3Jb9c+Xs6s0mKhsW+zX9k6ZC+DeO/wIzyyQQVk7aOZ/jlC7/g2e52egwdRXBQE93El5d8kQuiERQsDuy7i/9ZdRcrOppJWCYeVyVnTfkaPz/7fCLqyEwJy9Tp6nqSHy3/Dds8l3Jj9ejzTDLpPfx95Xf4w84ddOQzWKKTyqor+c8F/8pFEYWu9sf58Yv/pKBlyZsinat2IQKCoDBnRi2LyqtwSUk27byb+1MT2CDu4eGOdbTlM/g847n8nO/xrSnTSPQu548v3cV5rguZEfQO2qvneW5ZtYzrFs4edFisAgdaH+SWZX/imb5mkpqGIlez5KzP8dV5S1BGZd9DDotlmpjWUcZ+bYBVO+/hnt0vE65axGUJiKSXccuKJB+eeRVTA2461h/g1h/sJl1SQlkxyZ79RQqmxIRFdXz+29N51/Thp6YOYheX479vE3uWxqlviiGNNfHJxsbmTYesF/JouozbJQ/uYlgm+USGVEbAX+XF7bDIH+8Jlkk+lSObFfDVulCHBg7R6SZaqdPdmqRrTwZRBEuQCVWE8HmG78qISIqK6lYRPIeFmXFoshqOIAiIr2y5ZDjQtZLn+1xc+46fcX6kFC3bzpqBPKqgg6OMd87+LlOnJFmz9pv8tW8Kn73wOsaLEoIg4/PWIgsCpmlQUMdx+dkXM6u0DKwEmzb+gFtb7mVj/7uoiZzHTe+eRM/AZv78wi+xxn2ajwzlsEiKn0qfGxAoL1nC96+dRsrcw/89eSu7j7BXnt0tj/PHzU/gLvsgv7p4IdWqTnvPZnLKUNjdwVOuYp7WLXvoSEvUTaojVuIc/JUUYcG48/jLvj/zXEsrF0UCODDpb3+BDWaMK8fNJyIW2brjT/xm1z6qmr7BNydNxU8bz669nT+8fD9nVU/jmuqyE8pr5Np5evN9PDBQxQfnf51FpUGMzBZuWXnrEV3hmPIeRBKQS51E/E7iigAIyLKDSNSBwyWNbGvptCzfzQ9v3MHqXRk6+4oU9ZHhEe4jJBhCdDJ7QZSJk4OEgiqK6GDuJROY8Q5jsICELCNyKPGgb1+KR/cmSectSqb4OX9JOU1N4cP66SnG0ml5cfT6irKTcz45kYt253lsWYbWnb38tTXJow/uxlfh5Zwl9Xz4qhqaPEe+6lTo+1rkGRVjtM9I4U7cH05fuUSBQMhNY2OEWNiNIhdRHdIru/OWNVioRHSFmHuBj79tTtG+pYvvf/J5fuES0bMFWls1FIfC7CYPDuXQgGkW0/TtMQjOLCFYMnIg1fd28Ic7mlm2w2D6dZP54g31RLvjbN0j4mks58u3LKDqmyv59eNpaheN50vfmMjUeg/B7GCmv2VY7H66lQGPQrjKje8ojvDRyHXFufd/1/Gbu+L4amJ85ZuTWDTTR7qti26Xl3nvnMvPSnbwk++/zD4zyKd/Npd3z/BRXX3QSbDI9fayZ3srhidG09RyXA4RBJFw9dX88aoL6Gp/lJ+tXMrsc7/IJSVlqIDqjFHtVgGNPC4a6j7EuxecSUiF/q6HuGXF33mm7f3MD0VQpF427lvBFrOJ/3jvjUx1e0kkdrIh58QhjOxjlqnR2fEUv179e9K+93LTvGuYEQ6M8m+vMZDaxBP7+pk959t8sGYCQjHB5p5m/EIRpACTJn2W+6s+xO4dv+CW7Xk+cNGnmOv2IgoCblfVKw6CZRnsaH6ETGwmn73gF0xxprhn6Y9ZtW0VzZPP5MRfM4t8bhf3rbmN1fkKPnn+1zknFkTL7WdvRiRniZSOyr5DmDrdL+/jQHeekrpaamv9h/KQZI0EQWaOfz/l5jZeaHVy6VnVrNnRh1Me1n81g+62LFOum87XLvOy9fcv8dP7m7n37lJmn9VI6bAup9TEKJ+osndbPzkzhveNXNPGxsbmpCAnujKIIT8+v4oIGPk8id4cSiiI16OAXjzuAyxdJ9OfxfJ68LqH5cCIYAnS4G6LJCBaJpqmYxR1TMOBNGyFoPo8lDe5BmNUD8uf0HWdRCKJNCxJ3uFw4HYfDM4WcMpewrk+9rXvYpo7TF1kGh+o9OGWFRAEQr5aAh6NLpcbVY7SWDKJyYcl3YtimEVT3sOO/nYGsv1Ylo7irMagh7wOghKkIRIkKmYIyyr4a5kYm4T/cIPKQepiQQzDJCqr7DncYHqCnZ3r6Qxcxs3nfIBZ0RASMCl6BjrisBAFCyOfpr87QTwj0F9RSjjiZHB9IuIrm8NC35081ryatimTqJPTrN27Fss7n3nlPgSrg3X7tuKKXMbXz303kxxORGE8MbHA9oduYXPvAS6pKidwXHkN+tK7WL6/lyUzv8H1U+YQkURIpChT1MMc2ePJOxJBFIY5JwIIIofn+ed7uvjt97bxyIsJig6ZigY/UZ+IYJkku3Psbz1Ov/QrlJV7KYk5kYf6kyBJqK5hYYjDPh4pdVHihW1bU3TtSPH8yjTvmFlG6DRu2o1ZX0GgdEId3/iJwpRf72Xp6gRtPVnaupK070uwd103217O8cPvTGJixcgd4lOi7xjlGeurTnV/ON0M5gAe2wqiJFI5MUhU6SaRMelqTtKqWYiiQCDsYvb8cq5bGKI0cjAcxsIsZkm3iTguc+M4/HsngVgEMWfQsy3N1j0ZzqkJcOGVAaIeBbHRT3lIAgRcASeNk0PU+SG5/9AjlLIY3/zpDM6f4UNRC9x374m0NOjc3cHj9w6QM738y3dncv0lUQIOAWtqEM0QUBWDxloXLhlEU6aiKURTo/PQYtfUycYT9PckMTIqqUIpToeIgIDsKGFSSQmB7Hq8kpuKUCOTYzWHhWap1JfPZ4mjmeZsP71ZE0sIozpc5DRjqISlgM8RwBPfxZ7OFupqJlNbeT5nqS488rDvjmUx0P08P97/LL2ui/nmvPczMRw8kRGGYaFIDqJmka627bQGKpgUq+fdsemD7xFEHK5KJrsqMduDuKQcdSUTmezxHXmCY4k4/Qv5/JLPc24wioJG9oy1GIkYyuiqLJAbWM9zCScXzf53PjZpIg5JRGAS0wwNQRSQhdHYd+hpxSzxnjjx3gKSP01ZlR/XwTleKOGCSe/FNDU6O+I0F/3Ulp3NlKiOogy7XFWRqF9Yy5f/o4EzvSLj05X88dGXaT+QoCcBpaFhL1Td+MtFzDVZchbHKH5jY2PzVkLOKy6ipT4cMoNlAxNpUlkTt6NAoqsIhkE2b6JrOeLdFu6AB+/BnVjLopjJkkyDt9qJMqwakZbJ0NscR3O4Ka3zoRoa8e4E8a44gqoSjQxbtAiDE/SxUFUFv/9w1+AgHibXXc7n5us8tP8FfvDEvUTKpnFu7bu5tmkWQcfoIoutYitPrP8Tv9zwKBvS7VgMhshFwtNG9fnRomsZOpItlITnU+YNvZLcLIrKYROBgOwOUTOxGk9OoqzUO2LxL0o1nNd0Jo+tX826gauocW/i2T6ZpsnnUS+JWGaC7pyBq2wS41V1aAEg43FWEHOm6cmlKBic4CYeC91IEzedNLhCeIf9jY6cEo8v71iJb+phRWuGLCINZ5Tyua9N4JzJPpz5LEt/u5Hv/aaH3LE+LICgSCijDBMQol7ee3WMqj+9zGObszz1+63Ulfv5/LVl+J0n0WtJGuSPUanh1ekrU9ZYww3/VcbVfSn2bO7mqScP8Mg/uni5U2Pzgzt46JJK6t8VGVH+89TpO3p5nEerR3rS7XNQ4bH1h9HIc6oxUnEeuqON/bpI07llzGmUyWZ0ZFmgfmKYufNjNDSECPpGBH5hGSBIwhHfT6kuxkc+2ohw+x5WrdrHTav2U1UX4pKPTeHa6xuZED6BQJJIxQW1LJwbIuQVMfXiiZ1Ow6TQn6M7byEITsoqHYP5SIAgDt+cOQ6iQqC8jAZDxnQGiXilsTm7ZoYDrU/y8xf/jwfbt5A2B4ObRUHhfVMONoqy8IzrSUgP8GTz3/j21jzVlfO4oP49vKexCZc8NEqbOfriG9mZ1Fk8dx6V/tBRX3lsVErDC/nX83u4e+cKbnvuaZRwE7OrL+HqpoXU+cew7BYElMgEpnqCqKIIOJg74+vMGbqCoONEn7cs4gN7GZAcTIyOw/nK2C6iSI7jfvSo4jh8VIyvQYoWCJZFDjkrg79FFhUQFWqqL+ZD1RYCAiiHz80iquyh1CMhiuAqdVMhWfRl8qQzQGjkMxEB3XoDlCWwsbE5HcjRiiDug3cXWBZG0cDUNVLdcVIc+rlFloFCAV104BlKjLcMjUxPBtPpxO0dHsdrUUzkKegCvir/0MmLSlgyyCWT5NMF9IhyaBE1dK8Lr+qOFgtDLefsMz/JWY0d7OjZzJoDT/PPlbfg9t/M1bU1r+SECAIUjT4SeRMOC39pab6P3235B0rd+/mfuin4LZ2Bzke5vTV5xBsFIcvAwQX/GDdpRUFCFmXi2X5SWgHL6UDAwjR1TOFQ0QMAQZYI11VztLWEIMjU1l7ClE03saZlB5M9q2hRJvBvDfVIgoCJiGTppPv30WoupEEUAYNcsZ94wUPQ4WE0+ZKiICLpaeL5NBqgmhrdqVb6Mp1HhOAcT96xIgxWdgUsJIdAoNSLzyex7uF27no2SZoxm/64lE6r49Nhg/1ffZnN7Qn+9tMt1Dd5eN88P69pDX/w1NCyKPTGeWFDP2dN9FEytHhWnTKyOHZ9TTPFE38+QK40wrxpAfzBIJPO8RISdfY9083LnRYWAkYuS64YRjnMQTjZ+o5VHqdy6Et5KuzzqhmlPGBRzBoMVhrWKRwsOWyBXjDIZnVURUBxyKP6nh2O2R7npeYihaKF0+/iwivrmFDjQlZEBEFAdTvwBdQRJ9KC5MQVtigOFNEYkcaDKLqZ95EzGD+rgh27kix9eAd3Pd7P7bduwTUxxlffOSw0x+KIS7YEIBJQh4XsHhyrDdKZAuksoFojq6OJAo6gg6AEllGgu0ND00GVB/MdDEtEHmEbC/MoDqLi9VI98XiLeQGI05vNo1uMyDfKZpr557qfsMxo4OMX3Mh4pxMrvZO7t9433NqYnslcOqeBhRNb2Nq7leXb7uH25Z2URv+LRZGhzTLJRU39e7lGf4w7Nv+GfwS/wlW1dXjGsDFjih4ax32Af6++mD09W1nfsZoH199CQYrwhbPmEhiyhyAImFYvfTkNa9RhlIfmT3HoP4ZlYGFhGAV29faiGQez9yxk2YFhFOnNDWBYMSRBwLIMDAskURp5Cn4M+x5qIuCrKMVXMSopT9jGNEw6d8Tp1CDoceA5fLIxC+T6LMRSB68y7c7GxuZNhqxgohVMEAQkRTslZnkAACAASURBVMRTFqU2emjSMTWNRHsfWdlHrMyDw6W8EoKgJTPEc+AudeMesV0mIMoigmBSzBXIuwYXE8Wshg4osjjiiFtL5+htTyEEg5SUOI7IYzku+gCb9z3N5nyAWRWNxMLTOUcfYNm+P7IjFUc3a0AanABKfOUk8ht5av8qIpW1uAXwuMqIqAqZbA8ZC84qnc45FZPJxbfxSLKFnD6yLqhD9hDyKCxtf47lXZWc6fagyG6irjBOSaBQ6KMrn0U3OkmaBvlCD82JFlyOMKUuL5IzxOTy6YjL7uTH6zzcMGUh1bJBW/cGksEFnBctZ3Th4QIu5zjOqSjhzo5HuU/sojy2hImuwbwRQajmzOood259gJ9vbuJT9TUoWhvPrr+TF6V6vlRSQ0DghPK6HdXUBbpZtm8p55d4CCZX87d1f2BVPM/iMfyZxoo/5qMsIrOtRWf/+i6+c8PzeBSLeEeGnoyFJZ5ch0WQFCZdOJEvfSLJl37aQt+eTn5101aqfjKNBQ2uV30Pgup3MH5imJicoied5d7/XsuK321FARw+B1d981w+tNA7Zn0tPc+Wu/Zw567tuP0ykiyCZWFkC3S0miBLlEwMMaVKRj7KKdrJ1vfVynOq7PNqGa08ohnnr59by92bM+QwSXdn6cwC5Fn+h81c88AOHD4Hiz87my9dHhm7bJaEwyUg6Bpbnt7H17Z0DG0UDa7OSsv9XPaxRi68oIISrwwIiKqXYK3B7o29JBMVRAKHVnLG3m5ueyTLjBkRJsxzUuho5cllA/TLMj6nCIg4XSKCYNDePMCGdQOEpvtxHnP72kFlrYqsWOzbG+eZld24QymeeawX07AG+48gEa6NMesclY3Pp7n3B9tp8kzmrEaBVGsn7Wo1C6e7kGURSRYoprO8tLyX82IRSmPOQ07tCfA6w3gcKZbvX8rZQYlqWUVRg5S6vBhGgf5sN6HAYuaWT6dazLO57wX6swOUHnxAsZlnti8n7a7hrGgVtdFZCJVbeKZ7LS+ni5z3yg6MgMNRy6XTP4OR/1/uef5HqOd/nSuqq0fn5FsF2juf4vF2nRm1E4n4m5gjwrY9T7Er2UZK5xWHJewpw+IFntn7Ik3SmYQEEdUZI+YY3R01fk8pbkHgxdanWFIyi9SBJ/jJ1ueJ60POlyASKJvNdOth7lrzA7ziR5gfHMxh2Z0ymFJ3AQ3qie17ePXL10oxladtf4rulj7+dGs7nYKT2bNKqD4s8s7s6qVjexF5QWBMDqONjc2bF3nfljYABNVN2bgwXpfC8CgqswiyJCAqMqpLRTm42NCLJHqzoDgIBJ1HnIw4fS7cniKpzn5aOgZnPUEQUX1u/CHXsAncRC8UyKfyWGIeI6oypkN/QSSX3cOdq/7Of+eLWJaELIWpCi3k2tIYzoM7VgiUlsylRl3NX5/+JHdYEqoa5rL5t/K9MyZSEp7BJN9Knnjhqzy0TMGhlFLt1Dn8RgqHI8iE8hkU1t/Pl++5DwmBaNkl3Lj4mywOWWzZ+hM+/OLDaKZOoZgl1/EdLtmh0DD+C/zvedczzuNndsN7uKR9H3dt+Q03bPwZWBIB9ww+f9HZY7rlWVYDTB9/Psue+h0PM58vTDuT0NB2rih6mHPWx7mi7Ufc8+K/8cjzRQTcBL3juHT2x7igsgJRT51YXl8D72i6nBWr/8q/3PMnVEeQCSVNTA+6GOUVD68KZ1Mtn/5wB73JA7y8t0jzrgRut0JJg5/zykT2beij8yRfuyD5fSz84Jl87OUEv30gwe7n93HTT9yU/eckmspf3XV0gsvNzIsaePeaBI8sT9PVnWVXVxYAh09l955+UrM9hMasr0JVgw/fnk727suSH4pdOpjjMOnMEFddVc2Uah8uVYCj2Ork6jtGeU65fV4do5UnoOp0706wbXPysFA0i2RXhmRXBtmtULWjj0QqOOZTR6mxkvecF2Hl9hzJTJHmvSNzdF7eOsCGLT1s++ocvvTRGsKqiORUKV1QyrY/9NKzPUvo7EOVwkwtzbr7N/HLH+RBsDBlEJ1hzp/fyEVnuBFEmHpBOeOfSrFhXTPfuK6LBV+cz42XHj08SBQlJi2s44xHUqzd0MkvPv40dzd4iOjGsMMZgUBthCu+PJkWYw8rt+zlS9cfQBbA5Va48sYY5073UjEhwqw5ATY9nODv31rK2ifqufGm2SxuGl0f9HtqmBxrZMWOn/Gxbb9AsHhl/Kp1RJhYfi6Pb7mPT+29F1EKE3N50S3nsJFdIhFfyS+W30S3ZmJZCg4lxqSKS5hV4kEUGFZVUMTtmMhVcz9Gz9M/5fYXbyd00cdZHKnghIFUloWu9fHspt/w4xVJDFNEFENEPVP5UPVEgsPUjYSmMiX0GI+u+g+eXiEiCQpzZtzMz+YuJDSK693V6FlcVlbDz7f+gPdvduJzRonFGon1JodmVxG/bxYfnX0ZX1v1ID984Hl0DFSpnPOnfpJp9aOz7zjPSbymU9PY+dBmrn1uO4IhIHtdnPeeWq6/uoLACKfEJLm2i0RRpW5h9Li5YDY2Nm8d5GCJb+h/CspRYp8FScIV8iFJ6oiTD8sE2e8l6HAd9d4GweUmViPj6s9R0AaHe1lV8YQ9OEacKYuoXg+hShHB40IZ6+AjBZnR9AG+qIZY09NL0VDxuM7g/AnzODMcOJSiIUhEqy7jpne4eHj/FvoLFpLsZUokgohApPIy/nNhhGl7V9BqOIj4Z7IgKrG9ew9Nw0uQqDHeMe1zOALjht4HHt9kKpwKiBblsblcfYYH0xq5NRktacI3VBFF9J3Bv8z/JmdUrGL1wH50y0VdyXksKa04+nH7MVGJRRZxwRn7CQgzmRcqGZaSIhDwzeVz7/weE/a+yJbkAJJUSVPFAi5urMcnCGAqJ5ZXCjJ/yif5pruGF3o7kH0TuLBmGpnOFSR90SOTe4+Gz8OiS2sxy9OEprqRBJmq2VW8/zqBtMNPSILIpAquvLZIr+ai3CUgqDJzPzydG0sCPPVkL915g2iph2nzy2gMWSx7upXdPRKN4cESmoIA1Wc3cM11buKmwqRK5bi72oLoYvY19VwzbgBHpY/oUMiBpzbC9V+fi6diNzu7NSQxxfadKeqjYdRR7vgeTmx6HV+5yc2cR1pYsTlJrjD4fVBcMlOGSt+MVV9JCXDF/5tF7aJmnl0bp6u7gGVaKIpI/cQwZ82PUVfjoyTqQRbAPMX6jlWeU22fsfaHMcszzJ7ZY1wSKTkkxtcPri4Fj4/F19TjmJoiWB8g8MoXVaLijDKu+GiBdgumVsgIAvTtbGP5rhQ5SaZmbphZdeorIV5aIseaNf20tOd49La9XHBRKefXu0CVCZ7XQPXdq9jzeCdVZzbgHbpUT6qM8pFPTGL85gy6aSFEVKrHlXPp/CjREhEBGHfhJL6Xd/HohiwIAnXTvARLHJz7vikoM6HuHD+ug31CFCiZO56bblZ4+MEBBlCpPqeEGf4M/3wsjhANUReSEVE4a/FUvl9dytJlnezarWOaECnxsmCWB6cCUkMp//KVmUTP6KEnZeKpCVERGMO2uXcSH5n371SWPcu2gTSmdWj8UhzVXDH725QEHmVNcgCURmaXT0LMbKQQGhq/5Gounv5xpGDj0Oc9RAKzubhpBg3uwXK6glrF4ilXopeUICLi9M3khnM/hb5zI/2pPgqjcVhEJ1WVl/OlRSLPtB8go0moSiOzGxZybkUpw6+GUsIL+Mp5IpP3raA1rSMIEnVl5bgkEfDSVL+E67R6vPLRe7Uk13PluV/EG32SzWmV2pJZnF3tZ+fO9YRCQ+F1UoAzJn+GW7zTeLZ9K71aHrdjAhdOuJDq4U7Rcex7UhFEYk0xLl4cxqc4qJ5WzqWXRYk6xBHrEqM3zv4nu1Bmj6dxxpGbpTY2Nm9NhK7cgTd0zpqmaeRyueMk3du8KdA1MmkNwwTV7cDpFCimCuSLJrJTxelRMDI5cnkTSVVwegfvtbBMg0KmiFYcvN9FUmQcbhVBL5LL6ViChMvvZDACyUJLZ8kXAUnC5XMcN9HaMnVy8QK6BZLTgcstD4VbWOjZAvm8gWkN5uY4PQ6UMd0PdCRGUaOQ1dCHLXAFScThdaHKB2Uavb4Alm5QyGtoxcESvTAY/ig7VVSXPOLE7nToOxZ5TrV9xtofxirPcHseE1HE4XHiUAUsXSOTLGJaoLgdOJwH7W9STBcoFEyQRBxegaX//SJf+2kz7S4HCz8ymW9eW0MsJGFoGruf3cVPf7iTlS1QM6WSH/5pJounDGUkazrdD2xixW+7qfvqPCYvChw6Fbc5RVhoegHNOl5HkHAo6kkNY30rseWO5Xzq/+3FsXgmf/nVRMqPMfZYuRwdd29m+d1pzvzWHMbP9doOi43N2wR7KrM5PcgKnuDIWAbV5xpRGU30uFAOSzAVRAmnz8VhF9OD7MDrHLmnKQgCqs8zyhunQRBl3OGjfQUEZLcTrxvAIp8s0NOaRj9Ky6OhuFQiUQfqYasTSVVwq8eP5xiLvjDkXHilI9sf9dmnXt+xyHM4J9s+Y+0PY5Xn2PY8RntZwRs+2vNEVK8L9ZW88gLugDJYSS1ZZN0dO/jXx/ajKAKWZZEdyNLdZeIKuZh2QQn17mEyKDLRJQ2MXxNn1w9eJlo7nYpxqr2oO6X08uzqn/PrHWsYOEYLSTyTzy35Ikti5a+6P77tMUzSa9rYdkeC6hvOoHamx+7XNjZvI2yHxcbmuBTZdN8mvv0fu9k3yk80nNfAt78/i7Pr5DfhhPp20/eNiIPZS2q4anWa+9bEae7Ns6tnMI8GUcARkClrDDDr3Ao+9J4Y4cjIbDLRE2TCt6Yh3dmHWioerQa5zUlFQFG8RNzHLq4gi0GcovSqi3e8lenqzLF2a4Zc0ULvTLD62XZCh52EjpsQoKLKiVjlovrjE6m4PIbjVYbo2tjYvDmxHRYbmxNgGgbpgQLxUbbv7UjQ05NDq/a9Esr0ZuLtpu8bEceEWj77owBzX2zluXWJV3KCUASCDR5mTCthSkOIkpiXgP9Io8veME03hG1n5bQQ5fzZX2XRrBM0E0ZT0PftR1tLmgMEuewDg6XANj575C0yHq9CRZUHT0MlTfXY/drG5m2IncNiY3NcTPr29rD8iQ7aE0VGc4+gO+Ji+oI6Jja+GRfwbzd939gcLScIASRVRnWqrzmvysbGxsbG5s2A7bDY2JwQC6Ooox83u3okgiyjKOKbNETq7aavjY2NjY2NzRsZez/UxuaECEiqgvS2yZZ9u+lrY2NjY2Nj80bmLeWwWKZJ6uU2Wlcn0PBTd3kF/pBsh7va2NjY2NjY2NjYvEmRO/bF8UW9eH1H8V1Mk2xfgnhCQ/H7CEVcyNLg3Qbx7gzFIwLcBRSvh0ipG0kAU9dI9qTIZHRAxOl344u4UMdynftosSwK63az4rubaduQhcoafHOi+GyHxcbGxsbGxsbGxuZNi5weSJLJapTUhAiMcFostHSavo4U2YKBQ3YRCA/+xtQNCpkCeWN4cxNdA4fgIAyYep7+/QMk0joWg0U9cuk8eS1EebkH8STXd7RMi97n9tHX6WD69+dRe7Yfb43TLiNpY2NjY2NjY2Nj8yZGLqv00NWaJZvV8HoP3URtakXinWlM2YVHzQ27RE7AEfBR4fMeqlqDhZ5I0t6WxRVwIgkW2d4UyYyJpzJCOORE0oqku+L0xzOkwy78rkOuhKUbFHIaqA4cqvCqE3c1DTxzaml4XxkBt+2q2NjY2NjY2NjY2LzZEd0BLx6nhaGZhxwQ0yDbkySLSqDch0M8zIMQBERJRJKH/gkmmWQeVDeBoIKATjFnYKluQiEXqiwiuZx4Sz1Ipk4+M/wObYtCMk3nrm462zLo5mssWibLSKodBGZjY2NjY2NjY2PzVkA09CK6LqE4pKGTDYtiOkM8YeIt8eNziyfIAbEopnOkUxbumBuHJAAisiyCliOXLWIaJmaxSDaRR9NM9KI+4n4HQRx0gETZGvuFUJaFkdfROnsY2KBhGbazYmNjY2NjY2NjY/NWQU73pLE8bvwBx2CifKFIsieL4PXi8ysIhnbcB1i6TnYgi+50UeJRGDyMkXAHXajJOD37eugXBbCswTwXUxgWSgYgoPq8lDe5QJZQDj/NOQFGX5Idt6xmyyMJioEgTZ+sxHUqkvptbGxsbGxsbGxsbE47clpXCFUEcKoCWCaFRIpk1sLrEdDSeYq6RlGzMNHIJXOYHgdOx8H8EAstmyOZMPBUuFDVQ3kjktdLSZXFQF8OrWghyAouD2S688iKNCIZXpBEFOlV5pyIIpLPgSOgUrSswQT/g1n+NjY2NjY2NjY2NjZvaoRdfXssv3uwOphlGKRau2jvKhx2CjLUWJLwVZVSUepAEMAydJLNPfTkZErrwvjc0rHfZFnke/vo7NIJ1JYQ8h2n7TBGddO9BYW2ATb+54t0VE/i4u804JBtj8XGxsbGxsbGxsbmzY7sdUiYQ4nugijiioao8B7KMLF0nXRPgrzsJhR14/Iqr+S6GJkMAykDV8SP23W4A2JhmWBhYRk6mYEM8e4cuP14D3Ns9GyeeE8Wwe8jFDwYVjYGBFDLA5RMUujoKKIBjrFawsbGxsbGxsbGxsbmDYe8f1s7AILiJFYXxO1x4fccamAWi2iJJJrqwBt0ox68qsXQSfVkMSSVSNjF4WkjVjFPz4EEmbwx6LRYIDrcRMu9KCP8FXMwrKw7BUUJr89vn47Y2NjY2NjY2NjY2AAgy0Peg6AMVgM73FUQBAHF7cClyCNOPixNQ5MUvFEPHudR8k8EAVGWkBQBUZTxRFx4/U5k5fC2IorLiTdsIAYdKK8xYd7KGBivsTKyjY2NjY2NjY2Njc0bA7lmYtlxGwiKQqAqRuDwnzvdxOrcx/mck2i9c3RCeFzEGl2jantcNIP8jm66WhrwNrgZXZaMjY2NjY2NjY2Njc0blbfMdfCCAKE5pch9Paz7zAs8/ZUtdLUWsA9bbGxsbGxsbGxsbN68vGUcFkQR37yJnPXZelQ9Td+2FPmM8XpLZWNjY2NjY2NjY2PzGhC6cgfe0IcQoyprPAxLM9ByBpYlIHtkJDuB38bGxsbGxsbGxuZNi3ziJm8uBEVCVezsFRsbGxsbGxsbG5u3ArJpWgiCMHS3ypFY5tDt8Udpc/B3BzlRGwEQxnzJylsX09TRDB0DE5BwKI4jCwVYJkWjgG5ZyJIb9XQH8WkFNj66mz/f3UMKAIUp59dz/Q0VhA+2yaV57A87eHhFigIALhZ/bAKXLQ5x7LIMh2ORbW7n1zftZUfcwAJc/hJuuHECZ0SUI6rXvRZyrT385Q872SaW8oXP1VEbkE/q821sbGxsbGxsbE4ecsuOXvyxAIGQgniYM2EZOqmOfvoGNBzhICVlnqE7VCyMXJ5kT5p0sohmgSAreMMeghE3ylAYllHMk+xKk4oX0AHV6yVc7sXllN7mC0STbK6HLQeWcv+2Z1mZ2I8onMlnL/kil8TKUYe1zKS28ZcVN3NXRw8Xzr6Zz06chO90HiCZJonOJNvW9dKVytHRJ5MORLnqhmFtDJ3u/Qm2rOunZyBLb9xD6eIaLhnLeywopnPs2tDH+s483b0FHEGLy/7f+EGH+SSqpCcyvLS0mRcUhY99pu4kPtnGxsbGxsbGxuZkI5paju7WfhJJ7bCKWhbFeJKBngJ6UaOomVhDDSxDI94ep3+ggCFJyIqEaGrEOwboj+uD7XSdRGs/fX15TElClgTy8QTdLUnyRfP0a/oGopBv5oFlX+Eby37PxtwAUXeUmDeEW5RGVEGwjAHW7bibf+zaTntyH+25PKe97JnDxfyPzuauFy7lF1+rIOg9iuvgCXDN9xZw71MX8a3rg8ivxqESBIITG7j5oUu4988zWTRVec2i29jY2NjY2NjYvPmRy6r9dO5Pkcvp+AIqB3PUjVyO/u4cgseD10oPhfoMYuY18jkNJRKhrMKNKgoYhQwduwbIZ4oQUdBSaRIpE1dJiFipBxmddHc/3d1ZEnE3zpjjlV1zo6CRSeQRPG68bumY4WlvdCyzyN7WJ3gpF2Bh3QLKHYCeYGvr82zQqnhX3ZkEpTzbd/+DP7UmuHD6l7lq4hzq3UEQQBhxjmDS2f4If92+jimN7yPad9+YZGlZ3cZz65NMuHAcs+qVQ5d+5gtsXdnGc/tkLnlPBZUui+ZN3axal2Aga6A6ZOrOKmXmnDDhoaMeSZHxBUV8nmOcjAkCqktBsgx87uPErFkWieYBnn22h7Z+DVF20Di7lPlz/XhEQBTxBFXMgILjWMUSdJ2+fX2se7GPff0GgkNmwpC83mFHU1Ymx+pnO9m4J4NmSASqwyy6OErF0Y6nCjnWPtXG2l0FQpPLWHJBGO/QBaZ6PEfnU23kojFqz/Gjqkd+3MbGxsbGxsbG5tQhqy4nTjWJaVq8EntjaKR6Umiqm3CJm3xnZoTDIioSikOikMiScUtYPolCIo9pSbi8CmCQSxWwJAeBqAtZsrCGTmhM3UDLFtFxMLiHblJMp+lrTmIFLRx1PtQxVPYy9SL9HX2YziDREidGJk5Pp4a3MoZ/dPdWnjRMI8uOPf/Hr3sbqS075LCs23UHv86cy8zyyXjELta2bMRXcSWXTzibMlUhpxeQJRX1Fa/CopjezF0bHqdYdR2faYjwq2XHcFgsC9M0sRCRpEN22/vCAX516wEWBsqZURcc4bCsfWg7/7M2wLRzI4h9bdz8ta0s250lXTARLAjXRLn66zP5xBUxAifroMMy6Vu9h+/evJOlyxOkCgairNI4vxr15rNZVD+K5BzT4MDKPfzku9tZ9XKGvpyJaUFpTZSLPj2Dz3ywlJgbjK5+/vLrzdz2t05aezVAwBfz0a4s5F/fFTxMrALbn9nLj/5tC5tj/5+9+46yorwfP/6ecuf2vr0AC7ssHQQEwd4TTYzGJBpNjCYxMRpjTPsm3zRTzDe9FzWxG2PLz97FioL03mF739v71N8fi8ACymJB1HmdwznLuXNnnnmm3Ofz1Ahf/mk10q7MMim297Lmu0sZbG7E89dp1DQ4P+DdGW02m81ms9kOLVkvFdF0GY9bRhQBy6SYypHJCQTqfHicFsW9viQ4nERqgpgdSQbbioiSgGmJBCvDREIKgqmiqgaWw4nDMigmCyR6MxRKJhYWhm5gGOwcDyMiORQUj4LglZAOclC5KICZS9HeXULx1uNFINPdTdJy0DQujOMwK13mSwnaYr3IoXX8+YWH2TqYQpOrmDv2bL449UM0+t1YRpyX1t/LUn0alx3xUUari193f2o2Q+vaHSQJ0Dx1FEH/0MRvkUoBhxNSGRWzpNEfL2F43ISKOonBArX1tYTdEqIMk86ewIVHR4m6BFpf3srPv7+Vh5/q5WMnRglWvD0DZtRMjNt/vZFHXylw1EXT+Mq5NYQcObpbUrj0kV2kYiLO/X9Zz8PLLc65fC6fPjtEdmUHf7lmPXfeuIk5xwQ4dbzIyie3csvf2skfOYqf/24iM0ZBpquXAa+IaMGuDomWReeKDp785QbWaSEu+/4RfPakCO5dyRFwBP1EZkVgnB9P4IM+9spms9lsNpvt0JNTfTnEcAB/QEEEjGKR1GABRziEz+sAXd33WwJYggiiCJKFKFqYRR2tWEI3XMjiUGuNoKnE2wrkczqCU8Ff4YZ8hrxlDRuLofi9VDe7QRD2Gfh/QJJCpKacwcF2OjsCNDUGqKjzs6mlh8Gwh8qIk8NnYjKDkh5nMNfCkniRCZE6wu4yVK2XJ1f+nAGhgt/Pmk2252nubo1zwuyLmR3yo/e/zu4sAy2XJj6QJm0ZpPLV+H0yogDVdV4cTpHOgQKxdWl+8r8r6Z91BP93oY9Yf56qiW48Phc1Mxo4J5oj1lFgMGNQkhUiQYvV3TmyeR32nbfsTelb1MFj6zOUTx7DZVc2M7/WgSiEmTSlGmMkfQAti8KOfp5ZnCcyezRnXDiKWRMUhEYHbRt6WH5zL8s2Fpjjg4XPtLNN8PONy6fwsdOi+BxgTS5DNwQcDnbOdgbF7jj/+f0OFm9z8MkfTuO8E8oJDUuKgHN0GUfedBIGIg6PPV22zWaz2Ww226EmFx1uyiv9OGXANCmlsmTyJh5nkVSfimUY5IsmulYg2WfhCXlwyxrxjjg5QyE6OojPaZHtSxGLZ0BxUVUpIoig5fOYbife8iDBci8u2SS+LY3gGPp8FwHEg21a2fMkAkHKwgpbe+IUxwTxhfy4zV56YyXKQ07Ew6qcaWJKFRw/6Qq+O+ssGkMOMrkVXPfsL7i/aw2xCeUs3voQq3ISlV1PcNOgg1J2K1uzOcS2/3Kb1MK8htOYGfKBIOGKVNAwySAneKgIKbuCs2Ctj0q3THwwx7rVKTraVNoynaw7ZQzZtIjPKyELJl2rOvndn7aw7Ml+2rM6KmBZ4Gh+e8f3pwaL5HULb0OYxkp5ZzoFRIfMiK68BVqsQJsmMqrSR02tMjTWyeWgsspFwBhgYNCgWIBEfx6rqp7mBjfunV3aBFHEMWxGA4tiOsuG9SqmL8jYRh8hz/4DJ8nreJvCNpvNZrPZbDbbwZLLakK4nUP/sSwLQzUwdZ1Mf2pXTbRlWVjkSZRK6JKCrKgU8wbu6gChwFALRqjGpJCJo6YLaNV+FEVCkmT8VWGiEReyZKHn8hRKIHnl4V2/LAvT2v86LiOhZzMkUhqBqkpcskU+k6MoBqkPK0iHuKQpIGBaJqZlARbpQpbOZJKhATsiihQk6HSj+quIBtyIAvg9TRwRGcXzXQVSeolkMcVAcgd3LFsGgGXplAwVMfdfuuPrEQJHDwUsgKQoVDaN3jcdVV6aFYkXF/WzOJ8jMrsSpSXN84sT5FMuaqrdyFaGJ65fxT0LDE48fwZfne8l39nPf/++mdVvc74Ewk6cEmTbUrTHTaoqJQQsDN0CUTxwV0ABZN+DbQAAIABJREFUpIiLatkilymRyVgQEFDTJTraM6QlF2UREbdHIBB2Yq3OsLWtyAnjPXhksEwTzRBQXusjKAj4Gir4/Jnw3192ces/NjN+7DSOHusaHpxYFkbJwBIEJKfdJcxms9lsNpvtUJNlTNSSCQjIioi3qozRZbvr1k1NI9UdI+/wU1Hpw+mWIa8hiKAWixQKEg5JwChoaKaF4JCQkBB9ThzxEoVUgaJbQkEj1ZtBFWUiIRfyHonQsgUGuzMIoRDl5c6DG8diqCS6+kmLARrrQojFHH0dSfx1oyiLHtoB0qIgURaoZWD7Nl7seYWQKvLKitv5d1cbwTEAAgFPLVMqK/jdhvuZUxFibthHauAV7t2xmcjoD1EXaOK84/7CSXN3d8XLxRbxh0V/Q2z4PldNnM6YcNkB0yK4PNSPEhl8ZpAFPjdnfmEcwYXrufGpNqSik0/VulBMg77uIgTdjJkTZMo0mUWbU+xI7p522jJMUrE8ybRB94COaVnk00U6WjJoToWaKieSrjE4UCKbLDKQNLAwSfXnaWvJUOZzUVHmoGJyBbNHtXDPug5uuC6M4xO1hBxZWjbFMarHctqRbrRMgd6YTrqrSF61sCydvrYsbSUX0XInrtEVnDjFwU2Lenjo1nZ8Z4fIrOjk6QfTOJvrmdXsIlgmMG1WJeVPdvKf6zcw2j2J6aME0h09rEmXc/bJu/NOdrmZf84YXB05fnbPNn72BzfX/2giY8t33516f5KNv1tCa7+Pad+fSX2j+zDqYmiz2Ww2m832/ie3rusa+kvxUN0Ywed24Nxj6lZTBVkSEGUZxe3AIQMuBW/QRSKRpiuWAoZaR2S3i1CZF1kQIOgjHNWIDaTpSqYREBAVGW9FgKBvzzpsE71UopgpYklFjDKFg6nHNk0Ly+mjfmyIgFfEyGm4y8uprAvjPMQlS0F2MaruOE5Z8ytuefJSbhYCVIZqqShv3FVrL7qqOLb5oyzpu4GfPnTR0NgIKUxt9bFcOeUIIk4XsnMse4YkGbODgMOB7BtDc3Qsfnl/R98rLYKMPwTZXA5FrmTmjGpq1A7+dH8r2eoqqipceBWRiXPD1K8d4Lavv8h9TgeV1Q6CQWlX65o6kOTf17zEnx7MYmkG6ZzBqw+s5sIFGyif38yNN0yjvq+ba7+9lMeXlzBLGrph8f9+9QqP/93J1E/M4B+/bqKiroaLrhjHjt/tYNH1y3nhH8uRRJmaI6r46s/GYRkmWx5czhd/2kEsbVDM65S0bn7wsX7kijK++ds5XHx8iE9ePI5Ng63c+8eF3P0XAVmS8EWiXHxFM3ObPMhugaPPbuaTmwo8sKCDb53fjigIuMMePvztMOdIw7u6ydEIH/n8BNZuWcJjD23kpqnlXPXZSsrdAmChZwskV8fperUfz3HNVI9yozjfltvFZrPZbDabzTYCcqjcv/MvBYck7BMqCJKEO+xHkpTdLR+Kk0hdFKe3QL6ogQWiLOMNe3G5d4Ybooy/JozsUsjmDRBEnD4X3tDeg+BFFJ+XcK2I4HPjOMggQ3Q4qRhTu+v/kq+M+vEHlwlvHweV5afwrdNgQssG0lYts8fOoUboYF3CQ9ghATJjRn+c759czaSW5QxoFl7XFE5snsfUcJD9xSKKdwynTf4MYlkZzhG2Pgmik+lnjefSUI7yidVMHe3ExVgu+bIXoSLEjDFOFJ/EaVfOQ6lp49UWFcXlZvaxEZTeARbmgpT7JSSnm+knNvCZ6F6TLwjgayinzCOiRAIc/9FxRKcbw7eRJCqmhvCIAoIoMfHMafx+dAXPPjdIW0xDUtw0H13LaTNcgEW4uYZzLnBR1PY6Ga+HSbVOJEWh8ePT+dnYKh55up/BrIni8TLtpCqOPiJEcOc01r7GGr72Mw9zT+xlyaYsuikRHVvBh84qx+sUUMuCnH7+RJqlKJUekYojRnPl/1qMeyGJWcyR0aF850kq0QCRqRGkV2JIToaPvbLZbDabzWazveOEvkLboV47/aBomkahUCAQCLzbSbF9kFgW6Rc2suL2XmKr4pQqqjn6d7MYNdH1nl3Y1Gaz2Ww2m+29aASdi2y2DyDTQhvMkNyWI3p6I+MvHkflWKcdrNhsNpvNZrMdYnYLi832OixNR82ZiIqE7BYR7GjFZrPZbDab7ZCzW1hsttchOGScoXc7FTabzWaz2WwfbPYQYpvNZrPZbDabzXbYsgMWm81ms9lsNpvNdtiyAxabzfYOM8i1p8nlDQ52wJyey5NqzaG/I+my2Ww2m832XiAm+nMUi+b+P7UsSuks8Z4UqZSKuedmhk4xlSXZkyLWkyLWlyWX17H2KpGYukZ+ME2iL4eqv85xbLY96XFWbHuVzbmsXVAdoVxiJXeuvJV7tm0ku/dD+K4yKWzrZtWPVtO+Mjf8HXIglkFudQfLv7WatrU5jAN/w2az2Ww22/uQ3N8eQwn4KK8L4vNIwz40Cnli7XHSeQNXRRlur4IiApZOdiBFrD+PqpqYlgWiiMPtJFJfRtAvgaZTSGRJpgoU0yU00U2134lDFg9iHfv3GdMgtbWPF14ZID+mmg8fU0HQcWgOrQ8mWbesl6VdMP/j45kcPtwa1yxUdSvLNrZRPWY0G7cvw+cMIafytGfdHDV+Au53O4lvUj7XwcLNz/CyNZGrps4iorz9Fz0dW8SNS26BKifHjm3Gd5jMaKZ2J9n853Wk3bU01bk5uHVhRbx1ESKhNlb9cQuBn0+hvPoQPTA2m81ms9kOG2JFlQstkyeb1YbVYFqGRqo3g2opeHzDAxmzqJKJ5zB9PqomVDFmcg11DQEEXSWdKoEFWibLYF+WkibgDjoZvofhLNNEL+no7/Mq1GImzd2/XMoPf7SJhSvylA7Z+WqsfHAjP/z2Sm69vZeBwqE67sGwUHNxXm65i78svpOtpTytbffxl8X/5NlYJ1nt3U7fm6XS3buAm5f+mQc7t6EfVq0f7zC1xOBjm9na7qbxi42UjXIc3Do2goBcX0bT5eMI9Lax7sEYxeI7llqbzWaz2WyHKdkf9VNIDqBrBpbJ0KgWy6QYS5NRBfyVfsxkjNze3xQEREFClmUcThEBCUUUea0K1eF24a9UcIcc6IkU+czrlc4t1HSOvvY0QiRCdbULWTo8aoffDF0t0dOWoaOnhKqCJCnUjPZTE9JY+koPy9dm6I9Bz5YErzyv0DyljAafztaNCWJ5gfJxISJqnpYBgabpPrJbErTHLcrGhmga40YxdXpbkmxqKyEGfMyYESCgDOVXMZGjdXuOvqSGBQgBB+PGBTF7B3h5SYLWrhKWVWDNwm5cEwJMm+DHoxwor03S2QxtOYGxUTcDiSRtORWn4qK5IkRIlna2mBkkM1la4jlSpgWyhE+yKAtVMNojjaBVTcQXOpJLTwrwwOJf8vftS8gmj+LSOVdxydiJBGTAssh0J1m5Q2dUs59ANsfGthI4ZRomhqkKO3YOyjLJ9WZo2ZwjpllYiojLLWF4vcxu8uB0HJr7q5DZzMp4F9u61tBRSKPltrCobSFBh4zLM5ppZfV4JBFDz9OX7KAlO4hmGThENxXh8Yz2B9l9eTSS8W20ZGKkTBPkIE1lDVS7/Ij7iwKMJBt7N9OvQTTYxIRwZARzmFtk0ltZmcwzKjqaQKmXjZkYiF4aysZT5fbuzF+DXKaDlngXMdPAEh24ZDeGo5rZZeU4xaGttK5+tjwWo+y0Ixg1fXjrSi6TZF0ij88fImLmaUmX0AQH9ZEQDQFl9/0iCHhnVDN2djsr7t9K/+kR6sco+wQ+Wm+Gwa1F3BMiBMske4FPm81ms9neR2TLMjFNEVkWd/7IW+j5Aom4hjsaIhQQSSSHf0l0KgQiHgb70vRrJVweCTVbQvR6CUddQ/txuwi7AQxyByg8WIaBoRmgqpi4DuoELEMjE8+Cy4vf78Ao5kgnTdzRAO5D3HvEUPO8fOc6brijjcVrsmQzAoozyCeunMEXjk/xk2+tZV3b0KiMhbet4tX7XXz8V6fyzcYY//e1V3ixU2H+hc3UrGvh8cEov/hrIxt/9jL/WGhx1o/n85OvjaGimOfpG17lW38fIHrMZO75zxFMjgjE1vVxx02beeSRPtZ1FrAA7/ggX//JUWj/XcSv780OJXJ7L9d+rpfG847gxl9OZULVG7V9AWhs2L6Bf2yCY6pkFmzfwQuDecKBMGfPm8N3J1cRkC3aOlq4cflmHtk2SLdhgtNBjVfhghM/ytXj3IwkBtUK3by642VazBANgYl4g2EGu17hJbeHE+ua8ekaWx5ZzYXXpDj3i1VIG7u596kUcsjDyVcewU++PJaagEX3mm7u+s06HnxygK0ZE8MnEypz4j95Ko/9YjwVjgOd81tnWTrbt/6TL77wADF1Z/NQx618qeNWABqbv82Np1zKBI/OlraH+dPC23h6YBtZo4TXEWVqw/l89dgvcUI0hEPIsnH7I9yx5DYe79xEt2kgukZz5sQv8t3jP8VY597PTIb1W+7g+8/fzDbXNK484Qc0jSRg0bNs2XIdFy7cyrnT5iENLuTetk3IzipOnvkdfnLkGdQ4Lbr7X+aul//Jgy3L2aqVMBxeQs4y/KOu4LHTzqHCqYBpknxuBz39DqbNK8MpD78BWrZv4Duv7EAsG0VDqY8XurOospdjJ0zkG/ObmR1Wdm8seqg9p5qNCzaw9cUMdaOiCMMuoUr3bWt4+fp+yq8+muO+Uo7zPVzpYbPZbDabbTg5H89gKC5CASeiMLS6d2Ywi+F0Ew05Eaz99MURZTwRH95ciXg8RyEFCDKRkPImaq8FlICPynFOBJeCcrAFDcskN9BLbzHA+MnVODSVvq2dyFoDDfX+Q7cypmWRXtXK7361mVfjDk64ZDpnHxnCaEmSDEi4p4zmu9fK/Of/VvPEBpOZ5zbz6XOqmTQrgNwZAwuMosbaR7azLqFiNe0e62NZ7DOZwdB0SxYWFrnWQW767VKufzBFoLaMq6+dwcRRTpJd/bhDAaZcPhtN2sBtDwwgVJVz4TcmMm9GhNqQuGtnud4B2jsTuKJVjB4T3GesQW9vB7fH3Bw9aRLnH+lg2dotPL2slXObyplRSnHfyk08HPfwyWOPZnJQJtPfzfWbejD3SreeL9CzvYO05aWhqQqP+7WSp0nR7GJtLEPTqNPwl9ZT2zwdMb6NrV09HFPfvCutVjbDM3fmmXF2I9f+ehyv3LeBh//RwodOrebkKpX7/7SM6x7WmP6ZKVx2TBi1pZfbb95K316TS1i6Tv/2dvpzIrVja4iEdheSO9v+w/UbXqJX3SvfpTJmN57PRRMm7RpTU0qm6NjRg+GO0tAYRXGICIjUNXyW33qPpa3rGW5f/Qj9ZZ/kB9PnE1Ec+AMTqHU5wMyQyA9SUXcav5j9JdxCgTXb7+eOTXfw78qjOPLIYwhprdy/+t/c1V3gmCN+yg9qwxRKfaxqM+gzTBqG3YZF2jqf4NZFt7PdnMKlx17F+Q3jcL7+nbsPS2vlmQ09zBh/LteOO4tXNt7Cw6se5UONcznZl+T+xb/guu15pk++jMtGNaImFnP76rvpM0q792GWGFyTxdlQQ/V4Zb/HMXSNLZ3dOMc08cMP+9iyfi33bNnALcEgY48ZRWSPbZXGSqrGbaNzTYySFcE9rM1ORPYrOLwyskvff4uTzWaz2Wy29yw5lRUIVIfwukQEy6KYyZLKWPiqnAiGjqbpGKaFpRtoJR1RkJAEnVRvikzWwlsdxu+0SPdmSfcnERUH0fDB9VUXHTKe0JsLLQRZIVIZYWB9D509fsbW+SirdLK9pYdw0EVZ4BA1s1ig5Uv0pizIm6glmfD4CFOPLEfxuQhHHVSfaLDshrU8gUDdlApOPaOeChd0dw7twtTBEynjO3+YxPSJfiLePJsPeFyVTQvbefyhBKYrwiW/nMslp4Txu0TUfDUFXAQ9Cn0LW7nvEQECXuafOYYTavYYdK8XiXf10tWSwJWTiVQHCLqGX8Ci6eHcE2dxwbgKyh0C48wcfVs0ilj0x+OsiQl89pipfH5cOSEJCv4S/6+1f6+0mpTSMTq395IVvPgqwtS5PDtbX0S83mlcNHcSQSnGf/t6CYamcMLYYyjpIsFhcwQYBGeP54qvTGVuuY5ncIDVgzrxuEp/oZ8XH0sTOWUyV181hXlNTnpe1njyvq307XXB9HyS7h099OclZH8AXyAyNKkEkM93s3VgHS17j/eRq6ioyu4e72VqZAf66Wzpw/QYhGtDlDtEBEEkFJ7OGeEJbKSDR9Y9RsY/hTOazxhqgdiVjDDTms6jrq6EhIFOESW3gWe2L2dtrBPV1MHQKVkaRStFT84iGpzEGO8Mjh3jJer27J6b3IJkYhW3vvIKz2YjXHjcFXx27HSCB7qH9lEgWHU+V8y6jLnePJ7cWlYXc8QLafr11by4o4XI6Eu5es4XmBcN0tOW5ckNdw/LX8vMk9lhIU0PEXi9RlNRYvSo0XzvlKnM90l0yEke799OayxOf2kUkT2iLMHlJzxGon11lpzJXhMwyFR+egqnnTIBR40Hx+E2n4TNZrPZbLa3RPZVhwgGZAQBLMNEyxYo5ksUW0vEd5ZZLcPEJElXJou/ppyIs0Q6XkCOlFFR6UGWwO2W6N6eJBPLEwgH2X+d6jtBwBmJUBEeYEf7ANXVYwiWh3C2b6erv5qQ14H8zvcAAhE8E6r45PweHlgUY+VNq/jafRuYeVQd510+iRPnRw6YJ4LHQcNZjXz0tCo8ToF8fAQjjEs6gz05BgugBPxMnOXH6xoqsSke18iug+wmVFVOlSbjLovg28+4FikaYV5lmHJlKDMnT53BHyaYOJ2wuS1L3HLTHPLg35nXssi+41YEEWcgTFV9GRkxQNSvDOsqJgoeKnwAfj557GexRAeKKOLZ5yQcTJ5RTkOtC9ENZ3/7OE75qoXihLYF2+nOQfXoALXlzjcYOyMguQNU1pUjFGQqot5hBd3G5q/yr7FfxNjPGHlJ8uDdlWgH3miUqjoVy1dOyC0f3Cx4lsZAcj03Lbmb5e3LaDFK6KZGXoeIsXNSZ18TH206mY7Ckyxv/SWfb5Gojc7hIxM/y9kT5tPk2xmUWzn6k4tZmOzHU/5hThjVTOjgpuXaKczkqlk0BEKIjjBnz/8Np8wxUCSBtpZH6NYsqoP11HoCb3CuJoZqgSK+wWJPIl5HkCafA4cI4bCfOsEkVcqTLsGwZiFBRJTBKprsb2ZkOeQmGHoTp2qz2Ww2m+2wJ4cDzl2tIYIgoPh9RAQXr63wZhkGhXQeTXLiD7hweyTQLSwTRBkQh74nOiQkUcAwzINeHM4oaeRSRQSvB5/n4AfMmqUS+YKBO+jFIVmoRRVNcFPukRAPWW2rgK+qiq/962jm/7eNxWuTPPdcBwuf2MramM7v/jaf46reeA+yJFJT60WR984Ag3ze2P8sarKI0ymhAEVLo1Cwhq7dQeahv7aaKbXVb3B6AtIeF0YUJXxOCdDQTAO1qJO3LExAAmK5Aqqx7yoqssdLw6xJB0iNgEN+o05MAqIo7Oq2JjkdBJ2AoYM5lAZh13U3KRV1SvuJ/USHQs3U8dTs5wjxwcU83rGR1N6nIAYYX3MsJ9TW7woGXZEIE+ZG9t7FCFjkMhu556Wf8M8uieMbPsynAgqpxGqea12xu2AueJk19Sv8uvZEXtqxgBUD23h2x1L+8lIrndLf+d2Mpp1pc1NbdSInu9bw4LbnuWPjfJrmnES14+BbGUVR2tW1SpI9BGXALIA1FDAIgsDQg6pT0ov7zHgnCA6UiAB5Dc3iDbqkCewcOkcmmyNtgiLJ+7aSWBpaxkIIyhyiORNsNpvNZrMdJuTubTu77TicRKr9uMIBKsK7NzBVlbhWJKt4idT4UWQwCw4Ul0hmIElPNocEmIZOUQdvmQcHYBULDPblUFUDvaSi6xbx9hgZh4Q75CcUde6a0UnNZom1p7FCFs4x/v0U2N+AqZHs7mVQdTFmfASHVqS7PYZSUU1Vhesg1314CyyL/KY+HtokcdyHJjLtoxmqpDibO1R03UTVDASEnQGURmtLhv6BEqGa128DkSQnkXIRQdBZtT7O+o4qrMQAG1ald28kK9RPjNIwageL++P89/etNP9PA3VhjVhLP3F3HdPGgSgJgEUmk2Pr1jxzyzy4lbcjmpOJen1Epe0saI1zjFck39vBv5Zupy2nc+zbcIQREwX81UFGVwmsWxVjS2cWuT/DfTdtY30vHEyxfaDveW5fchdb9+4S5qjhzNmjmLdHwPLGHHiVAF4F9MGtbE0m8YR9SJITtwQ5dYDWWAdS4FQ+NusSTg4kuH/JJp6wdqe3kNrGE61tjKqYzinTruCk3BrEXA+3tHfSmu4Gq/G1DMDnmcSFs+YRT/+Sx1f+lTJflB9NnYXr7XgQBBm/bzSjPSLrejewJd2NnGvjvlX3sj6/V/4KXkJNEjtWDRBLjKWmfP/HN0yDgqrTk4lz56pu2kwHJ0aj1HqGb2cl4vRu0hGnBfDuZ1eFVS2s/nc3zln1TDi3Hrcd1dhsNpvN9r4hF/M7RxU7RIy9R0jzWuuJjCwLuyrtRZeLsvooUm+GbE5FAyRZJlIbJhDeOXjfNFALKsWSCQjIioBR0jBUE8m7Z6cOEcmhoHgUBK+EdJBlaNMwKOkiFaPKiQRkzFwSwemjdnQ5LvkQdma3INfTxz+vbeFvBkiSSTaVx3QFOWFaHdNHuXAoFlOOChNc2sf6B9fzlbUdnPmteXw6uv9dKk4nRxxXTdlzbQw8v5XvnddNWcAi1rrnRAgSo4+u4xNf6qX/hl4W3rOCi1/eiFMycXkdnP2jKqaOddEwLcKY+i5e2Rbjz5c9xYsfn8RPr26ioeyt9pcTqC6v4Lg6P/9a+iqfXufANHRCXicVDuHQTXoAIEhER5Vz7Ikhlj3Qyvcu6MXnEMgP5ikYBxewNDR+mX/UnIe6d/8jQSbgqdndJeyARKrDk5hcMZHlrQ9x9UOv4pEE6sd8jp8e9QnKlApGRyI4uhfx+8e/yD8lGVWNUULclV5T72PFjuv5w9IkoiiApZPKZ6gOz+FjDROQhjUjOohUnsQl01ey4+U7eGTF35kZ/Q0fq42+9ZYJQSYanM6xoyazbNtjfO+BRfgkiXyul4I1PH8FUaL8qApY0Ef3ihxVp/v37Rpm6mxvXc9Fd24DTSdRNGmureW8KXWUDdvYIre6n3gKKo8qx7HPxBw6qZU9bP/PNsylefxH1NHYbAcsNpvNZrO9X0g/+8MPrwlV+AmVuXE69u2OJUgSrqAXv1/ZvT6KICApDjwhD8FyP6EKP6FyLx6vgrSz/CvIDnwRH6HXPn/tX7kPn88xbCYfSVHwRb34fArSXjXBpmmi6zpO5/47lQiSjC8cIBhwIYkiktNDsCyExyUdutaVnSxUsv0aGR18AYWK2VWcfcFUrri4jtoKCUmRqW7w4dEMTKdCpNxN09wappWbdPWV8FaHmXl8HbPHDgV9gixRMS5Mvc/E0iVCtRGO/cxYjp/qQpdcNM+s4pTjI0S8bsbPrGByowvJY4El4w84mTKjhlNPq6I6JOGv9VPngYwhEw4pVE0sZ/7MEEH3gYI6i0wux4Dp5qj6KFHnvgGOpLiZHHKiF0pkBIXxo8dxeZOfpf1JauobmR9xvD3XwjTJDmZpTUjMPL6GIyb6cO+VHNnnpnl8mEhRI29JVDVWc+6ZZWTb+onV1vC508vwOg8cyMoOHxFPGeXevf55IgQcjoPqcSc5q5jgr0CR82g48CpeqiIzmV/dRIWvgnHBeky1iCn5qA3N55IppzLG6yYUmc2Hahvwe8up8/pRjQRFU8ar1DF51Mf48lFf4IyaapwiqMUeWgs6teVHcsKoJsaUTaDMyJIoFTEd5UyoaNg1vuh1WTrZfBetJRczRx3NEWXVDL89BGSljOZIMxE9S15wUhU+nnMbppJNLSXmO4HPNU3BK0tD74iwE/WVdrraRCqPL8O9x9io/t4OHmmLkZc9NIQ8RD0hjm2exLePbWZm0MmejaxmLkvLbZuI++qY8blavJ69r5+IwyrQ9kQ/RV2h9uONlL1Oi47NZrPZbLb3HqGv0HZYL72taRqFQoFAIPBuJ8V2ENSezXz66Y3MnXc632wc2Tos75Tulzfzra8tZu0Rs1nw+wlUBA7FLAwfHN1td/KtJ3/I2oofs+DD5++eBU3XSS3YwHO/7aDuynlMPzPCa0vgrFv1Cpct3IGzfhZ3fHQC1a8X0eoag49t4KW/dTP2m/OZcnJwV6UIgJkt0P9CO23P9dP6QDfKiZM4/rdTiATtgMVms9lstveLQ9pjx/bBYRcXDycJFq2+k3tb1pF+nS1EcTyfPvazHBMuO6iuc29IlvEfO47JK2Ks//UGIlWzGD3LPSzgeEOmSX5FF+tu6CV05iSajvbv810zX6LnoQ1sWSgw5tJJjPvkeDtYsdlsNpvtfcYOWGzvDFmhNugjdBgMfpbdClX1ftIVjoMeI/X+oJFIt7Gpbz2x19lClhRipdJBz/AHIMt+qoKjSft8SHuFqqLHw5jLpqE5usCtD00hByhOF/UhP7LX8fovIcHC8ELgpDGMuaQOt3ffiydHA0z44Uk0FEXc1W6cXvuVZrPZbDbb+43dJcz2zrBMcpqOKCn7jDM59EmxKOY1VEEi6P0gdgez0PUiBV3b7xomQ0Rcigfnm5gH3LIMiloOFSdBZf9jzUzVwJJEpJ19A03TIK8ZGIKEX5HeYK0WE71gIbn3DoVsNpvNZrN9UNgBi81ms9lsNpvNZjtsfSA7yNhsNpvNZrPZbLb3BjtgsdlstneJqWqUUm/UVc9ms715FnpORS0Yb2p8nm1kjHySjrZ2BhMFO59t7xjp8q9dfo0gSrv6lu9NL5Yo5DQMS0CWxd3rtJgmWlFFzWuoJR1NNbEEEUkUdm9jGKhFlWKpngpkAAAgAElEQVReQysZmJaAtOc+RuBA67DY3itytHatYk1sGzuSbbQWNMrcwTc1ZuJwYWp9rOvbRkEME1Lswd5viqUSS3fRr1r4nK4PVA2KZZbofXgjW54pEJ4TQfkgnfybYFlJNneuYF18By3JdjpUB1UeL/LB/KAcVizy+XbWDXQjK2G8h3Kh4/cTM0/HYCcF2YNHloePdTNVeh/awuanM3imhHA5xQ/mWLhsP8uXr6PoKifkkQ+qDHZgBi2PX89VV/2GlT1VHH18I643WnitlGbLurX0agEifuWQr5d30A6n9OpFerdvYMuAQTjk54P2yhA7twzQ15WhVNq3js8sFYi39tO+qZe+vgKasesTiok0/Tv66dzcS/umXtq39NPbniBf3LkfQyPdm6Bn29D32zf10d2SIJVWsT6oIbhlUepLsOy5Vl5al6JgHPgrb5t8gY41XTy9oIuO7KG/AIbRyj3PfpeL7rmI8++5iIuevZMtmfw+2+lqjPVbn2R5fw/qWzhePrGSBWtepF19czNfHZhJKvYcv3rqWh7uSbwjRxjOItH3PM9vXsGg+e7Xx7/V/LWsGFt3LKMnG2PN5id4smULqXwPa9payB3kC0LNFFizoI07nomTLb77eTMilkXimU2s/0cXhPw49BF+T9fJtg/ywuM7WN5eQjuEp2smM2xa3M4zr/QTeysP55s7Otn8Cv724GV8+p6LOP/eS7hi0TOktH0zTs21sGj902zOZRlptu7rEDxvZpH2jnu45tnrWZ4svDPH2INlqrS3L2Bh6xay7/jRDpiat5y/htHFltZ1xIo9PLvsIRYN9jCYaGd9d9fu3w5TxhdSSN61mRV39qC+V94PbzNt+0v84ns/5r7lacy3/QdRJ59KEesdpKcjzr6/6nsZ2MS/fvYDrntsKwXt7U7LO+BwSm+2n6dv+AU/v/F5+g7mIbYsEmuf5/kHVjCov5VnQCfbuZHnb76Vm+9aQn/+0GaIHI5IxGMZFJ9C2R41nJapk+3PkCtKuDzDT9AslUgOZCjKLiJj3ThEAaNUJN6fJ57w4nG5AINi0cIZDhKulTHUIvG+HPFeGU9AQdlzh5aFaYEgCG9z5H94UXMZHvr9Ev7xWJapX5hFc2PwEM2gpbP+0Y387u8ttDmj/PCmaup9hzajRbGOs477MZOKA2xpfZS7+ve/XTHfxaPLr0ed+F2aKqqH3ycHoavrMf61PMWl446gTnG+52vVLFNn49Y7uL5jMj9onE7Zu5yet5q/ZnGAhZtvZt22BprcPgR1Fbe8dBebtCn8T8XnaBzxg2HSs7qDv/54FSumTOG0OUF8roM9m0NP397F6n+2oc+bzOQLynGOKM0Wyc5BbrtmCf9ZYvDx34aYWOt8+9bNeaMjG0VeunElf7qnH3lmIz+ZUkH0zT6cb4qAS5nMJaf/mtPMQRatvofnX2fLZGIF/17yEHPDzTR4fW/qaIfb8/Z20LUMr677BwukTzN2zHjeXM68Pd56/poU0638v2U3ka+YQQgHYu8TXNe9iXzwdL5ZXku5A5AlAic0MO3KJK/8ez07pkdoPsrzrtWSm6aGgYzjsG9WOBhOGk/7DP9XfTy+2qlUf9Cq/d8DLFNn45N3cP2CyfzgjDf3Piu1t/DCg//lrqdeZvOyzWSmXcLs06ZS7nEcsvKVHK4MouUGh7psmSCKgGWhprKksgae8gBCLjE8ajZMTMPC4XfjC3pQZAGjBIV4EWNnbYkgOYnUOxB2TmVqGS4olkjkVVTNQlF2n6KWLTDYlUEIhSivcL6n18owDYN0skg6Y2KaIAgSgbCCT9Fp3Zpg+eIYm7Zb1HQXaGvJINZ5CMkGg4Mlihp4o26cWolkQaSiWqHQnydVFPBGXUQDMqJlkokXiKVNcCrUVDt3dSXRCyqJuEbutdYyp0g04sJIZ1i7KsbKtVms+gC9bRk6ZTfVZcoB8toineuhKASJerwML0KqJNL9lBxRKt1uBFMlU0ySUQuoFsiii7C3HI881AQvCEEmjD6eCaRZXFzPI3sHLEaWzmycRKqTrmISK9dLa6KNACDJXso8EdwjuDFKpUF6CjlaMgMkjAI9qQ5aVS8i4HRVUulyDf1YHSC9O3OUbCFJspRDt0BRgkRcQVyv031yKL86iRtOIp4ofnmkU/GaqFqWRD5JwbSQJCcBV5SA4kCwdDKFQQaKWVqySQb0BF3JNryiBAL43DVEnQ6EndfDdFbgF0sMFpKoponXGSXi9iEBWmmAftUg6KnEt/McSqVB+lWG56+lUyilGCjmMC1wyAHKPAGckjjy/D0A0TmGM+Zejnv9TdyxbiGdzmqOm/gZrmg+lnqnRCFRYCCpE6j0EfLssUNz5/1fEIn6TOJJjW2bE7R0FCjWFWhvyZD3S8g+5x73t4WaKZGIaRRMQBIJRhRCPse7U0GiF+l6dAdxsZI5F9fh8wxPhK5qpJIlsjkLywJJkglXOHFqBVq2Jli6JEFbp5vB9iwd7U6qqty49RJ9MR1TFAmEFaxMiYzloCIqkh0oktMEQtVegm4BQdcZ6C+SK1oofieVZQqv3dLFTIlkUqOoDVXDyj6ZsE8m3Z9i5YoYqzbmGVtToqs1Q6jeTWVIfsPrbZolErk4ojNCaJ/AtshAOoHoihJVFDCLpAoJMpo69LxJXiLe6M7nTcDhqGRm04eYSTeF1mdZtFejhKUl6Mhl6En10Kel6E130uq2UABZCVPt8SMd6IKP+HnjAOndff7pQoK0WsIUwOOMEnL6Xrf731B+9ZIhQJUvhGvEN6hBsZQmUchQsixk2UvYHRl6n5lFBnIxErke2nMJBpyDdCTaUAFBVAh5Kgg6JKBILJNEdkVRzCwDhQyWIBFwRwkqLkQs8oU+koZC1BPBKe7Or5TlGZ6/O9+vcbWAZUm4lDDlHg8Sxsjz9w2JuP3TOe/oz/HEmpu4c+sG1MREzpz4GS5rnEN4zx66DoXys8ZQ99AStt7dQe308QQ8I3/wdV1lMF/CdLgJChqJoo5uCXhdbspc0sjfIUaOrdvu4/HiZM6fNJ1Kx37O0zJR8xlS8TR5zQRBwhcMEwp5kUSwDI3UYAzN5ccrqKRiGUqijDcSJepz7vEsGhQzaRLpDKWShdoZQzP2rHhWSXT0Y4Yq8MslBgeTqJqJNxwlEvbt+q03tSLpgRjpoo4JeHxBQtEQys4N9GKGwe44RRzUjx2LM+zdz4mbqPksiVSSQsGC3j5yRX3k3X9NlWR/jJThpro6iPLaSVoW6YFu8viJlgVwiGAaJdKDCdK5EiYK3nCYSNi183ws8vEB0rqC3yuSHUhSsEScwTBlIS+OXQkaSXoNivEYiVSBkgWyw0W4vByP67Xyw8jy98AsdLVAKpkgm9OxUt3EUiUI7pk/OoVMilQiR9G0kCQHgUiUgM85VH6IDzIQz9LSk2SgkKCrpQ2vYygFvvIaov6d96FWJJVIkMmq6IDi9BKpiOJyCFiGzoanruePt6wkMGES86YbLHqDljojUyIf03FUeHAdxLN2ILIgAggIe/zqmKUiyYECcjBIOCyRzg3/kuhU8ARcJOIpYpaOxydRTObQHU5CEdfOB1hAVnZfFkEEwRr6Y/gPnIleKlHMFrHkIka5ss/ic2/EMk1K+SKWrOByyVh6iULOxOFzoxziJTcsU2Xjc9u45fbtPLs4TSYt4nKH+MTlkzlvVpJvf2cDazaVMCx47vqlLL9/A2f/5AS+MjrGT767lMW9To6/eAL1G1p4oD3I93/TwKZfL+HmxRZnfG8u3/tSPWWFLA//YRHX3BwjOn8CN94wjYkRkVx3mqfv28q993SxfEcOCwHfpBCXf+sI8ve/yp/uS5MvmJibuvje2Y/Q/Inp/PXHE2mseP1MUkuDPLHwf3hGPpsfnXgudXs8sYa6ieuf/BXt9V/jT3Nmku57gZuX3swTbRvoMA0qPRP4yPSvcdER86h0yAe8otrAAq5+8vesTsYpqRmM2P/w+NKh75VVnsnPT/4BJ5UfoE5Qz7Bu/e+5aOGjlPQieV3nB/e8gkMAQXAwZ+Zv+fPc4wk7IHbA9Fr09z3JLUvv5cHtKxlEYFzNh7jwyKs4f3QV+4tZUoOL+POLP2aBeDrfO/aLnBQNjaj2u1Rs55m1t3DzyqdYX8jg9TZy6vRvcPW0eVRY3Ty8+BquWbsUQ8+T1VfzlTvuRwIcjghnHX0dP5s2AcHczp3P/JKu6guYIyzj72sfpbNkMqvxAr4672LmBDxs2fhH/mdTL5eeeB0fq3Tsyq9vbIMfn/i/Q/lrqcQGl3Hfitu5ZccyYqpATfhUvnH8V/hQTXCE+XvgB0+wDLLFOEXThdflJiSG8as5ssUsqlnBqtvWcO3tXZz809O4+kO+3X1100P3/88XefjacUVu+vcg8ZROIWeiP7aeTz+/CUGAsR9/7f4WSPfEeerv67jrnl7Wpw2MoIfTPjWeq65qYlxUOeTjZoy2QXYsiOE+bjbl1cObKdRcjiUPb+aWu1t5dVWBUlEiECznq7+axtTMZq74STtdPSaGkefO77/IUzdHufzXx3F07zqu/vk2+l1Bzjp/FJknt7MiMIprrg7ywP8s5cl2D1++4Xi+fGoId98gf/zWEu59uciUT8zgH79uolI2iW0a5KG7tnLvA71s6yuBLFJzQi3f+Ew9C/68jIdezpHXLNY/vYnLluxg3teO5s9X1hN+gx+kXHoz/1rwS4pNX+frU+cQ3LWpSTr1Ir945E6qZ/6I70yopWX7Pfxzxb280Ns29LyF53HekVdxzoQJBA4YaBgMtP2bTz9zG/2FLEWtyJLHLuWfO4PwsY1X8dcTLqLRe4BmodLInjcZ9YDptSyNHR33ccPi+1jQu42C5GVawwVceuTFnFyxn2n6LZPOzke5duFf6Su/lGvmn800r3tE92c2vZK7l9/B3etfos1QqYzM5aMzv8nlzc14c+v444Kfcm9HC7qWpmD9ngtb/ooIeP2TuPzEv3BpQxmZ3Kv89dFbCTR/lkDiIf61eSE5/Jw87St8deZHGSMXeXHp//L3xDh+fOL3mRXYnV+3Febvzl8zT2vHAm5f9R/ubd9A0fQxseZT/O9JFzPbkxxZ/o4gChAsnWypgCZ68CsuBEcYt5YnUcpT5Q0i77ELOVjGuE9Gaf17C21rRjP1qJE3ww50t/HD55bRF27kGCXOw1tiDOJifmMTXz1qPDMizhFdI8PUyeRbWLD2WWL5c/nMtFNo9HiG/ZaoyS6ev/U6br31Odb0ZhDcQeaffgGf/8YFzGwKYQy08O9rfsqq4GTGWX08e+9LtDnLmPupy/juVWcwIepExCDbtZS7b7yLux9/ibY2FcvQMRU/x7yWFnU7d37rl3TN2/l7ccujdCZNZp1zAV+9+mLm1gewzCwbn76bW35zJ89u6qcgu5g253QuuOoLnDS/AZ+s0rXmYb7/id+wRNPBHWTWFf/HbV8/GseuykWTUmobz9x1Jzff9xTrN2YwdBNN0/nIWSO8AMUeHvnttdy+cRQ//efVzKnxIgCl9A7u+NY3WF77Ga750Sepc2rsWHQfN/z2Pha8up2CaxyzzjqHy648k7mNUYR8ihevu4YbN/qZN9XNK7c/xfqcyNjTL+A737iAo5tCyCNKr0F8xxL++9vruPfR1bSpBpU1E/jIxV/ivM8cz6iwgjmC/B0JvdjHisfv5obbHubVVX2UimCU8kz/wid35W+ucz3/77rruO+/y9iSLuIN1nDqpy7j81edwTipj4f/cA3X3LQUo5QnW1jNV07Y+bz5I5x1zXX87LwJyKJKy7P38M/r7+WFxTvfZxPmcd6VV3HOWRMICCKjZ57Fud87j9NP9fPi965lyfbXvdPpu3Mti24cpPLrc5l7XpgRFAlGRC6mc2iCk7Bf2RnB62RjWUqCi/KoC1nYTy9gyUGwOoCuxoj1JUj1giA7iI4K43Pv/9HVcnmyeQtXxItzzzcJIorPS7hWRPC5D76p1FAZbG0jKURpai5DyKdpXzuAd/xY6ioO4SBeyyKzoZ3ffGcFT7QLTD+1jjPGetC68xi6jlVXxpkfH4Vxy3ZWdFiMnVPHCcdEmT3ejVi0KGRUEv06i+7ZxLNbM2SbvGi6hZpTSSUtcnljV99TQ9VJJVXkjI4BqINJ7vvjUn57Sx+q08vxHxnLqAoHhWQKwXQz48TRnLyjhQWvppGiQY4/q46ZR0fwu3bndSmZon8ggzMYobzcgyCALCpUeL10DOxgsGBRpi7nsb4isxvmUZ3t/v/snXeYXVW5uN/dzj59Tpkzc6aXZNILCekkpECkN1FQEBAr6r1iwfrTe722a0G9tquCimK5oCKCjSoEAqmkTNqkTpLp9fS2zy6/P2YymdSZICLcu9/nOX+c5+zy7XXW+vb61voK+wpxKj1lCEKene2bOGCUs2T6DByiTn/vc/zmpW9TUzeDG8qCp53gj0bwTODKaW9i8sABNh5ci1C2lAWRClTA7ZtClWscU39RobJ8CTfPLqG351me6tJZOHUp9Q4VQZCor6jELYlAekx5BauXJzbew8OJEpbPuhGPIJBId7G59xA31pZzsgWWGdzETzZ8mxf1BXzkgrdxSTgwzo5ToPXIn/nRjrVE6lbzVtVFsTDAoYFd9OdnU+YJMLXmYm4RJ3L06CNsyVazdPL5RAQRSfYwrbQUEQELk3yuj7XNP2EnOtPrL2Wx0c2z+x/hZ745TFuyGNPMkywkOSFczcyT1HQ00wIsMum9/PrFL3Nfu8CCiVdRqYpksgPsih9iUcWCcbbvEJZpkuzqJV4QKY2G8LiPL3saxSP8ccef6VQaWFIXQVV8OK1D/HqrQOVF9aiqQTpZoK0nD9ZxQ1XXTTLxHJQEqZ9dxg1igPbdfTzzVA/xujLeuDKEzykSnjXcv/N5XvjlDj73jQ7CFzVw/XQVwdA4sC7OS9dp1IWPu6eeTd7+3mf569E9xE+OOxP9TKq8kJVVNSPXKWay9HcPYjpLiEa9JyU0MUkdTpCKKdQvLEFRR+8eGRx58SCf/2QzzZqLFdc2MMUvEW8tkDZMPFMqufSSAk8/3Mb+uMysNzSw+LwA06oUzHaDTFKjvyvGH+/NEj+axblMx7CGdEsiLpPTzKF4I8uikC2SiGsk0gYmkD7Uyfc+t4Wf/DlBqCbIFTfUEPQIZPMapuxn+dX19Hbv54W9RUJNEVZdUs7cuV7co+b/md4+BpI6vtIwwcDQDy6Hl4DT4IXBLjJakczgBjZmvSyrmwnxIxzWc8xwhzGtOBsPb6bPNY1LZi9BIMvRo49z78YfU1/9VZb7xkpqIeAMnMcbZ+ToHWzm2daDNExcyRSPDxkIR6bhG4+rijy+8TYeefP5fTy0/h42ijO4YvZCZEunO32U5oGO0xgsFn2df+bHm39Bv+96PjvvCs7zuMaWF4A0m3fcz31H2pkz5VqWyQrZbBc7e/egNU3Ao0a5YOJVOAId7Dr0Z9rkGSyvn4wXUNQI0/zu4esYJBL7eGrddyh1+1nZdDVaooVntjxIfeks3tNYjmlkSGkZiqNWVw0jS6qYR7csQGeg73m+/dxXeSHfwKqpbyIsm8STh3gp2c9MX+m42nfk2ppGrKufrOUkWhXAoRyfCKezO3hoxxMokfksKa+jobGKzvYXeSjv5ENLKnCO/rsFEd/CKgI/7Ke/OYaxqOKUVe7T9V8AyzLJ5vNsbNnNwWCU1VMayfV28uzeZjKKh+9e1EDZOOYtklLCvJkf5hvOB/nWiz/lS7Eu3rvwTSwOhYcXcQ3i/YdZt7mDsgsv5UafQj5+iI1P3sd9DRNpuPMN+IFirpPn/riW7XXLWHL91czp38lz93+bR+ZNp/7ySbhzbTz6w+/w/T/mmbPwWpZdpJDt28vjz+8fJY1JfrCPtff9hJ26zvSLL2VxoZtnH3qEn1XMYfpdF5Da8Ahf/dy97HOfz+pbVuMSYux6+jm+8BUB/3c/wYoJTgJVU7nk7W9hst7Hhoc3kD05piEf56WH7+M/f7CJ6tmruXG+CyPTyZq/rRuzvUZwR1m0uIlf/O05nt81yPlRD7Jgkju8gRdaRKZfNYcyp0Wm5Tm+/bV72K7M54p3LkQqxtj1/C/5r+/D1z5/K7USmNoAzU/+hYO7ZrJg5SVcZ7az+cn7eKBhItPufAMRa2x5tf79/M/X7+aHaywWXHo9yyIWA7u28stvfYNUdS3/fs0khLHa92PLxnbJNDXa1j3Kf371QbLRpVz7lhBSMcHWdWtGHVTk6L6dbDlsMP2aa5nvsEi1b+fZ+7+Nf9507rwoytQLLuYWJnL0xUfY0lPN0qvPJyKLSE4P0yaVIooCphFn45rN9JVM45Lbh/XZi49z7zd/TP3ir7I8KhOau4R3zgXoRD7rhE5HG8yT60iTak9iEuCUCdPLRI4NFvFES/F6ZATLQktnSCQM3OV+HDJYxSG3BEwL07SwLAEBncxAlkzOwhnx41Es0v1ZUr0xFGeEEt/oPRKLYqbAYGcKfH5CEdcpk1fJ6SBQ8fIcogXZQTDso3dfN50hL9WlfkpKemk72EWJt5YS96u0zWJBvivBti4Ty3BQNi3Kde+po9EskizKlNW6qH2vg8Fnj7C1zWL6xY386531lDmh84WhSxiaRbHg4vYvzWDGzBBTqy32jnljjQNrj/Dgr7pJWj7e/pn5fOAtlZT7RTKxFAnLR2V4OmZ7nC3bUlAW5OZPnM+KylHaXM/T13qUfQdjuMo0nCUN+FUBUZIpC1YhtXUzkE1xuOMPfGtbO+/wTOUmOU3KKqM+GEDAxbSmt3JXo5Ooz48g6AweDnBo7cO0JXUoG7v5ZN8Mbps/g2RsK1/v2wuTbuZjsxdwTuVCRScVVVfy6aor2bktyf5Ujpsu+AgrPb6TDNex5bWsQfozFk6xjiun3868UJh8YZAB3YEsinAsEa1lkopt4d59v2JdbgafvOBdXFgVPQehNdJajEzWw6rKy7i1aTYuQaMnl6XM4wJZYU7TTcyeUOSZNTvo7J7Puy+8kxnSif3aAAzTQJcruOniO7iiciJy/ijh9Edpzg2QGo8olkZ333oe6xW5ZtEn+cDM+YQdEvl8LwOGSoniRB1X+w7LlIlxeMchurMSdbMUJjQGR7bdRbWaa+Z/EL9TZuuOh9jnmsWVk67jgliBKqeEXKPicAn0DBZIH+nhN784wEDTRG6dJ9LdkaG+xsuk5ZO49DqDPX/ayf6NfZhzavjov02hzD+qbRIGsf4cAyIES0q4/LaJTK+CvqManlrXCTtgZ5O3r2cNv9j0AAdOjo1WKrliXh1Ljhkspk6qu5N92zowPaU4fJMo9Y92/dDJdWfIuwOEKx0n6sKiQerwIC0DIHoV6i6o45bLSilJFtB8TiLhCO93i3Q/387BlMrSt07lzitCuCXYuWG4N2Ut3OEQ77lrLo1TgjSUJMd+VVg5NjxwkEefjOOvKeN9X5vPTReF8DogOZCk6AwQWq6SfamTjfuTVM2o4N2fnsPUUYPTKqRobznMkd4CpRMsnDMrcckgKx4qfAFSiR5SuTjtB37G3R1RAoEJTC2kycoVVPs9CILK0jkfZJ4cJOp2gZXhgD/HnTvb6Elb4BvjGQQRf+lSPrp0KZ1Hfk1n76NcNOe93FRZe25xcLJ/XOPNomQMeU10s5+ehECkcgZvmfMWGj0u0tk+CtJJixmWTk/nX/jqod/Qq17Mly94G5OD56L50sRyOSiGWNl0I5dU1mHpSfo0KFEUEKq5fNa7ubjQx6+T63nadSUfXHE9lSdcY0ifFXUBd+k8/mXFbSwtLSfTvw7xr98kUUiRo3xsUYwkO9vWsEmfzAdXfIzrJk7GIxgkM52kpFKcDve42neoXUwKsX4ObDtASvCCaypVZcfmDwJO73Teumgile40D8b/gqt0Ke+ZuJpYXiZwsn0rCEjBEJEak55DGfLAaOelM/Xf4+eDK1DGe1bN5/a6ANnDO7j1iV20dnRyIFdPmdui/fAv+dbuTSOJICTZw6Jp/8otDbXHd4zkEiZNuoVP+hr55fp7+ObzR7hl/oe4urIMURApqZrOTZ/8DP5oGV6XiN7fws+yn2JNXz/ZHCPvw1zVRXz23z7GdaubEA88ycd7vsiO3Z1oF9cR2/4if/prgUs/eBf/esMiKrwi6e0PsWfvvSf+VZqBLlVw03fu4IoFE5HjRwn3fZTm7gESRpyXHv4rRxxL+di3P84V08tQzAQ7F/6Kf/vi46zf3MqCCTMpqZrDLZ+fg6Ht4htbDrLhpD4V79zLXx7YRcNld/DpD1/FlIiK0bGRj7fvY/zh2ir1y5cz755n2fx0M4kVVYTEIi3PPM9AaDorVzbgMHW2P/k7mmPnccf3P8IVE0oQtRhbJ/2Er96/nq37r6R2ypAyzwVmcNMHPsUH3jKPkux+7tU+wu8OHCae1FBSY8lbpLN5PWvW61x91yf4lxsWUeE1iR3aQunHP8cLv3uB9ismUjNG+yZhTINFy3Sw5tdPka15M5+9+90srPYipY5y35da+fPIUQpVs1fyvn9bRmk0iKoI5PY/Tbr763R2ZTBkP3Muv4nZlxR55ss76HxhPu/+/J3MOMn9yBJLWHr7B5mnBomGXGBmOPBQjjt/1kZPjwXnMqVBpeKmGayYPxHXrDDqWKvV54CslgYIhYZenJZpUUhmyWY0Cu19JDsFsCwMzcAUEnRmM3ijYQKqRrw3heUNEq304pAtPF6Z7iMpEn1ZPF4figBgUUxniHUm0BxuSqMenK90hKgg4i6LEO2N09baS2m4hlBFmO5tR2jvLsVT50N+NWwWEZyTSlnV6OWx3WnW/WgbB/+4l4WLa7jhvVMoH0+6GqdM/TWTeO97JhDwiGQH+8eebBR0Og4m6Bi0cJaXsOSKciIlQw/sCfk5nUfpKUgOPCV+/AENV8CL69gOmCjjKaml3Fed7HwAACAASURBVOwjW+xmT1cnE7wBmttbuKC0H1Oops6vIGIiFvv580u/4y9dOyhYOmYxQa/GyBb0awprbHlFsY6rZ13Mzk1P8J+P3UV9+WxWNF3C0ugkLEatF2i9vLDnftrNEJ9cfhvLKivOcS3Bw7SqlVxXs4cnt3yNDXvqWTx5NStqFlEjnWOqZMlFefVqrqyZjFcUseQ6br30blJCGRFgYKzzzSKDsRayvimsbFhA6XCqZpczSvW5SQKA4HDjD3nJOCRKfOoJLhqC4Kch5AfLYNHMNzNH9BB0uiitGPo9Uu3F55JJJbK0Nmf46wOHONzo4IIJlWQzBl6PPMYqzzA+F7OWVbHib0m2rtnJh3YcIFrvZ/WNU7mqwsfoP/Ns8jZMfC8/qHwL2skJVgQJv7vy+DgTJVSvj5KgB8Prx6Oe7OBqYRYMTEE6VX6HRGRGGcurulnXleYP//Yim3/oZvklE7j+7RMoH0d2HzHsZv4t07j9tgpUxaJ39zhM1UyOvfvSJLIC5aUhFq0K43MNyVZSNjS5NsfSX7ITf9CPT8tRUuJBPaZzZRdl/gpcA1myxTbaB2KUSVXs6GvDm+lDVRqo9AoIlkkxe5D7XnqEF2IHsbDQC/3E5bqx5f8nMLa8Ih7HVG6ctYRv7f4jn3hkA9PqFrFqwhtYGDkpRX92P7/d1kqXazH/tfQmJgdLTrnf2SnlwklvYFP//3Dfms/yR/8kLpxyKcsqZ5/7g6khpk+4jOXl1ciAElnER6/9FoIzio/CmKdbxTRtsVYC0UtYUjUJjyAAMn5P7bktPgEIArLLQ0nIC/jxueRRBr6AIoWYHAGsAtddcDOKqwS/rFByhpeeIMrIKphZ49S6R2fqv8fPxuUKsbzSj18W8ZQGaHTKbCym6E6D5TZJZzvZ1buLmDY0WBRHiKrsadpMclFXvZQbzu+hfc33uW9bBTWed3F+wIVQyNG2/il+/MDTdMYTYOrEe7tofOuJl5i+cBlLFkzCI4ngCeF0ecjlC1joxAf6SLvKWbRgAmXeoUm6CqfGTThdlC9YzZVLJ+OVRCy1jlu/fTcpsYyw2cXBlgyhxSu4ZEYpTgnAT/1585gW/BXt7b1kNE7YYT0Vi0IuRk/GwXkLp9FQNhTDJg9/ziW/lBiYxsoLo7z0/Fp29lzM0sBBnn1ukMjiNzIzKGJZMQ7tbaOnpZPvvmMP9wzfXy8k6cjU0NEzgDYlAkB101RWrlpAqUeGog9fSZBCr4Zh6OOQN09fWzuDwelcfuFUKrwiIFJSO5N50zw8+/x+2uIWNYGzt+/Ya7gWejFJW1eG+gtmM7POO7K4dnLCKllLs+Whh/ifx9aTyOWgmKOnd5CLrxt/+wqmSbHnIPfd8wgv7DmIZVnoqX7irpenf9W6ANX/ANUth8PuEwKvJYcDt184nnrYsrB0HVMYikmRJDCLBoYu4HApyIqIKILqceCQBAqFITclBQstmWagPYnu9lJa4celnn6CYekGhVwRHA5Ux7nVaRm6gIlhmIjKUACcZZmYiMjSq5l1TMBfV83/+6nCvB/v55kdaXbsHeR398XY3J7nS1+bz7zg2a+gKBJ1TQG8zpPXq0204lAQ/2luiyAKwyvc1umPGVN0kUB9DXNqqkCQRhl4Mh5nNW75WXriu+ktTGflRIVt7S+x2epC91RQo8ho6R3c8/zneKjfJOoPExRF0ERieuJlCAOgoxn6kAvc3/X/5Snop87yCuOQVxDcNE55N3dXr2LLwSf509Gt3P/MEzxf934+s/xayo5pDzXMlKp5VHQ8z1OtzSwoj9LodpyD2CLu4GLec1kDF3du5M8tf2Xtzu/xxM7n+MTqu1gSCY96SVuYVgHNsE7z9gEEAdHhRh35KhPwTyQAWNapM04LSOULYA1dzDB10rlBdKFsnOPm9O17DEl1UT93OjWWhSidIThVkPC6S09ZbVIqvTQpEjt2DrDeSCGU+vB09vJ8s4fBPpXyMieu8XjMiDLTL5vCN+qC/PWhVp7ZlKR1Vzff+PAgWz+1lG++t5zA8OT8bPIaeoq+dPdQ0P4J8qsYUohyt3t4DAp4ysqYGQpjCSLyKW5IAqIiIaKhG9aJxq8gUbO4iS/f5+SPPzvM+kNpmnf1c+/XB9g0YPGdz0wacwHC5VaobfSjKgKckHDaIJ/n9CnlBWGofhZgWhbGyxh4gqQQndZE6RQTUZSOxykKLsKeKEW9jd74AY5ai1hdVeBIzx72Fttw+OcSlQQSfU/wlWe+yRY9QJWvDBUBUyqQ01+uU69GXjeHnvdl65Azj7fxyCsqZSxc8Cm+O6mF51v+xJM9z/Ptg4+xfObH+cD5S473eXctiyrK2Nq+iyfbDzElNIeIci7PLROuuZb/d81c9hxZy6MHnuWR9f/OY/6r+cIb3k2T1zWqCUwMs4Bucvqy0YKILKscWyoRRQflgQYAjOKpk2/dMMkUtFHfNVKFBMjjefeOoc8QcPhLmLx41nANtzOsPAoqYd946rTpGEUQXdIpj37G/nuCNMJIu2i6jmaZIIAoDOnaSVM+xG8mvv+EMSbJ3lPjccwCXYMb+e2WP9DpXcQts97ITL8TS8+w9Q/f4wtfXwPVtZRVRhH1POQGT5HF5XQgnbaGmU4+lSOfMDGs4xogk06g6yeZCIKA6B/1vhBlAtVD7wtDa6NYsDCLBsdVvIBlWZimgCiOp56NQTGfJjM4lKTp2GUK+Rz53JjJj09AlNzMueYqap7+NZu2dDI9soltxVquu+583KIAhoAsgzMcIhotRx35AyuoDjRREz4+BlRFwaGcbjFwPPJaGIaBkS2imRbHh5GFoVuAeHw+fZb2HQ9GMUuqz8TSzREDW9eLZFKJkR1nPdXJn/77y3zr94cJ1VdRHixBKCRJp5KnuaKFaRbQNIuTt50Te5/gK5/6JlvyAaqiZaiCgDlYIFd4bWXAEuPdCQY6Ewz0ZCia4C4PUzM5Su2UoU/1hDAlXgk1WEK0sYxw0IGiykiKRWYwwUBXnIHOBP0dKXJFE8U3lGbTyOUYaI+TzFkIWGQHkkP36UqSShVHvUotCsk03ft76erIop9rknBTJ9XVQ3dKorIhgtMs0Nc2AIEKqqOuVy/jmAVaW5KWpJ9r/v1CfvjgBXzgGi+qZNLekaEvNrpwgUFvf4G8duqzjvZ3F0UFjw8Eocju/Uk6kjqp7hQdraMGu8NBVYOfypBFIRvnmd/20Z+ywCqS6OihtcsYlXfdIpcv0Ddw6uRVEEVkRUY+Ib5IwqWUUyHrHDjwOAdKapkTPY9S9rK+qx3dGSAkigwM7mXnQAtTp7+LH77pPn5+zbf42PQlVDjP3c1PEh24HHn2D+ylq6C97ArgbocPwzpEc18X2ZNmaeOR19La2dJxkLRcw8o5H+Luq77LBxtr2N7xOJuTowMZFOrrruFfL7wMo/VefrT9bxwtnEOBHTNDx8Au9iUtGmuv4qOXfp9vLr2Zkuxa/tp9fIIsAB7VR0prYffg4MuqUeN1+MnpOY5kOylYWVqPPMVvDuxAt4ZuIkkOouFJSLEdPN76HO1FDROdVOYQLfGuEybrZ2vf0QiyhKzIiOcYmyYEPEyIiCS39vHcjhyTrm1gRaPO80930ZVTqah0Dq/uiahOGVW1MA9m6I+bJ0wY9HSB3RvjxJ1R3v7ZC/nZry7gjqvDCOkMm3YOoJ1UyORM8rYe/Cl3PTJUQ+iEz+8/ynd37+QETzFBQFLk0xgrADLOCjfOTIKB7uKJCwymSf++FF3uCt71nZX84KfzuH6RgqEbHDqaJpU9Pm4tq0hHVwH9NAbjcZ0nICsKbi+YVoGXdiWJZYr0H04w0Dtq8ulx09Tkxucy6W/r57k/xkhrYJl5+tr66egffQ+TRKpAMnVqHxckEUWRT4rZUQi6o5RogzQfepKjpXO4sKKBVGILzfEkojtEAGjr2sC+XIKVCz7Nz998Pz+9/Avc3jh51MRj/DhkN4rUy47eVmLGyyt2NdZ4G1tei2JuP1u6OhG903njks/xX5d9mTcG8zzTtvZE10LBw9wZ7+D9509jx5a7+dnerQyci9j6AHu7W+gqlnDe5Fv4/JU/5AvnLWOw/3GeGcyO6H8BEbcq0ZXew6FUmnNtGQEBt8NLLD9IZ2GQohFj66G/8Vj74ZFjFNVPbbCBeOfT/KVtB/2GAWgMxHexJ50aiX05F30myjKycg7ZuE6LhTE4yECniNpwfBJ5wvOdtv+eilbI8VxLBzszOm5PmEb/0PGi5MSv+ilxHv94T9YBZoZDR//MV5/4L/a4V/AvK/4f19dU4RAFitkse154kuyE6dz1o+/xy4d/yje/8C4unH4uO24ugtFSSsw9bGjuJJ/NMdC8ll/8/BE6e89hAVEIUVFp0Ln2SR7d048GmMUB9rz4PFvi5TQ0RPGO+XqXcfujREs6aN5xgHimSObwDh79xYNsbek8h2cCBAFvzVwWTrRoXvc8T/xtK2LjTBY2eIcNRj/VTTWUTl7E+/7jG9z/2/t54NHhz/2f5doF1eNIgDMeeVX8oSCe7o38+und9OSH+nf/7hd4aksKuXYK9YFXZtKpqBVU16Q4snsHR/s1jMGjrH3oNzz2fMvIMdnBfna8tBb/isv5yi/u4Ze/+QFf/Og1TKk6cTVPADx+H6lMC7tbT6PPtm1gXzzByo99mp8/cj8/vfcL3H7l5OGFr3NHO9xDy493c+jFgeH42FcGub8zDoDgcOHwqSjyiZazwNAK/mhlIbmchKuCDHalSXQlsBhKvemNBAkM+5gWCxqFogWWSaY/wUiiMUHCF5Vx+5SRRRVBFBElEWTrnJWSaeikUhr+iiiRoAMz00+uKFHZVI7r1H3dfxyWRXJfG1/6UhfhoAOHQ6dnXw4NJ3Mbyphe40RWTBqnelDWDbL9kT18oqOH1e+czcVnGPgO1cnMhWHUpzs5+uwB/v09/UTMHDs3j07bJlO/tJorburg6C8GefjuDRx5MYjPoWMUdRbfsYJ3latUTfQTDIp0tvXx/Y+sYdvVE3n/LXVUjTG4ZMmBR0ryuyNdXLPyPTT4glSqKX51sJmJM25AFkQUNUTAGWTzvl/x2d6nsIw8vbGdtOWOd1QjvoGvbn6Ig+kYg/G9tCVFvvxkG9HABC6fdQdXRIe2n1wOH9XBSn5+8H4+mXiBUlnBHzifW8+7mTmB8QahQllJIx7pUX77wmfYtbMUVRBpmvBu3jdlFq7xyFto4y+b72WHbuBV3GBBKtmJpCwgdEpiCR+z6t7CnQuy/Me6H/MD0cVHFlxI2Xg6s5njwJE/8N97duL0BJAFEaMwyGGjnIVedSSGQhAEqkKTKeYe4EdPf4QnPT7UYR/pWxtqx1ztEgSRYMUcJhuP8du1d7Gz2U8y3sr2nI73WE0e0Ul99SVcVfYi9278EjsONVAqS2iaTlPTrdwxs4Jjj3629vW/Ann4BUGhJAKDiTj5dAXXXVBPhdTHH77TRdYd5pqok6HeIFJRF6Ch0c2WDYf51AfSlPoEoovref8tdZRqOdb9dhu/bxYpL5URMeg9mEDxuFm1MIj7DElCTqam/ia+4F1G5uRZnuCkMjyd8fdMEV9dAH/JPtrWxmia68U1vMND0aBz/T4+9eMk1VEF0SrQvkdHdnhZMSNCeUDBI7ipb3LBgSzP/PAlPr6rnKveOZPT774L+INeps4JIG2PsePB7dzVcgi5N86WvQUYeYWrzHlLA6u3D/DQk4P89N9fYNPDPlRBQ3Y7uOrDy7kyqNI43YfHHefo5qN88X1Zlt48g/ddE8HvPHvvcypeZOMgjx7xceMbpjOxxINL+y1/7e5iQU0AQRCG3OokifXN3+fDB++nWIjTMbiTjNw4dBHLJNXzFz6/5SkGtTht3bvoMHv4+F9eJBicd4J+CLijlHmd/Gnb3Qy0PYhHEIhWXsX7Z62mapw+yWONtzHlxSKb2s1P1jzIoOrELalYpk4spuOviOA7SeeLQjkXTn4H+di3+PaL38PluIvbJk0fM3QHAGOQ9bt/wp96+/C5fAiIaJk2slINpa7jqbtlSaE23ET3oSf5z8fa+bnqxO2uHda/Y0+KRdlBTcVcyrb+nO8+9UEeUUX6Yq3sLErUHDtIDrGo8XJmHfoaP3ruMzy/qwqPYJLPCyxd8HHq6n3DWQXP3r7jyRJ2TpgWqU0dxHIyTTNCnKOzLQCZWDtf/Gsap1HkYG+MrOTn2lkTaDqD58gpIhhZtrX8iK8076C68kY+cf4VTPN5R3S3KEmEymvJPb+Hn3zsUzykSmR6j9Cyu42JDeOVUqJiyizmTnfz+29+ge5Hw+S7W+k3BDyib9zPLUplXHjHdTz2rp/yvX/5KE9XeRCLWbpaO1FWvpFVyxpw6nkOPPMb7v7FBjQtxr7drfT3/IA79vyW6OKreP8tqykva2Th8onc/Zsf8KHtf0TN99LVPwhqxWmNxjMj4PCUsuiKRWz53p/5vVDL0n85n6hnaDwLokTjymuY/shX+OqdR/h1pZdjHtUVsy/g1ne9jQljKmkR/5jyqjQsXcFlq9bwk+9/lQ+tqcIrmqQ62mh11HH7+5cTlUWsv7uwroDDFWL+G+bz268/zGdu30VYSNDTdoS02siE4aMU1U0oUknvi0/zlfcdxCVaxNr20nJgkItHX00QqGqcTHHwAX700Y/wZKkP1elh0c3/yq0ra/GHK/HIEuvv+T4f/sP9FNNxOg7sJOMYpX+b/8Lnf/AUg8k4bVt30pU9whffdwBvaCLXvfMmLplXNfxG0Yk9e5AtXziAMKsO8TvLqG94Zcaz9B/f+PTnAmU+AqVunKqEeJKiEEQR1evG61dRjm3zCiKK04G7xI0/4iVQ5iMQ8eEtceIYtshERcET8Az9NvoT8eL1OUb5bwtIDgVP0I2vRB2VDm8I0zTRdR1VPX33FkQJl99HMOTBIYuIigNfaRC/1zFmZqpXGj2fZs/GQbbvTdLbW0CrDrDq2hl89I5GJtcryA6ZsioHWneW7oEi6YxBZG4N80qLNG8fJONwM3NlHcumuYZWDWSJSJ0fv55j4GiBVEGhYXUVC5okegYFKqaUccWlEaIhD5POC9MYFUnm0hw+kKWvt0CwPMzqq2poiMj4Kt0EiwUOdxfJxguYZQEuXBQm5Dn7hE0yC3TEmnkpUcplsy5hZiiAmWtnX28XMya+ieXRKnzuKA3OAL09zexM9JMXp3FV08VUSFBTfTHnBdyY6V38es8T7BxoJ20IuGVI5QdJFGFS1SrOCww5uwiyhzJ/BCO/lz19R+hK95ERw8yvWUL92R1mT0B2VVLtKtIe28n+gW76soO4gou4qKIWv6dyTHklOYBL6GJrzxZaBrrpywmUl1/PnUvfwvygHxmLQvYIL/X0UFe9kvMCYcoC9USsVh4+shM10EiTPzx2wK+g4nGIdCU281LPYbrSKTR5Nm9ddAdvbmyi5FgwqiDg8tQQkQfZ37+bI/E+BvI5IuWrWBYJI1gJWtr2kPbP5dKqmtPUmxBwqKU0unK09jazLykxvfFabpt5HmpGYEbdEurdKoojQkPpRHz5BLv79tGWjqO6FnDD1NVM8XtGXCXO1r7OV2Bb0zJFYq09bG8zmTivluvfWEWlleG5TRkCTaVcdWUNjaVDbyTF76Y2KJPJJzl4IENPV26kf0fCCv4A9LT307wrRVdnEbk8wg0fnsW7ro2O+HiPhdNZTkOoiUmlJ33CDVSMuIOND9GvQG+MI48m8K+OEggeS/ttoiWTbFk3SMuhNP1xHXFqOW+6eRbvf1sVFREJh9dBtFRioCNHLF4kWYBJS6qpN+JsacmhhH0svLiW82qHXh2i00FlvQdpIEOst0hacDH/jZVUeiwyukz9eVEuWxkiFPIxfW6IihKT3liKttYcsZhO1cRyVl9aQblfJFDtxjGY40hvkUxCw9VUzkXn+3GOsQonGwl29u2g3ZjKm+aspNGrkh5o4WjOZOmUtzI/6MXra6ROgENd22lJZVDcS3jzxPm4LZGp9RfT5BZIDqzj3l3PcCTZT0FQcIka/dn+U/SD6AhT5XUTS+2kpa+DnkwfpmsKF1bPIDTeXPdjjLcx5fXISHIJgr6Xjd07aI33EyuUMLXxNj606FKa3E5ESyeZ2k9z3GRO3RIafSEawrWYmWb+1HmUyuhUap0n1786DZIXr5xh38Ammvs66MkUcPgu4n3LbucNlVGcw71LEBQCvio8Vhu7+/bTkewbpX/daMUemo8ewle5lKWR8GnaRMbvKadS7GVnTwtd+RDLZtzA9bUVSEaERbUzCTkU3O4aJgSqsFI9NPftoytTIBq+lLdMXkCVyzGu9j15HvL3YqQSHPjpftIVtcx+WwVOx/ivn0oM8MSBNg7kLIp6kXjeoixSz4dWzObNE8L4xzn4TTNPe2wfef+l3HH+KiacpDcE2UG0pgl3dxvbt+2jO+Fj0pLLuWRmKUq4iYULJ+O1kuzf/hLJ0BwuXDgZvwpkB9i2dTdG1TxWz6vFGyxjUlU53Z1b2X6wD3XBKt73jsvwJVNE5q9idp0bzAQtL+whXT+XS+fXIJ20kykIIv5IA9OqPfQe3sP2nUeIp0LMvPo2Pv6hq5ge8SLqeTq3PMl9v1tPT08SU3XiNDP09fRhlk3hwkUzKA35qa+ux0i2sHlPK/n6Gdx0x9uYJmdxNMxn/vTycZefEEQZp0vl8Ka/0uydy9tvvJD6kPOYwLjClUyfFEHbs51tu1pp7+mjr6cPw1/JwmUXUO7M071nM/vzUZatWEKFDyhmObxrO0eEelYvnTkueT2+ME1N9Xi1TjZs2kNnRwFX42r+5dPv4LqF9TgFAcs4e/uO63klhWhNEwGzm407d9Lvq+Tid76TKxoVco565i+cTChYQk1lLcWWFppb2ogVq7jg0ss5L6IQnLqIBcfaVxBwRWqI+AbZv3s3Rw72MZDIEZm7imVTw3jLG6lT4dCG7bS0Z1CiS3jzlfNxmyJTV11MU1gguW8d9/76GY4c7acgOnCrJom+fvoyClMXL2RGQ3DYIBaQMmkOP95LNiMRvXIipWWvzHgWenJHXrn9mn8AxWKRXC6H33/OIXuvPqZJPmtQMIabVBSQZQmXOhTnM4SFltHJDbtyyE4FtwL5bBHNGPruOWnFRi/o5PImJgKyU8KBSTY/VOXT55NHlJ5RNMgXDPThVWBJFHB6lJEaFkZBJ5MfSm0qyiJulzwulznDyJLWLZyKC1UUMU2NXDGPILlxy0Nd1DJ18nqeomUCCqokY5oFkLy4JMDSyRaP/X4iDtl7YlFIy0QzcuQNY9jHX8KpuI8XjBonlqmR1fMjPriS6MKrKOOT95TzBSRBxe0YVbfD0sloWcTR8pt5EsUiiuzCJY1df+b0z6ugyioO6VQ/YdPMk9U1jnUxWfLikYeylmnFHHlU/Kf1zz12L234fxBQRBWnIlIoFJBGt69lUTQK5I0iJhYiCk7FeUrK8bO17yvBsf4qiCJur4xkGiTTBggCTreMY5T7omWY5AsGxaJ1Sv+2LJNC3kAbzngoCAIOp4SqvIx4uVcIfe9RnvvUNvQls7ng/bV4jtUyMQ2yGZPisW10ScAhSzjV47Japkk+q6MNj3OHW0EVTLJZA8Ma+u4abURYFlpOJ1+0sBBwuCQE3RjaAZckfF5pxA9bLxjkNZNjNeZkScTplkcKcOo5ncywK6vkkM+Yxv4ELJOCniNvCnhUNzIWupEnpxeRZf/x8WYM9ycEREHBKYloeh5Z8Q8VKTQ1ksU8J7+wTqcfLGt4fJvD+k5w4FbUsQtHnsSZx9s45D3lfBFZdOJS5FE6RCOjFVFGyX+yvh0PJz7vsDyKinKa59WNLDldH3G3Pa5/DfKFDIbkwXOWTDWmmSdX1NARcUhOFNFE003UUe1rWQaaXqBg6lgISIIDt+I4xRA5W/u+YuhFeh7Ywtr/SdD0iaXMWHZule47j+zlrsfXsc05hZ9cPYtpLhlREHEq0mnb92yYZp6CqeA8S1FhPZclp+lDcbgOJ6qooxkCTtdQYchiLk3BUnAPf8cyKeRyFAUH3mPp/02DfD6HVjQRFAWnqmDk8liql6FDTLRMjryo4ned5X1h6uRzeQrDQU+yw4nLNar/6nkSmVO3E0TZgdulDk3ULYtiIUdO07FECafTiagX0HHgcp77XpeWSZIzFTxu52kSr5homSyFUXEfoijh9AwVhjQLGTIaI99hqK5JVhfPTV7LpKgVyOWLQ+NNVHC6VZQRecbZvuPA1PJk8hqmIOJwulHRyBeP94ehYqM58rqBhYRDdSCZRQzx1PY19TzZnHZcvzu9eIaVlVXUyGaH9Zmo4FRFtFwe2esfSkJhaCTTp+pfEHG4XDgdEmhFUvsG6F7bxc5v7cOY2ciyH8wjGrENFpv/Q1hWPxt2Ps62TPKM2UUUeRKXzlpK3SkVtV99Xm/y2ry6WKbJwGMv8cL/66fq4wuYdX0Yx8vL7G4zTor6UZ7d8TR7C6d76QJIhP1zWD3lfCLjNBT+kbze5H1Nouuk1ray/muHcLxxOkturUI5h90VGGWwuKbx4JvmMsM1zoUomzEwibfv4pnfvUi7fqZoVTf1sxexcvXkseuWvG5Is+fxZ1m7o438GY4QxEpW3LyKKeXjd+N7LaB3D7LtE0+z/UmTiqtqmPCu2Uya53nFFgZfT21h838Y0+xnw+4HuKfzICeXwhhCpMRzJZOnLqD2NWAAvN7ktXl1EUSR4MqpzHrvPrpbYxTEcbgP2vwdmOQLrTyx6R4eziTOkMzDSWP0ds6bPJfIqyzdqbze5H2NIhqke3N4VjQw7YaKczZWYNjtXFFwy6dmF7P5e9BJ9ezkd1/7HuuKZ0oBEeLCt5Vw/v8yg6XlyT9x78+fo/8MR8jKAkqWzmFS+bii2F4zSEEfEz6wmLJbZIKzA3hLna+oF4O9w2LzusCyPMktMgAAIABJREFU8vQnuhjQzxTNJiAJfqrC5bhfA9P/15u8Nv8MLMxikULCQi1V7cnQPxjTzNA92EHyDPsVIKJIQaqDpecYEPyP4fUm72sTi2KqgIGM6nt5OyN6UaMrlSUvqtQFXPbCwivGUJ2UzoPdnDnJsYQnUEZFpf9/0eq6TqKzm9545oyZ+gTBTXl9lIDrlS5c+PrGNlhsbGxsbGxsbGxsbF6z2It6NjY2NjY2NjY2NjavWeTO1ji+Ui8+32k23EyTbH+cWFJH8fsIhV0jVdAtTSMTy5BJFYeyBMkynoAHf4k6nBHLQktlScWy5AsWyCKq14U/5MbxaucbtrGxsbGxsbGxsbF5XSJnYkkyWQ2zNkTJCUaLRTGVYqArTVYzUGUXgdDwT2aRZHecgcECFgIIYFkFcqk8OmWEgzJYRVI9KRIZfdgD1yKbyJPXoLLSc05pBW1sbGxsbGxsbGxs/m8iR6s99LRlyWaLeL3ySLFFUysQ78lgOlx41Bz6qJOMnEY6lUcKBSiLenBIAkYuQ1drgky6QDggIyDgDPpwVTpRHQIUC/S1DpBNFtAq3SPFrAAs3aCQK4LDger459VGsLGxsbGxsbGxsbF5bSG6/V68TgujaGIdC783DbJ9KbI4CER9qCdth4iSiCSJmHkDQzOxBNB1AxERhyqDAAgKnrAHt1tCkkUESURSRGRV4cSSSRaFZJru/b10dWTRzdd0DgAbGxsbGxsbGxsbm1cR2dA1irqEqkrDbloWWjpDPGnijQbxuiF20kmCqhKM+jA6kvQeziE7RHTNxBX0EwodrylhGUWSnQnSeRNT10F2Eip3o5y0gyKIIqIkgmzZuys2NjY2NjY2NjY2NiPIqb40lseDr0RFFMAsaCT7Mgg+Hz6/gmCcpk63ICC7VBxOiUxSx9AsTFPEhYWIBcMmi2VZ6HmNfNbEMk0sIUc65cLlciGN5CcTcPg9VEx2giwh28EtNjY2NjY2NjY2NjbDyBlDIVjpx+kQwDIpJFIks+B1g5bKU9CLaEULE41sMofpUXFIRWJtgyRzIoGaUrwOk2R3klR/AsGhUhZxIAogyg5CjVECgJErEO+Kk+pP4PSoBHzHMyoLoojitDMs29jY2NjY2NjY2NiciBysDOBzDxkLlmlRzGlouQIDR/MMnHBoku5kBl91GWG1QCZVRI2WURpyIYqgqgL6vhjZwSzFiGOk8q4giUiA5HURrtDItWbQdRO7BIyNjY2NjY2NjY2NzVjIHlXENEwQBARRxB0JUuUzRw6wdJ1UX4K85CZU6sbpdSDmNRDA1ItohgOHJWAaFiYWgigMOYRZFuaoAHpD10kN5DAFCUU90VjRs3nivRkEv59gULFTHtvY2NjY2NjY2NjYACAf3tUFgOBwEqkP4HG78LmPH2BqGlo8SdGh4gm4cchgCQ5cXoVEf4KOWGrYQDGxRAlfeCio3spm6W5Lki8MGz8CIAi4wkG8J7h/mRSzOZJ9aSjKeP1+VNm2WGxsbGxsbGxsbGxsQFbU4dL1ylCWsJNNBUEUUdxOXIo8svMhqE5Ka8IovRnS2SJgIclOfBE/bq+CAFiCgOSQGPomIjkd+EIe3B5lVMA9gIjicuING4glKopkGys2NjY2NjY2NjY2NkMIPbkjr+nCJ8VikVwuh9/v/2eLYmNjY2NjY2NjY2PzKmNHvtvY2NjY2NjY2NjYvGaxDRYbGxsbGxsbGxsbm9cstsFiY2NjY2NjY2NjY/OaxTZYbGxs/pdgke+N0f1SDO0fcHWzkKLrxT6yxms67M/GxsbGxuZ/HbJpWgiCgHCG5FyWaWFZFoIonnLMsd+AoTouZ7qOZWFaFlic9jo2J5Nj3ba9/OZwjCSAJ8gt501mRcQ1coRpJvnj87t5PJajAEjBSj5xfiMTvMo53Mekd7CD+9ceZI9pgSgxsXEKd02LoLzCxXDMXD+/2NSKUD2JmxpKeP1nrrbIxl/kv9c9REshi4WAy7GAd6+8kVku9wnZ9izLpGhoFFHwyNI/TeJXBCPBtgMP8fM9G4f6Jn5m1F3HbXMWE3ol72OZtLX+km/tO8Sk+jdz25TpuMY4RR+MceC/munVqpg/LYhjrBPOTSD0tgT7P7Mb6c3TmPPeatz2co+NjY2Njc2rgnx0bz8lZSWUBBXEkyaplqGT6hxkIF7EEQpQFvWgSAAWRjZPsj9FOlmkaAKKjDfkJRh2o5wwG7XQM1n6OxPkigL+6jJCJdIp6ZNtRmMSS6XY1ztIj67RJ2usmDThhCMsS6cvkWR3b5J4oUAi5eS9s+rP8T4Wup6ntXeQXaZOLKPT7avjrlfuQUYwizma27rA28BN/4Drv/pYaFqMQ30t7Mj00ZuJ4XC6uG75m7AYnR7cIpnYwyNbfsvfpCV8fdEKIqrjnyf234tlkMx0sLd3Dz2FXjpzbnLOhdz4St8Gk3h8O4/tf4mMbxU3j3V8Ls/he7fRukdh2udq8KivsEAIKBVhJtwUYP2De2md4WfaUr+9+GJjY2NjY/MqIFrFHL1tgySSRU50dLAoxJMM9hfQi0WKRZNjmymWUSTeFWcwpmHKEooqIVk6ia4Yg3F95DgASy+S6kuRSRfRCkUM41V8utctHt6wZDEP3HY59102jdmn2e2QpCC3XraSR2+7hLsX1VHzsu4jUVk2ga/fciV/edtSbi7z4vx7Rf8/g0ggcilfv/EBfn/lp1leGjjDcRpdvc/x+z0PsCXew+vemUgOsXT2x3jwlof53oKLCSjyP1siwCS74QC7ntUofds06mY4Ef8Bux+Cx0X0uolMmJxl3y+OMthvvP7/TxsbGxsbm9cBcrTGT/fhFLmcjq/EMeKqY+RyxHpziF4PXjNNYdRJZr5IPldECYepqPSgiGAUMnTtj5HPaBAedkuyLPLxNMkMeIMuMqnCKQIAGIUimUQewePG65Zen6uWlsWRowd5Ketl2eRyIicYGRp7DnWwWfdxbWMIHzpHe3vY0pmgQzdRZZXzaqqYFfHiGJ5oyZKMTxLwqzKnnxIKOBQFByZeh3SGYwBTp3+wn7+1DdBdMHGrfi6or2Rq8JjrmIhbdaAaCs4zuoEZ9Pf0sK5tkKNnkBdAzyXZ2NbDlsEcFg4mV1RxYbUX5+mKgVoWR44e4IlBi5qqalaVuXk19h3SmS7W7nuUbGAZq2um4RtpOIt8bBO/PtxKZWQJq6qrycb3sqFtJ/syvVhAmXsSsycsY7JHHQr+EmQ8qh/T4UU9pe0sBrqf5g9tezncs562gkZu4Fnu2xzHJUkEQgu5quE8gso4XMQKnTx9aA0H9AYuq4vQenQD29MJKkJzWdk4l1J56L80jRh7D61h00AncUB0hvHLQWrK5rKyrHT8jaSn2dO+hbW9LeRMAbdzMosb5zLF70UCRMmJ1ynjVRxn3Cm1tH5aOjbS3HeUXtOkxFHFgsZVTCzxHXcHtEzi8X387fAW2gtxRKGciRULWFZTjfvUK6Jl9vCnlnV0WEEWN65gTiiEBJBMceCRdvSGGqa9IcCJXnc6HT09bEnILK71sa+tky0DWfzeElY1VVGpysOBfEXauntZ3xaj2zCxHAoRB0ysmsj5AWWkaK4ULqHuynqO/EcrrVtqKLmoBPmkwae1Jzj6ZC/SnFpqZqin/G5jY2NjY2NzbsgOlxOnI4lpDsWYIBzfFSk63IQjbnLdmRMMFlGRcKgSqUSWlEvE45MpJPIYSLh8yog/jJHNEB8o4CgNUCLnyZ3WYDHR0mn6jyYhYKHW+3CcQ4CDqWsMdvZjuAJEIi6MTJzeLg1fdTn+V3G7wLIsBnrauGe/g2htGRG3RaZooioycjHDmt17eFqdzBX1ATp62/jec9tZ05+j3zCREakJ9/GRy85ndcTFuUShnF0og8NtB/jm2r2sGUyT0i0UyU1zssjHl0ykejw3sgyOdLTy388180xfjgHTREaiOtzB25fP5821PpwC/H/2zju+rrL+4+8z7973Zq8mTbr3LpQ9BAWEnyguRHGC4vbnFhcOlKWiICA/QUFcDNmrlEJbaOlO05k0aXZyc/c66/dH0jYNhaZSEOS+efVVmtz7nO95znPOeb7P8/l+v4VUH7et3MRf2wZozeoISNSFB5DPXshJoUNdEcs06elp5epVW9jhnsCP6qRDsj9YloVpmCCISGOcHU1PUzAPY6eg4FDUQ9sxDIZDcw46wZlMD/etuZrtlQIzShrxyPuda5N4/wque+FJTp0/iZNDSe587lruad3EPi2JYBnYpFJmd32Ery/7CDNdrz4LtSyDnp7l/G7N/fTn0uQMA2twJTe9sAqA+okCCyumj89hye3j4U23cW9/A3snpVm1q5m2TAKHexIbcj/ge9PnIJqt/GPFb/hTy3J25DLkBQFLEJFsDbx7yVXjdljMfA/PbLmVn6x7nLb0IDqgyqWclftfvj73dErH4VUa+XYeWncTv9/8NHszcZKWgU3wMHHnBi4+7grOrwwgozOw7z6uXH03Kzp3kTTzSKKP+opTsHmu5CT/obLSgrabB1b+gqubN1E26WIWTz7oLGV3DdCzPk3o4xGcjrH9adDR085fNhdYv9VkdV8f29MFVNXOY9F5XLu4johisKGlmevX7uGlgTRJwBIFnKrMJafVMdc/+kaR8M0ppXTCHtoe62PqUg+yZ/So04itaWX9N7dhnaMT+Hkjfn/RYylSpEiRIkVeC7Kez1HQZVwOeVhGYZnk42mSaQFvlRuHzSI75kuCYiNQ4cPoiDHYnmNIEjAtEV9pgKBveCJhGQXifWl0xUlJ2I6YzL2CCSKSomJ32RBcMtJRSjlEAcxMgvauAjZXNS5EUt3dxFFpbAigvEG7NYIAZQEPpjHIvqRJPt3Bd9d0sXj+XC5w5enIaZSXuVEkgSEkJjVM5YKTIvhViPbs4ZpVO1neOZllQQfjmcOOh1w2yj/XbmNdwcNlpy5kaYkNLRtndwryh5v0H66NdJyHNjTzeD7AR09ZykmlCsmBTn63eju3bGrn5NLJVNl01jTv4C9tCaZPmsOPp5XgE/Ls6R6AMQ6HZRp0d7Vx4wvN5HwN/HzxJGYHRgccWGT7B9i1rQPDVcLkGRU4bCNr4IUo/1p5Ob9uG0Afo8WRPCdz5Wmf5rj9q+6mTm/LHvb25SiZUEdtrRdRALssEHLJpLQsummQzg4yqEuEHT76kl3YJIVaXymy2YUvdBxfmvwRJnkjmNkt/PqJq3m69QFWTnoXMyeUvmq/CYJEw6TPcmfVRexu/Ru/fP6PdJV/nJuPO4uITcWmhql0Hs2ekkk6s4Ln+mfx4VN/w7TMU3z1ub/zTPPz7Jk6DaPlLm5rfoh+9xl8+bQPcpzfxQtrv8yP25JHcQyNvb2Pc/Oqe2izz+Szp/2Ik0sD6NnNdBT8COMZM1aOXe2PcPv6f7BHOpNvnv0R5njyrFr3O67Z8QB3bJ7B0rLziOjN3LHmdh7uHGTp9M/zmalL8Es9dEXbcBoijBJb6Vo/y9c9wM0tGyip/ADfWvZh5rjdI86pTrozSUb2UT/DhfQKvkFXbxfdwTAXLl7CCRGZFWs28seWTnbOq8KfjfKPrXvZpVbwjXMamOWTiXW28d21ew4r+RIjPkpneelYNURaM3Ae4ibL2Cv8BOeFkOa6sTvf4kkWihQpUqRIkTcBcqw3jRzw4vEOr04b2RyxwSxKwI/bpYB+mAShAliCCKKIIFtIgoWZ09FyeXTDjixa5AaTpPIivmo3qiygv4oRqsdFWZMDBOFlgf9HRFIJVkQYHGino8ND00QfJVUeWlq76A84KQvaOMYJrw6PIODwe6i0+uhP59iXH6AzNsBT7XHOnKiTM+zU+lUUUaK+vBJFjdOaztGVs7BMFVmRyeoWx04Ub5GJ9rIiLnPmwjlcMimIKgkIBJhhmOPU+JsMpWO81A3nL57Ch6aWEpAErIiHwlCUHzb30JxvpMJMsqY7hrNuGl9d2ECVa1hm0xSMYIjDuycmgGUR7dvHL1o7ibnq+PbiJpoCY6KjTZ1MIk5sMImetZHMl2G3iSOr6RYue5hyr8rYzLKKK4hDFA+suluFDPHBOPHBPLIvRVmVF4cMDtVNma+GnkScZKadhzZ+h1/2V/CNE7+GK9mGKomUOYNIzhLOnVXNvsEOYsluUoaF16aQTSdoS0SBV3dYQMDuKGOSI4A5GMYuCMhqKZPCTZT8m0H3shLiuGlf5wMNM5BjBU5t6GdIcmHke9jQ0UKPbufUmR/n/Q3TcAgGXQ47wlEk+DUKKTbvuo9VOTfvXvBR3jt5KWWKCNZkZljW+O4jPcaO3o1sy0gsWHIu76ifRVARqBO6eLB7G209y9mWOgez72ke7m8nEn43n1r4XhZ7nIhCE5MjizCQYP8Tw8qxs/Uv/Ca/iYTvHK484RIWeQKjJJAG+f4cBcWJxyu/Yp52Uw3yqdMWcF6lD6coYJ8eo7fNwCULdPcNsTup8rHTJnFelR+HAAXdgUd9hdZEG64KG2JPhrRmEWZ0kgUB76JaTry7EkuRUNS3or61SJEiRYoUeXMh5xUnkTIPNhkwTfKJFMm0iVPNEevJg2GQyZnoWoahXhOnz4VT1oi2R0mbNkK1XtyqRbI3zmA0iaXaKQtaxKNZNEOlEEsyGAczm0M3LLJDCYYMG26/A3X/9ocA4tFurYw+Ca+PUEBlZ/cQuTo/br8Hh9lD72CeiN+G+AYtciouD9UKJApJdvbpzKsIsq67lw0RJwlTZrFbQbY09nS0cv3KFh7sGSJlDC9bi6LIe46lMZZFPJYgKklMDgWwHdjpEFCk8XaIRcHIMijYOcHrIjDShiCohF0qClH6siZ5Pce+bI76yiAB28FJoyRJHHIkU2coNsDOhMXJE8so9xxGsycq+MrKqTcUTIefsPtgRjlFDXHG0l9xxjgsF2weKhtrkSN5/KUhHCMzXEVxUe6twj6Qoj+1mdX7djGULvBCXzOTMwaiEMCtipjpHdyx/s/8a9MTtKW6GNrfsKMB0xrn9tQxRUCVKphaWotdEhFDJ/D9d5ww/Kvcdp4spNEEiVJPGXZRBOvos1sYlk400Yam1lDnrySgjFxJQRp/GmqjQCw7SIwSJkeqsI/c14orTKUis1tvJ5qFeKaHjKHj8kyhwW0fcYYERNGOCAcTd1gZ+lPtoOmEAhNo8rkOE69lYVmvnJodQPR7aXI7cI54XfWNU/leI4DGhkyaqKFSaldRDz6SXj2ToQiY1uHXF0QB+ajSixcpUqRIkSJFXg05UuHDMbLga1kWRsHAMnRSAwlSwz8cqbWSJZ4vYMg2FKVALmvgKPfg8wzvYPgrTLLJKIVEloJXxTQt9GyWaDa7v/Hhn0UTaHknitN+0GGxLEyLV60H82roySTRmIavrAy7bJFOpsmJPmoCKm9c2QsBRfRQ4TbZ2t2DpqtMmRAmu7mdlZ0h8g4blapMPp3kgfUbWW35+Mzpx9Fkl7FSUe7asuuYWyTLEqZh0pfJYlguJGHkGlsgicK4UksLgoCYydKWyJDGgwswzQKDWQ0DB0G7iGQJKIJAdypFxgjhlkUELAzDxBJHTXYlmeoJE3m/2c4dmzdxj28+76vz4x7jqypuF1WTXC+zRdeTPLv+Ku7qHHq5JMw5n88svpBZPt+wkyQIuMtLcJePaURxUOotpyTeSsueJNuFBk6s9LC9cxVSSsehNFHhzbO1+R7u2vBPMv5z+fzxx1GhDLL8pZu5Nzaurj+0DxkZ1+ZwTM0xRxCHlXcW6KaOhYWhD9Cb0TCOwrcSBQm/qxxR66ct1klCn0REHk6hrZkC6ngcXcmG3+7HRzO9ycRwynPRJDrURnshi6RW4LcLeJ0l2ESJZHIHezMaZW4bAiaGaYAwaqdE9DG78XymZldwd9vf+dWGJr634GRKDkSySyh+FcVIksmZY1JKjwcBSRQQC3n6CwYGgGGwJ5ogU3iF3SlLIzeoY5U4sMuHuY8MEz1ngCwh2cSjtKdIkSJFihQpMhZZsgwKOQMEEVkVcZWHqY0cnFVZBY1Y1yAZxUNJmRubXYaMhiBCIZslkxVRRQE9p6GZFoIiITscRBrKCI2anenxBL29GRylEYJ+BWWU3EJLZejvTCH4/ZSU2I4ujsUoEO3qIyX5aKjyIebS9HXE8FTXEg7Z3tDJgiQqVDhlHmztQmiopjFYihps4zetneAOYRcETMMglsnh81YxpyRIlaizqW8v/ek8kf0NmTr96RxJXaMrkSNn6PQnU+wZsvA4XYRtEoJeoCOVR7PydKcLaAZ0xJKERB2/04FfEfCVlzGPdu5+8UVc4hSW+u1o2Ri7khYzJ9RRr0I+l6Urq6EbaWKGRTaXoXUogcNup9yp4ncEmR7O8Y8tu5nok1ngEYn1dfF/OwahcjIzHBKq4mVJxMfKlo38wm3w/voIPgrs7upHrZrICf79EigBm83LO6fOxMhu4C8r1mKTFvKeGi/2cVwo08gzFN9Oc3/0ZZIw2VNJXNOO3IhgJ+CM4BWf4cG9Fs6yj/KeujQ3rv0XK5JJbDV1lMsWuzKD5E0TV6CCWRV1FPqb2Z5JkDUPBq9r+T66shkSiV7SuolFiu7YXlq1EGFXGK+iIKDic4Tw2SQKvRt4vnMhswJOVFuQcqcX+VikxFNLmBKqwrFnJyt3PsaZ4fl0bv8jt+3ZScqqGnczkmxnUvVJTNx6K49suYNJHhenlAbQs1tYHwtwcv1xVNgF4pleovks+zIZDMsgk+9n71AreSlApdtLY8kMJtuf4tkN9/BkwMEsd54Vm55iTwomTDmBKR6RiLCABb77+Uv/o9z04kTkkRiW1v4dmJ53cUalb79VeD2z+fC0GpqHfsoD639DxB3mG9PmMBzaJOMs9+DIttO9LUPVRAdHl2lZJuz2UmLbwcPbu5glhkh0tnLbpt3syx7+2ljxBP2bkpg19YeRjVnkdnSy7iebSIbLmPv1mURKlKLTUqRIkSJFirwG5NYtXQAINiflE4O4HQq2UWoGUwJZEhBlGdWuDE8G7Cpuv52haJLOaGK4gr0goLrs+CIuFElEGON1iDkJURCQVBXVPrpwpImeL5BP5bDkHEZE5WjKSpqWBTY31fUBvC4RI6PjLCnBUxlAfUOCVw4iCAIu1WJjNE3DdB8VbjtC0EnPum4igWrcioxdsjO1opzHtuzhM617ECUbZU4Vw5IPyqeSA1z75Br+2p4CTDIFgy2PPcktdjvnHXcyP5wZwhrYyxcf3cjGoTymZZDVLL54bwc+X4jLTj6BT05w4XWX8dEF9Wxf08rP738S3bJQZSenTp/OvHpAL7CleS0Xr+ygYJoUNJ1c91reuV2kvnEWvz5xCo3+EP8zdxJtz+3kyn+2YloCimyjpqKCzy2sodwmAR7OmtHE80ObeWrVWv650kBAojZSzf9WjF2BFnDYgvzPomkMpNZz+3Nb8LtmcFrYc8QaMKotzLkn/h+nLTvcNoWMQ7Fz5D0ACVVyoEidbE1V8cHaZSws6eAf0l28UMiyNFBNEBdVpVOZ5V3Fo9t/zcW7bsPniFAmqqgjwT+WpbNj2/V87PmHiObz5PQsBfNJvvPX55Htc/nKad/lkokTsSFQFpzF4uolbN7xKF994ElEBOobP8+vT7yYRvcxSOYs+JhRdyrHt2/nkZaf8r5dDrz2cgKSjHwUyjBBdDKx5gIunbWHm1te4pePfpxrBAlFDrFoxmc5oUGgkGnlT8u/zHW72rDMHEmtwJod1/Chtt8RKfs4t517KZMrT+YDU5v5TfMzfO2BRxCQUCQ/E2vezafmv4MKWUT0LuAj895L6wv/4IWNP2fFRgNJcFFZspTPnXjuGMtkAhXv5LOz19L73N95cMMfmBOs4qyKCKoA7oYAoUaZzkd7yZzix+c7um3VstJS3lVfwi82vsh7N4nYbXbml4eoMVKHGU8W2d1D9LcXqLg0gu1lWclMCv0phjYN0R1NEzx7KuFTFITXoS5MkSJFihQp8nZBDpZ6R/5PGQnKPhRBknAEvUiSenDnQ7URrAyhurJkczpYIMoSTr8Lu+Pw7oZot+MvFZEdYyUSIqrbRaBKQnTZUY7SyRBlGyV1lQf+LblCVDUeVRPHDEmSmNYwicvIMK8miNcmY6tv5H8XOqC8nIhNQlE8nLdgESX+vaxLFjBlN/PLg4jpQfJ+BzYJsLlY1tiAO5wf077ClIhjODOaK8B50xqZmzk0nYGiOpjuHfE4JRvTp8zkOk+YZ7piDOgGTtXLqY01VCuAKVJZWsmHZ7swx6jxQ+EQPkUAFGZMnMJ3XX4e2TdETAOXPcCJjeVMD9gOxBPYw9V84yQHy9r6aU5nEQQb0yqrOdEvD8cDqF5On9GEHnYiCgJ2dykfPX4m5s5BUuk8hXE4LACy4sH7b1ybUT1EaWQJH1h4GSeaNZwyoQ6f7OK82Z9gQiLPlAmTUUSRuvoP8Q2hiqmdLeQtB7Wh2cxx9vFIb5TJpRFAIFiyjPfNDJAzx+iu5Aqm75emAYJ7Cpcs+ho1FcvZlkhjWhAKT8OnjHMWa6vg1KkfoKLWxXS347D3V7jiHL55Ypi5e9awz7RRE1yEbd+VfHtP5uh6xzmBC5d8n8kVq3m+fzcp08Jln8aJjYuocCgIhTBz6s/jo97omG+KuL2zCCsKomMq/3P89ygre45V0d3oloOgZwrHTVjIVN9wLRdEG5OaLuUa31yWt29ibz6GJFbQVHEcp5f7AZNw2el8fN4kJlTWYJfsLJj+Bb5HBc+nJCw9Rt4adlgoCdJ0Tjn7rmpjz7ZqZi30jEoqIVNZWskHZ0CJ7fCOjKB6eff8Wdg9YTZnTAL+MKd5knzt2R2M9ffMVIbupzvIllYxa4n3MDVWJFz1IXy1bnr7TSTbvydzLVKkSJEiRYocROjN7n1TF2vWNI1sNovX+9qmqUWKvPkwyBVyL5sUj0YUVWyy8orZr14J09QbnZX6AAAgAElEQVR4+pkLuWxbgnOWXs9Ppk2k8KrJAiTs6nh2qN6cmNEEW37yHK39pSz6ySzKyl/bmWjd27no8W0sWnImX57oGI4R0nWGntnByqv3UvqJBcw5N4wyajfaKmj03ruJjfcMENsaR142hRN/PJVw5K3aq0WKFClSpMibg2JFsyJF/iNYpLNruf6+n/NYOsHhXQkbdaXv5TtnfZDGcWd2OxwDPPnCXfy25cWD2c7GIImzuOKdX+adJeUcA5HaG44Y8NBw6SQGP72dlhs78HyjDpfzGB7AstD29rHt1524TpvM1LOChzgrAJZuUuhJkOo3mXD5TBrOryNUdFaKFClSpEiR10zRYSlS5D+EZan4nSVUSp5XKL9jo9TpxfZvaIoEIBCaz7KaNFN9fhx6kApvJS/PvTaMLJXglqSj3sl50yAIuCbXMPdXMj27ZETHa2zP5mJ+dRkNrhGJqwBWUCV0bj2RC2twOV/eU6LTRvWnj6fsEhBtEtIr1XEpUqRIkSJFihwVRUnY2xYTu/Q3RKH/P23IfykCOeNCTCty5I8WKVKkSJEiRYoUeUWKOyxvUwQMHNKfUcT1b8jxLB3SOZAUsNuOtlbGWw8LBc1cUnRYXhGTfCHLgZQRoopL/u8vtmiaefKmgE1SeYOTGL4tME2TvG4ckFhKkoxdOrSjdcOgYIykGRGG6wsdbbIXsMgX9FHjV8Ilvx47ahaabqALIo7XUFy5SJEiRd7qyFreQFJExFd4YJuajm5YCJKErIzK8GVZGLqBaVgHHvySLCEdeDlYGHkDwzp0A+dl7bxNMbQ8A2kTr8+O422QRqj/BbjsxyDOhV99F0pf57mpkYehQcjZoTL4+jlIlgnpGAwUoDICyps8ZMEyDVKZPIZqw6ceTQLxY4th7uFPj17F3X0d5ACl5HxuOPFipnndr8/xtBgDaR2vL4jjP5Vj2MrRuvcurt/ay3uXfI7jQ68k0DtmBySb6SeDE7/T/ZZNqDB+DLr7W7n64a28ZJggKcyYOpfr5pePckgKbN3ZzC+ea2UvgN3DufPm8ZXJgaM7khnjT4+u5e6+1Mj4ncANJ05lmvcYR4DpOdZs3sRfoj6+tKSRCc7//qtYpEiRIodD3NvSx0BvFm1s6XDA0goMtffRtrWL7u4M+oHlJAstmWawtY+OrV20bemiraWP3s4EucJwO5ZVILqnl71bumjd/2drN10dqZdVKX870t26jZ8+vJ51Ge0VAq7/u9BSsHsn7NwH+pE//pppfQ6+fhlcdhtor+MB0/3w5x/Bu78Km/a9fsc5VuRSMf76xEru2DFA6j9piCXjcZVR4S3FI2TpjPWTM16/O6G79U/89OHfsi6T+c/db5aFVhhgb6yblP76W2EUYjy7+vtct2Y5bxfhpyIrhDwuqrwqWipNe3psMVkBVbFR6nVT4ZFJxpP05v6NB4Ql4nE5qfA68Qg6nbEsubHVbI8JFqlsmvZkjrxZfHEWKVLk7YtsVw2iXTFEm0QoOKoyvGWSHYiTiJtIkoVpWgcCgy0tz1BPnERBxBXxIAkCppYnOZjAstmpKLEBFpYFstuJyyWPBK4KSPaiFAIglsmwI5Mnf+SP/vtYGv0DW9hDDXMiobdk9qd/lz0vwBOroHzW63uc1AAsfxi2lYP2FvA8NcOkNZkGY2zlnWOLld7OMwMy0ytrCb+8WAmSVMeFp1zFhSRYvfFavrnpdTQGiGW62JHJkn9dz/rNhWHpdCV20+bIvy0WRUCiJFTLd/6nFsPo55f3rGbNyz6jMKVhCr9omEwy3c437970b+0ySpKPC085jgvJs3rjS6/7+C1SpEiRtztySaUPs3WIfM7AsEAeeXprqTRDQwXUoAcpnyA36ktmwUDTDFS/n3C5E0USMPJpjFwMI68DtuEPigI2v5dIqe1Vi6fpmRyxvjR4vQQDylE6NMPOlCCIw8ewLEwLBPHlRTBfTyzLorl5Aw/EPLx/cQO1h+imszy3YQeP53yc7Utw645BBqID7ElaXP/Is/xJFBAEgcaGaVw2JYJXFjD0DJtaO3hwew+tmkHYH+LMqU0sK3GgjPPETD3Dzj13cGWbi48tuoRzaxtwHlTskVgPP/0HNE2BPU9DVwQ+dAqseACiHvjCZ6GxAhLdsPw+uHclxLPg9cKiC+CCM6DEBgzATTfD8ym4/CLY8Dd4bBtMXAwf/Rg0HUZtkeuCm6+B1YOw5Hy49FwYTxZaU4euzfCvP8DKTsjaYfop8On3QakKL/wdrvsn7NsK/QmI/xUu2gKiCFPOh6+cDz479O2EB/8OT2yEnAYlpXDCh+FdC8Ajg9EG374BtBq4eBnc93+wuR/mnwUfeR+oLfDj30HLHti4D4wofOMyCDrBPwk++SloKh/fdXqtDA10c+eGTqbMmcaJIQcH1XYmfYP7+OOGIeZUe1i9t5PtQ2m2R9OIG9bTtmcbCuANlHDx7MnM9ctYlk5ftI9HNu9lzVAWS7Uxv6GR8+pLCB+FxxsbXMcda54kWHMRX5p3ImWKevT3o6XR37uKR1ueYO1QH2lRZmrkZM6deQ717uH2LCtHX3Qjj2x+iDVDvVhqgPkNF3Fe/UzCcp5drX/h6i2rGYhuHrnfvsSfRAlBEGls+ASXTZmF9wixB0MDz3HnhtVMmfMRTgyFR/WvTt/gs/xxwzbmz7yIk8KeI9o7lkR8G/dvvIkXxGV8dPZZzHQ7EcwErd2r+deWx9maKeBwzuXsGe/g5IrS8S06ZHbxxw138lRXKx29bfTJt/OVfz6OHbA7q3nnzMt4Z3kAMImntrF86yM83bWTtGRjavV5vHvSCUxwvnHhjeMZv/NnNnFSWKW/t4tHWzpYO5QjLYpMjVRw7swG6t3HWN5omcSH+nl0x14e70ljojK/biIfnFaCd7wPYExisX6e2bibp6MH7T1nZgMNB+y10HIZNre1cffuAQYKUOor5UNzGpgWOIxu1rLo7evkT5v30B+o51MzKqhVhyXWZrZA+61b6Uj6mPLxCYQjxZXBIkWK/PcgS4qCLIGFBRbD6Tu1PPH+NJbbSzikkupMHPIlSVWwOxXi0SRDkoXLK5OLptGR8fiHnRPLAqzhGJhCTkQQBURJRJLHxq+YaJksif4UaDIerxebPP4Hranl6W3rQXOEqKx0YaSidLZl8EyoIux+I7XqFlYuyVNtSRbPrKfWodGR1vC7nXi0DOva97HT4aCgZmjuHyKTzZMoWOwdGKJPEBBFEXtZYbjfMGlpaeaH69royQtYgDgYZ6fpZObx9YRfoWL3WATZzaymD/DR1O3c89QP6FhwOR9qmkO5TQELMt1w1y1gucBRgM4ErLoX9CzEMyBNhB+9B9b9C675NfRoYJqQS8KjT8PADfDFs8GVhZdWwt/XQKYNWjZBJgZPPA+7DfjDlw61q5CGe34B190Cpe+HTy1kXFXuAfauha9dAqti4HADImzeAE4ffPJsSPbAps2Q6Id8Hsxe2KyBKINzyfAQJw333wK/fwiiBRBMSA3B46tB/z18YC4YMVj+COzJwO7nYPsWyMbg8fUwZIPPVsLuHdC8G+IFMAxo2wGdEoRlSOQOtdvUNHJ5HUlRsY26fqaZZyjdTfwwOklBClDp8aGO8va1bA7NFLDZ1QPxYrKRp7mni9RAA0v9NrL5HDlRJaxCdLCXFd1pGkvttA/F2R7NENUNhGQKM59FBAI4SY5IlBLxKLevWMO9/eawQwBsTUOJ18U5FeOPufCUns7np/Zx/brb+H68lY8t/gDzvC6kccdrWeTybdz/4o3c1dNHzjIx0NnY0cwuTeVby86hQoREfCu3r/g29/Zro+wVKfGWc06pk1ymi+b+FjLZIRIF2DuwnT5BRBRl7GUJLOvIOy6ykaa5ZxWpgXNY6veTzQ+RE90j/buOFd0dTJsuH9neMe3mU7t5bOON3Nye5wOLptPosCNZOm3tD/Gz539Pc9pEtywwN7OuvwXt9C/xjtLIkTOlGBm6Y620RNtIFnQyWjc7+5PIgMOts7gwXKpUK/Tw4PPf4zd7B7AssASBlngG01HDlydPPKTJ//T4nTZdJJdPcP+Lm7mrJ0vOAgOTjR2D7NIkvrWsgYpj9ri3SEb38YunNvLkQA5NEpER6EppVFf6OTtiG1f671S8l1ueXsvfunIIsgiCycaOAdYlC3zrhKlMcYgYhTRPbljPtet7GJJERGD7QBJ7wEOZp5LQoWYRi/Zy99pN3JcJ8L9T/VSq4gHHR08N0XHnLnZk/ASOCxOIeN8GcUtFihR5uyAXMmkKporPpSKJgGmQGUyR0RSC5U5U6TB1uBWVQIUPY2+Uoc4BhjoFkGSCVSF87lGvU9Mk3TNAuhcEWcTudeEv8eB2j67cLaI47LhDBqLPhiId3aqQKEmoQoGOvT04vHX4ZRtGch+d7XbckyIvyxDzeiEgEAm4kYw+OhMG6UQr33q2nWVLl/Ixb4GugkF5dYDZ0+t5cJpJ86Y1XLlR4/ILFrLMpSICoijjVgQgzbauIQaVCFe+Yw4LfXYS8UE2pERco84nk9jGumgfBXO/4EOkLDSHKV4vogCCIOEKzOd9S8sJ2v7AHWuvYyj3fi6dejoTHcOvMsOCqkXw9VPhyh9CoRZ+/GG47SrY2ga6CeEp8MXrYcFMcAFP3gpf+SH8ayV8+hQO1PbIxGB3Gn7yZ5jSDhd8FjY9ANsvg7KRz2hZePoPcMOfIXgc/Pg7sLSM8dX/yEPvJnh4N9SfD9d8B6aXwsZnQasAxQmnXgarPgZP/hK+8DuovBTu/wqoMogqeBxABuqXwY8vhNkNoOThlq/Dz+6Hh1+Ei2aPHM+CwT7IlsLtPwHrKTjnq7DuadCuhzvuhX2b4FsfhX+Vwy2/gvm1gAB2J2T2XxbTYHB3G9t3D+Iqq2HKrHLsI055Kt7MjY9dyh+7x2jtBYlQ2ce57dxLmeJwIABGNkXr2u10pSQaZk6kssKNKIDHaSfisNg7lKeQTnLfmhdY6WjgB3MrSSczFBwOKqobubapnsFoHzc8tgZp2gI+N70UDyAIAjZZBgximUHW9QmcsXgBn24qRdULbOqNUuo4eIX0wiDb+1voyRcO/MzhnMDsSA3OkUxGsi3CzCmf4NvOCfz2ubu47tkoH553CaeWlqKOdwtVdDGh9v38dNF8mnweCvlWHlr5JW7ve5HO1DlUeAvEMttZ16dyxuJv8emmOah6gk29uyh1yCC5mT7tizzYdDnNm37AlRsLXH7B11nmco/cbw7c48iS4HGGiTjy7B0aopDu4L41P2el4138YO4y0sl+Co4wYacbxNSr2zsqn0A+3co/t93IXV0yVyz6Mu+qb8QuiejpVh5rvo9trvP4wZnvY65bJtb3LNc881v+sauF44Mh/MoR7hb3dL5w+o1cmunhL09exvPOi/neyeccuAcV2Q2Y5LSdvNgRZ2LTZ/jevDMIiBp7ereQto9ZPngTjN+wUwWxwITaRn66qIwmn41CPs5DK5/l9r5+OlMNVByrzPdmlhVbdvFkTOS8hUv5wLQIHvLs6e5Hs49vJ8eyNDY1b+PvfSKnLjmeTzWFcJpJnlq7kZ/v3sdz3dU01nvoHejm7i3dBKon88MlDTS5JWKxfvYYjmGlwSg/MBXt5o7mzTybDXLV8dNZVOYa5bwKSA4fFRfUYeY9lDY5is5KkSJF/quQh/py2CJBPB4FAQstkyUeK+AIB3HaJdAO47BgUsjoaIaA4nZgly0y8QKZoRROt4rLISIg44x4EPLDszbD0MhGk/RlTcT6IO5REyDZ5aCk/t+s9CYqBCrLCQ3upqN1EPe0MGV1QbY2d9Id8FBT6uANyQYpgM3vpc7qYSiboS09hGjkWLl3iPMnW+R1O/UBBVmWsQvgViQkQcdpU/Ha1DETdoWmiJfQzn3c82ILPbUlzKku5R0RB/tr0VmWzu5dt/CpZ+5jsDA8WVDUIBeceCfXzJnK6H0s0VHJ6Us/T8h/K1evuZqrMhrfnnfm8IqvF6YeB3NqQPVAzemwqArulEYm3Co0LYD88/DU7dCpQVcLGArs7R12aPZj88JZH4ezZoAVgc9+CYYA3/6Xrgn71sC1a6C3FG74PpxQeRS5tSUIlEN9AJqfhutdsGwWzDoeTpgBbgAb+GzgdjL8wlfB5xt2WA7ghEUnw4uPw31PQZ8BO3rBEKC1e2R3cIRwLbzvY7CwAeI6fP7LEG4ChwVuD/j9YJOGbXN5ho8Fw/OMzP75vKWj5QsUcgWkbP7QPnNUsGTSB5HLx0YZiLi8swgryoEVVMvQyGULFHISuYKBaY2co8POBIeN9myWWNZkKJGgJR6jLR2hkLfwOdyEXCJOWUS3qdgFAWQZj03l0DmegN/hZrrDZM2mHdyeTLOkvoQZNTWE1YPjKTv0Ejc8+XXu7R448LOJk77Krad9gslu26jr5WJC/bv4qjfATU//iGtWDGAs+ypnlZdy5HUEAbtSxtzqSTzZ+jQrd8fAzNGTsaFbGsPxzSJ+RyXTHRprNv2Z25NdLKmfy4yakw7aK9rx2uy4FRuSYOK0efDaPEdXINMRYILDR3t2aKR/d9ES301bevZI/9YScojYpSPZO0JuHw+uv5ateQ+Xz/8cF0yciDisZyWe62F7z258/lpe2PFXhkMjkqQtg637thCbtwC/coT9SEHEprgQ7F5cooAo2HHbvGOutYUilTLD7+XPO/7BrWaK4yfMZkbZMiodY6RIb4bx6xCwS27mVgd5snUfK3cXwDToyYjolskxjXfPplgfTVHRMJNPzqwgoAw/SOZO8Iy7CdNKs7EzTbisnstnl1EhCkCQ02ZNYnXr82wbTJKocTI42E+rrYSvzZ/EwtDwveMvraZuf0Mj+QDMxAA3r+5guxDiR8fP4Ljyl+92Sm47DV9bQMNrOvkiRYoUeXMi4/USijiQRcC0yMdTpNI6qhUjPySAaZJPGxhikl4thyvsx6MWiHbFKKgeSio9OBSLzFCCvq4Mg/1ZbNUuZEHGXeJj/6KiaejklChdgwWyOfMQh+W1ItptuFwKfdE0BSOCw25HFbIkUhpmyRu30qTYPZTbLAaycXZGBRbWhlnT180LJV7iyNQ4FMaq3Q6f+MXG9ClT+Y43wPNtXTyw7iXu2eJmfm0TV8yrJmiTEBCpnnAJ13rOOJA6WhBtVITrkMfKbiwTzUgzkOhGEx0EnaGDNQNksHuHo44kEUr8Y+xLwOP/hG/dAEPdEDdBL0BOh5Kx56/AhKqRZsvhE1cc/F3nyN+SCkIW9CTkrWEnYdwOiwx1J8OvboC/3gP3PQjL/walE+Gcj8PXL4HScaiWjF64+Qa46U+QHISkAFoOcoeRjNvtUFkKCOCbDN/67niNHYVkI9JQh62kHMnpxj1q8q/awhw/7dMsPsw4EAQV54GAdQHJ6WPivMmUayLegJsDoReynUqPjUQqw0BGQ5DDzCLNS/1pnPEMfreLwCGdbHF4JZSIz1fOJ89cyPT2bp7auYOfte2mMljBJ+ZNYVHp8KKCwz+TT510NeflDu6wuD2TqLK/vANNM08yG2WooOH2VeFTHeNwVoZtTESf4vrlt3Bv507iRhYB0I0c1dX7MynI+HwL+eSZ32Z6+xqe2nkXP2v7O5XB4/nEvItZVBoa06b5CvfbEZADVHr8JFL9DGRyCPIcZtHPS/2dOOP78LvPICBbJAaPZO8IkoCh5xHzLgSbHwNhxIEyMcw0GS3O5rb72LZ3dEdJBMvypC1rv3J3nFgj/41FwG5r4H2nfJOK9tU8s/MxfrXvfgKemVw442Oc1zDh4DHeFOPXIjHYzvXLt3JvZ4y4YY70r0519dgn0Wsjl83Tm81RWuV8+bN0vFgaSQ2UoGuUrEtAEhWcqkFU0yloJoPxBILNS8hhe5XGwJLA0gwEWUZXbUc5BooUKVLkrY8cLnUfWH0e1nMLyIqAUdAwCgzXWzHANHUKOVB1E8PS0ApgC9txOGQkAVwBB46+LLl0AR0n8pjHqSAIB16bYxUhlmmiayaCLCEftYTLIj8Uoz+qEayuwikbxAdj5JUwDRH7G1gXQ0AW3VS54cV9PayWZBbXhZgxuJOV+wTyDhtlinRgci6JIqaVpjOhYbjGZE6zDNKoNNVOYHJlNedmUqzauImbm1uY2VDGeSUSkiDiD8zgzMCMVzfLMkgnd3Hv+pu5tzPNovnf4WNNiylRLHKv/k0ABrrg/tugWR8OQn/XDNj6CPzklxA72i4SoXIBfHE2/PL78POfQPU1cFL9OCVhgKHD1NPgymVwWR8svx2+eiPc/iB88F0HHRZJBkEAIwUF49Adlj0b4IE/Q3c5XP1rWFgBj90E1/79aE9o+BiSBGQgm+cVJxKK20XI/XJvKpVo4fYVX+WvfYUxv5HwRS7iF6dfRNOIpEYQRZyhwGGSE9io8NrRO2M094n0RKo4Q+jioa4Bagsm3jInvtH2ijr7UhmSuoV3jAetmyZ2XwnvnB1hWVMju/u6ueWZLfwlGKYhVENYBtlWytya0iP2jaVH2bjzfm7a8BBG2Yf51tzzmRcYn27HMnU2b7+DRwa7OfOEq7ioqh4l18ua5hu5I37QZt3Usfvm8s7Zs1nWdAG7+57nlmdu5S/B2TSETiY8ct0lUca0uuhMZDBcnqNM7OGlwhtE79xNc59KT+RkzhCe4aGuLdQWcnjLSvCaOqvHYS8ASjlnzn8303b9kb+u+S1B5+WcEg6hCBJ2OUjIP5Hzpn6Mixun4xmVEECSg9SOjIXxIkkG8VwXgzmDirFyJjNPwd7ESdOaWNRwDl3x7dy9/Cfcvb2O6VWXMnHUHPo/PX69psXq7dt5ZDDDmScs5aIqP0ouzZrmjdwRP4oOGQeqquBTFbZEo/Tk/DjdKhIWuXweQ7YdIst9ZSQcokmst59N+SrmOWREDIaScTqzNmpdNhyKgNthJ5fN0BpPMtvrxi4MO2FZU8SlSAeei5IzyPtn1/DQuh38YU0z3hOmMscjv+y5qQ2myabBXmJHtRdFYUWKFPnvQS6kshQARAm7S8VVHqGu7OAHzEKBaHsfGdVPWYUbVREx0xqibJFLpEkoFooIRi5LVrdQ3Mqws2LoZNIapjkcfW/kssQGCshON45Dil9ZFBJpetsTCIEA5RWOo3JaLD1PtHsQ3R1hQrkbKxOnvydDaEIDft8bm8hXliRKnBI7dnQxdWojkwMRHMFdfL9lH7ZQBTbx4Osl4nFikebB5p14syF8goDXF2JWwI6qxXl4/R46JSdTgyNpoyUJ3cwwOHZe8GpYJv0DK/m/dfewKmrjgqVf4Zyq+uGsSObY+gSv1AZoGghOKORh51a4/ynYHYex69fjQVLgtItg7ya4+l/w3evhziuhbhx124wMPPdH+FsHnLEYHCpYDvBaoLphdPbcmnpwSdDzMNw5F2oC4G+AeQ3DAfKGBbIL8lnYuAbuXQV9OQ5KMcaJyzN8LPNx+OddkFwAziBMnwG2V180He4PyYbPVU61b6z0UsLv8eGQxqOZFwi5HFiJDtZ0qcyfO4vFZprfP7eXfbrO3IaDExu7ohD2SDzQ3sY/AiKT7Ap2m4PJkQAliknHvp3cuTvPlKogfllGy1vIqkW0oFM4ity4hUwbT2+/i1s2tjBp0ge5ZNZZ1DuUg+eS7+WF3p0ktBgtfe2k8iIvtK8gmSihNjyTOoeEZeoYgKql6I+309PzPI+3b0L31g63YWbp2Hc/d+4eZEpVI37ZjpY3R+xNHWJvxFOFxRM82Pw3vNkpI/fbDGYFQuOIqREJucqxEk+xpsvF/LmfYLHZye+fe4J9eo65DQ5EOLK9o9rzuufx0SUOcg9dw++e+T22kz/N8SE/DnsJTUEff9zzFKttdpqCzpF4NCgNlb2yR3wYJFGhzFtG667l/GNbNV1eP3bZRW14JhNcKomhFfxufQtVlRMpt3kw9RSqTWUoHyVzOCXw4Y7xBo5fyzRH+lejP56kp6eTx9uj6N7928IWifgQ6wYzFIw4e/I6Q/FBntoj4nH7mB3x4BQMuoeG2BrLkc4O0FUo4Bjo48k9+YPPX6+XU8uDPLFhE1cqOf6nNoTHytPaG6Ni8kzODqmI+TQv9MZJaHla+lKk8gIvtHeRTDipDYeoc/hY2BTg7lXtXLvGzQeqPUiFJCs372SjO8R7ynx4ZYnaqkpmvbSO61atZTBZR5NdJBaPknCVcV5DOZEDXSRSEanliqVw9SPN3PCczNdOaGKK8+C9babT7P7ZctYuN5n87YXMPLv0UClskSJFiryFkTu29wIgqE4qJoXwOMes2kjisL5aGM7yJYogOuz4Ix4Ge9L0RpPDWawkCWfQg7/UhSyAlc3S1xolmzMBAVFRcAa8+Mu8ONVDX2GWaWBoBmgaJkcZyyLIOMIRJtg9uOwihiARnlCFq8Qz7vS/xwoBAY9NYHuywCyHl4hLhYgHffU+3BWNuJWDbw9/uIKza7u4vWUjl60zQRBZsuBEbju+BlWyE1Ty3LS2masTBoYl4feEOWf6FE4uG38dG0NPsnHPgzyXn8QVp7+fZZFxZBgag7cczjgPVvwGrvokuAOwdC5MLB+OT/l3EEvhk1+A9l1w391w3ZThwPXIESb4ggyRatj1Z/jTbyGdBpsbpp8Kn74U6kct+k9YDB88C373MFz2YUCEE78Of/8mlE+Dd50Km++GK56EcBWcMBlCfUd/Lu4InH0BLG+Fm34KvypA6ZLhNM8nNB35+073RC4+5VYuPvpDH9qOKpM3U6xL1HBxiZ2A5qemsI1nNCfnew6ujCs2Bwsb6nh4TQs/e6gdzYRIeR2/OPM43lEi4bTb6evdym0b0mR0AVVxM6t6Ap9pjBA8Cv8/OrCCO3ZHmTf3C1w+YzaeMdIaLbqSKx+9inXRg3EwVz7yGC7vVL5w+h/4XEOE+rqLWLr3Ru55+svcZPkoD8xhprMB/7gGjuEAACAASURBVP4nlCDhtPvo6/0tt23oIKOLqEods6rP5jONcw6x1x9ewtm1K7m95VouW6eBoLBkwW+47fjTUMUjr0Q7VSd5s5V1iXdycUmAgNZITeFWntHCnO8pAUE8sr2HIBHwzOdTJ11C52M388vVLlynXMIcRyVnzfk0A6nr+NOzn2evrmEAoqjwnpP/ylWz56CM8yaWJDtT6s5mzr7f8H9PfYHf6hzo3ysmliAqpZipG/nxYzcwlLcQhVIay0/mIwvPom48OcZ5A8evIFBf18jSvZu55+nnuMmSKQ9EmOn0ckDFqmvs3LmRDz+9F22/9q83xsXbYeKkOdx62nQmyxmeeOkFvvLSqJt93Qs88dKo56/oZNnMaXwwY/K35m1c9mIOUJlVN4kfTB+ODtSi+7jy0XWsix6spHXlIx24vEG+cPqpXDHRxawp0/ls73p+1/wSl64pIAp2GququHzpZJaVOhGAklANly5N88s1u/nFQ+1kTQi6S7jilGrsIhxaQEeipmwCVyzL8dWnd3LNSxLfWDSRBmXYKbQMEzNjkG6O0vFsjMYTSlHHSHyLFClS5K2KsKuzefjJLsk43OrLdzdMk3wmhyGq2B3ywcmyaZBPaxR0EywLQZKwOVWU/RlsdJ1MuoBhDC8JCrKEzaGiHMaLMDWdXEZDsKk4xmxja5pGNpvF6z1WKWBeRyyTeGyQ5/o1JpQGmeizoeeSbGwfQvCHmBFyc3BzySKRirF5IEm8YIEgEAqEmR9yIgmQyyVpHojRkzEBEZfDw7QyLyFlbFroVzHH0ogm2xi0yqn3uQ9xVgRLwxa9kGc2r6d6GkxSYc1W8DTAFBes3wBWJSyZBPkorF8PfSlQHTBlIvR3wpAHTpsNcg5eWg9dCZhxPNQeJjY12wurNoEZhGVzQbWgbT1sagd/FcyZA95xTMS0POzZDrv3DactllSonQJNNeAY/X0L4u2wfg8MxQABIpOGz0cSIbb3/9l77zi7qnJx/9n19DLnTO+Z9D5phCT0qqBw8YI/FQG9lmu5KqLoV65dFK+i2LtXrwVRBBUQgRACAUJCeptkZjI9087MnJnTz9n198ekFzKjAYns5/OZP5Kz99rvXnvttde73gab9kC6AIEIzKqEli4QquCi2WCNwbObIC/AkvNfWpnSk9DcDB0DYBjgisCiRQpu9/3o1qIJPq1/DCufYsNAEk30sqS2CL9doLVnmB5TZFZlBVVHyW/oefaPjNCVMjBtUN0+FpRFKHWJWJbBgfgwLYkCmikgSS7qi4uYGlInpezm8320ZyTqIqX4ThIHYOUPsGGghTHtWJOhJPuZXraMBp8L29KJjzSxa7SfLD4i/noa3Fm6cyZTS+dQpIBl5TgQ30VLIo5mikhSCfXF05gaChwnr00yvZ9dwx0ktPENgmhRI0ujpROKqRmXtx1NrGRJ7TT8dpLWnh30mBKzKldQ5RJOL69skMm0szOeZ2rZHEpdMlg5uod2sScrMLdyHjUuDwIGybE2WkZ6iJnjUdeCIFJVspx5odCk3NmO7Z/j+tfWiSeb2DXST9YQEIQw5eHpzCmJMAHj4BllIuPXtiziIyPsGs2SRSbiD9DgNujOwdTSCEXyofk3e0L7/kCYxSVB/KJJ99AwuxPHlew9bv4FSKdTtA6n6Nd0BEGmqijCvOh49q5xeccYO87sKMkK08vKaPBJYNtouTR7hhP0500EQaU8HGZOieeY/jV0jZ6RMdpSeTQb/O4A88tCFLlEsE0G4nE6NZV5JUH88njA3c7BODFbpbEqSrEoYBsmeqJA/73bePqzXZR9fAXnfXQK/gkqng4ODg6vdoTBXNeruvTzWaWwnEUI6ITVG1DEbf9sUQBIDsBQipesyF1WDwHl7Ag2tVEY0145hcXh78MwksRScfInCUsfR8LrilDs9U/aOvlycLbJ6/DKkH1hH+vubGGsR0NqKGPRZ5fQsMg7yVgtBwcHh1cvzjfN4VXBI1+Bz/0Khk7xu6zC/zwKb1/KK7776/CvikZv7BH++4GvsfGgJeNEirlowcf40iVH6pj88zjb5HV4pRBcCoEpIYouKmXaW2sJV3gcZcXBweFfCkdhcXhVMPtSeFcQ0qf4XZRhbokzYB3OJCLh4Byuanw7c09Z8d5DQ3nDSTJb/TM42+R1eKXwLJ7KqsVOBRYHB4d/XRyXsNcsFqr4IoIw6eTEDhPBFtHt5Vh26PTHOjg4ODg4ODg4nBJnw/o1i4hmnXucT7yAy11G5SRrPTj8EzBS9KRH8fuqKHrlig2dhYzXzxjKaugAgkjQ46HYdXSfWaQyOUY0czyGSpQp9bnxy5MtbmsQG8uRPlTIVXFT61MnWChzEtgmo5kcOclNuVt2XH8cHBwcHP7lkTPJAuopsncBGLkC+YKJpKq4jskSZqEXdHTNwrJtEEUUl4KqShyTFMi2MQo6WsHEskGUZFx+5cx/xM8ytGyS1mGd8soiIvLEM3+dYSmO9YmXQyxpvItfrzwPRZzsYm0C2Bajo/uImUXUlVTgPvNXeM2gD6/hjqd/w7JlP+SDDSUTfp8sM8vgcBt5Tw01wfBrYMdCY2fzTj7zVCvtAJ4gb1u1ki/MO7qKUJbVL2zka7sHGAEIV/CVS8/hhhr/JK5jk8r08fX7N/JQRsMSBEqnL+bPl06nxHWGFUotwe/XbWJbYDZfPbeGolc6f7uDg4ODg8MrjNjTMsRgb4p84cT8TFYhR7wrRk/zIIOxHMbh2mAW+XiSWHuMA80D9DQP0tMyxED3GNn8kXZsyyQ9lGCwY4gDLYP0NA/S351CO2WGm9cOvZ3N3P3UHnYWjH9ibxzxiX/noquZLYvk9FMF8/7jGPoY6178Mt/ftp74y3aV1wi2SVZLk59EMUeAXLqd+5/5Mr/vaOHE5K//ishUlpZz/eJZ3LSgkmrbImsc32kK0+tqedvimbxpWjEh3SBvTf6tVOQgF8ybzjsXN3BuyIWumS/Pu23b6IZBxrDAmUsdHBwcHF4DyJGoRHwkhepXUV3uwyXObMsgHUuSyUt4fMd+4K18gbHhFAXZTbTBiyqCWcgzEssSH/XhdbsRsMkOjTI8kEP0eymZEkIWRURZRj2+LoNtY1kgiAInKdlw1mAYOjoSLlk8rlScja6baIKIW7DImTbDOY2YaZDRdDKKgABIkozn8Fa5jWlaFEwLCxBFEZckTc4yZeXpPvAUG/SZvL6h4YTifSAT8jfytvMbMc09fKOvhY0na8e2MCwd3Ryv5C0KIorkRjnGF8XGNDUKpnFQXgWXdNAdxjbIGRq5QpLB3DBDrjwZLUOa8foSLtmNPIkHb1kGmqlh2DaCIKNKyhGLkG1RMAsgqsi2MS7PQXldLyEvgoiEhSz7UASwrQJZw0BVfEcKkFoFMqZ1jLy2baKbGrplYSOhSCqqdMRiZhg5dGRcsjI+JmwLzSxgoOCV5SOyWDqaoWMiIArjx0vCSeS1DCwbdOPY+iWnxdZJ6xqpQor+QhxLz5LWMoiMPyu3dKQg6bH9K6JILhTxlbUCmqZB3hTwqNIJZRcN06RgC/gOumyZpoluWRj2ePFWRZJQJOGgvBLV5bW8p7yGVKaboY6dJ7kPF/OnT2f+dJOuvn20Ptp7SrlsyyJvWpi2jYCAKksH3wMBtyvMG1c08kZS/CGX4kDu5G1YloVmmqeQ99CFbHTTpGCNu2rKooj7JVzUTNMgZ9pIkoz76LYsGyNvgiIhO5YYBwcHB4ezFLmoNISeHkYvmFgWiCLjBa/G0iTSFt7SIEJ69NjdWMvCsmxkvwd/yIMqC5gFyMbzmNa4cmMXciRGCojhMBWVPmRZPKUyoqezDPWmEMJFlJa6kCbjjWTb6JqOIMnIsohtGeiajaQqk2vnH8S2LLbv2MQvYwH+6/K5zDp6cWFneHzjDh4uFPOW8Ch37hwglc0wmLP5/ANP4BXGF+4L5y3li4sqCSsChXyCNXv288c9fbTpJqWREq5pXMANdcHxCsgTwDIL9A6u5Sf7HqEvezNvnbWUUkWe5MLTRst28vSe3/Hn5g3s03J41QqumP0e3rxgFWXqeJXlQr6NNXv+zB/3rKVNL1AaOYdrGt/PDXXVuDN7+d7z9/DQgQ6SqS5S4ne4uf8XKIDXP4O3r/gCb68tmdg9WWn29z7B7zb9medHY6DO59J5N3DzvEWUKwp6tpPfb/gOe70LmSOOsLZ5LW1ChHNmv4cPLVhFjSohYJHJ7ufppod4oGlcXtzF1PhUrlj8TW6sKWb0wJ/47Ja/sXTRN7ilrhgJk3jPfXxk2w6uXPypg/KaDAw/wx+3PMjjvc1kpQaWTL2Ody+5gOleL7aR5PmtX+KXo9XcuvIjLAwA2gCPbfkmv88t5s5zr2eKT8XQh9ja9jD3bnuUnVkNr285b1pyA9dPnU5QHC93XcjvZ03TQ/yxbS1tyQKWkWRIE1g+waeoDz/N7c/8hF2jgwwn+yH5aZ7b4UYCikou5vZVt3Je1Hdc//aBWsLKWe/hnfMupM7zysXKdLc18fXdWd56+WJWBdQjSotdYFdLE99vl7jt/FnMdBvsaGnm97t72ZbRQVJZWT+NG5dOY5pfOqNKlm3k2NvRyS93d7IhnsclB3nDgnm8a0Ep/gnuJJhmgZb2Nv6wpZ3nD8s7lbcsmcaMgHxQqTUZGR7k4T2t3Nc5StaUmVU5ldtWTWdm8MT31zJ1tuzezrdaE0yduYCPzi0hclD7LHTH2fG57YxOmcq5t9YRCjtKi4ODg4PD2YcsiAACwlG7z1Yhz9hwDjkcIhKWSByXa1Z0qfgCbuLxBMO2gdcvkR/NYCguwhE3ggBatoBmivgCMlouT8ECRAmXR0FRjl5xWxgFjUK6gC3nMUtUJrPMsIw8sbYDZF1R6qeEsVJxulqSBKbVUV6kvHK7wgIEZIvmkRF60jDLk2FTLEtFSYQqK8++kTiFYDl+j4eqoJ+ErTOSN4n4vRTLIqIgUu6WGe8akx27dnP3rhhBn59qr4CeT/JQ+wBXV/lwqxNbOIpKiOXz/otPW//LjzZ8g97kzfzHgouZFfBPol80Ovqf5U+tmxlzRajwQCHXy683fBMpWst/1NfjEQrs2PUT7t61jaCvnGqvhJ5v46H2TVxdVYZbVCnyllETMugrDGEIYSpD4zEsbk8JIUWZoCwWsf6n+fq6b9NqV1MZKsfU23lo0zcw5E/w4blLUG2DeGonj+59lDWuGVQHIxRr/Ty14ZvURWt5V309HjPG3zbezdf3dhAJlVPlkdBzQ+zsHWXB3HEXG12L0zXaSb1+xOXG0EZojXeyTBv3jcyPbednz36Fvyaj1IeqCNoptu77Pt+wC3xhxbWUYpHJdNOZVMgdMlLaBonMAToz9RRsG6w8+/b/ji9ufAjbXUV5yI+W38iP13WjuD/Hm6urcJkxntl2N1/Z2UEgUE5VUELXBomPTSLDm+ShLFBJXLfQsiNY7mKqQ+MxLCF/FK8kAjaj8a38dN032WRXUxmqxjZ1Xux+mqWVc6irOrayh5ZMkcqZuP1+fL4j0TCF/AB7Y3sZ1o+TQRDw+6bTWFqJ+5CFyjTJjKUo2ArhIi/SwYV/QIG+5Aj7kxYr3QWah5NIwTBTFIMDwyMMm6XIoshIcoQ/7T5AGy5KQy50PcfqXbvIB/x8YlEVkTO1aWEbNLc2ccczbYy4/FSG/Ei2wY4DXeycXsJK/wTeKNuivauVLzzdRLfkpzboxzbyrN61kxZb4msrp1LtEsgkBvn+0y/yyDCUR7xEJRgd7WHtcCV1/hCeo5q0DIOW7r18d/cA/to5vG9ahPDhudxEG0swsj7G4ICX9C3lBMNuJ6GGg4ODg8NZh5xPZNAFF5GAiiSCbRqkh1MURDclETeScJKYBkkhWBFC14YZGRwlOQCCrBCtDeP3jC989IKBpRtkYiPE0zqWCYKiEIgGiFYEcauHPpsiasBHpFpC8HmOczM6PaKkEvBL9Hb04w37KPMHUIV+ettjhBZU4FVeGTOLgEA0HMBt9nIgqZNIdvLlte2sWnURHy3WiWkClcUh5sycyq/mwO7t6/nklgK3vXEVF/vU49xesnTGs2hSmA9fspyLin1kM0ma0xaBw5Ybm+GBJ3mwu5XMweAiUXIxu+7fuLSs9LDrmOip46IlHyca/DM/fvGnfDV3gA8uvolzIhMNKJaJFK/k3RetYEZpAwFFIDX4F25/4i72jYxi1NSDPEJnfAhNmsOHL7mDi4rLyGa6aU4bBGQJ1Jm8+4K7uLkwxL1/u4k1nvfwP1f+O5WT7GNLT7K95Y/sVa7gM1d8iEvDfsx8G/c9cyf37X+Bf58ynykHjx0S5/LxZZ/klvmLUYYf4RNP3MWLfT3cVF2LEd/BmgODzF9wG59cdDnTfDLJ7ge4+amfTlgW2zZobfstTySn867LP8fNVWVIeoxnt97D/7Q+xfaZl3JF5PTt5DOdrGl+GirfyV3nXc98r0J6bCP3PHEXD7Xu4uqyYlJDG7hv3yCz5h4lb/8D3Lx64vIqkfP4/JXnkRzdxtcf+RQsuIPbF57DscnCNdJaJ22jXs5b+X4+seA8fBRoG+nA4zu2soetZeje1UrHQI7S6dOYNbeMQ7HlI4NP8bXHPsWa4/Up0c+8GZ/hN298MxWCALZNPj7M3o0tJAgwe/ksKordiAKEgn6KJZ2uMY2CK8EPn9mCPm05d83yMpY3CAR9+FQJn1zEtSvO4cNlxZS4RQrpGD944hmejadJaRA5Q5kdzMIYf97Vw2hRFZ8/v5HzKn1IZo6u4QSSOrE5S9PSrN/dTo+3mk9c3Mjryj0IWoI/P7+Zu9t62DmvivKoxK7ObtaMSbxlxRJumV9BVLIYGh1hSHZxtFeXbZk0t+/j5zu6qKqZw21L6ij1HJ1GQcI7pZI5n26krqyYaLnqKCsODg4ODmcl8uiojq+iGL9PRrBttHSGRNLCW+ZFlcHSbGwbbMvGMi1sSUTAIDOSIZO1cZcE8ak26aEsqdgYiquEUFDAMm0sy0ISA5TVupBki3wyzdhoGsXvwR1VDwshuVRC5epLiPkSiBL+inLKh/fT1xYj1FhBaU0xw7v76ekPM7Xax6Szk/49CKCEgzQIvaS1LK1jCSo9Mlu7hukLiOQNF/NCCvKEjCMelk8pZ25vG997cgOry6JcOKOOZSWhwwqdbZsMDj7DzzY9zIg2vpWtqBHe4DqPS8pKxgU6hBxg3qx/54OKyTef+zl3GyJ3rLiZxpDnJNc+HpGwO8CertV8esv3SJp50EfZndQ49/AxEZZPWcHc3gf53pOfY3VZIxfOuIRlJVNRxDPnRqSZw+wd2Es6OcIv13ZxHwAG8bF22s0SevMpag8uUGfWvJ43Tl9KVJLBXU3AHWFQy2KhEUt2EjPKefv0RUzxjbvYeBUmNU5sO0nzYBuJVJrHN36W9QKARS7fS9dYgI7kIHokeppWLNKFAdqH2xmWH+Jrj69j3NaUpyc+yIjZwoh5LnqqhxGznHccLS8vR05ymdLAfK6qLuLB7d/htp6nWTX9fFbVrKDKd9zKX5RRXQqqy0BR5GNiq4pKzufWK37C20+wsMgE/LOIHJWBTpTH21FsBVU6EsMmBHxMU2WG8zl6x5L4BIFNB+J018kk8yJVETdeRcBtyLi0FPc82Uy/boBp0D1sEAqc2Z4xk2PszNssWziHCyt8430veZhaNpF3CMBGM5PsicOS2XW8rtI7niXPHeLcKZVM27+P5qTGxX6Jrvgo7vJ63ji9nKgkABIlRaWUHNdeqr+drx1I46mey0eX1lPqPXFESCE3dbfM/sdu3sHBwcHB4Z+M7CoOEykaD7i1LZtCMks2o1HoGSLZC9hg6CaWMEZvNkOgPEpY1RiLpcBfRFmVH1UGn09hoCvJ2HAWX8CHIIDo9lBUFSLglRAEG49XQs+MoucNLI63Kvz9CKKELIlYeRMbAUmWEDEwTsgG9HIioKgByj02/alRWsYUlkwpYVP3AC/EwiRFmRq3fNwi0+LkIsrUNszks5EStnce4OH93Xyru5u68ml85oKZVHslBEFi2swP8dvqWzhU9FoQJPy+mhMD2G2DZKaTDW3PMSDXcln9+UzzuSZ0V5YWY+2Oe/jq1vWkJBlZsBHMPAnt6KBvN7UNb+GzkQVs71zHw/sf5VvdD1NX/lY+c8ENVHuPvpaNZY8Hjk9uu9fGtk0MyyZbiNExnDpq/EiUBULH1KMocvtRpZMt6Qsk83GSBQlJOBJIXjByWPZLj5e8rmMfzspkYlg6hjVG93AL8tHXDjbglQRO1ppl2eiH0+3Z2LaBYRskM7206bEjXSIFqPJ6sQWDrJ4ma0xe3lNjYVrWSfJLiXj8C3jr5XeyuH8Lf2v6K3/aupmHdj7Ke1feypW11Yf7XJBdVM6bQXSmieJyH6PsKUqI6sgMouYJF8ClBjmswgoCajjCrJULMJFxe464cAqyj5qAxO50gm7BoLqiglRsiI1DAQY1k3K/G49tsLdtD59d10G3LaCKIFgWybzBmS7Xmc7mSJkWEfffb6WwbZOcAYp87DwgiSKiaGNY49m/RjI5XKqCeprU4lIgwJRMhuZEmpYclHg5Y3Oqg4ODg4PDqwk5GvUeE5wuuVS8waP+w7KwTQNbkFBUGUkCyzAxDQHZoyDLIqIILt/4DmmhYGAioLhkBCtHIW/i945Hpdi6xXjJlmM/+ZZhUsjqCC4Vl3rq4PyTYlvkhoYYGLMom1GCRzSI9cfRvWVMLfO8MtaVg8iilxo/PN3Vx4s+D68rr6AQ283zPZB1uyhR5MOLNVWWsOw0rfE8F/hVPEffs6UzmC4g+yJcuaiUSxYU2LhlM3fuauOp0QZu9EhIwniRx+nuspcWytYYHnqRn73wY7YYDbzl/LdzXfXUgzELpyed6eOFtoexK9/CNy54L/PcCqN9f+MLz/3gKHkzDKYTyL45XLloEZcseAcbt3yNO3f9iadGr+JGj+vgDryAqtgMZzvozeSp9LsnscASkMQiKiLVLI5czSeXXcMUv/uIkiJIeGQ3VnbkNO24CLqLCFjPsmdshMuiRdiZLh5vfZKh3BEfJlVyIQgCQ/lhChRhJtv5a1sTWV0/KE2IqqIq6qtW8fFVt9AYDh011gRU2YNipXDJbrJ6hlE9jWlLtPXv5Lm+AxAFkPAoxZQWTefKinfzwbmrKHHLR8a/oOBXJdomIO9EEQUJVc7SnOhhRFtKUD06iNsml48xpIeYPeXfmFd3FX1Dz3PP41/hT927WVxRTdlR4Uay24V8Eperof6/8ek1X+LZxPEX9zN3+if48ZX/RtnBxbggCLiOczcDEPFQG1JI9Qzxoi1QUjWFi8wm/tozgluQmOZSEXSdbfvb6fWGuP2Sc7g86iU70s/P129m56R75qXxB3yUSCL7+vporaplmt+FZBvEMzkEt5+IfPpJS8BFEI3tvQPsnBOl0SNj6VlaBuP0WQHeFFDwuqA04Gesd4jNIxVEKoMERJtMNsOY6KHcdWgOEfAFi3nnsgi/eLaZX25S8K6cRWPg2BpXdkEn1TxMKqcQWVCE23NmExE4ODg4ODi8Esij/QcXPZJCsNiDtzSKt/TIAZamEe8cJK0GKa8OoMpgZnRkxSY7kmDYKCALYGoFcrqFO+xGQUAMenAPZUn0xbHzbkQsCoksOVGhJOQ6aqFqoyXTDHYksIuKqKrzo04id69taIwOp1CiZZQVezCzIyTGdMqnT8Hve2XL4kmiSMQtsnP/IMsb5zIjXIQnIvHjrT2EK6Ycs2NaFvQBOe7ftI2x3jB+QaCyoo431ATx6kke29rElrxEfdiLiEAqniWHhD2J1M+2pbG/836+u/1JEvJC3n/BLVxQXHLEGmDr9PY/w4Pd+9CMQTamhui0HuE7G3YTja7k2oZFqKKKIrnJJJp5ctfveBGNtt61bIvHuOjQhbQDPLb1/9iSF6kPlx6UN0YOF7Z4RAGVRYWqcA2dOx/nh+tN1vmDeN2lnDPlapYVnT6mRpZ9zKtezL3r7+Xb2gBzo8HDSkJNxSVcWTOX0zsWKpRHZjItNMYjm36AMFBLaugFXhjuRzddhxXKYHQadaLAkzvvIZiaQWZgEw/3d5KTDjrmCBJTai4ivO+HfPfZPMvLS3EdHG6R8Dwum3oxVYpKVcls7B2P8L8vfo3tftjb9gxPJNNMPegt5vFWsrisnHv2/JzvJPZSfzAoWhBEZtXfwEVlpROSd6J4VD+lwTD3tt3Lt+xO6l1ufIEZXN5wMQ0ek76+v3D3tn2Ul1YTlF2YWpx+S6FItCdc8cMfnMPr572DGfnjfhBcFEen45vIABYEwh6VgaEY+4PlXFhcTIXu467nOvB4g1yiSIgIuCSRfC7Li/va6VWhP9bPMweS1BwysRgFdnb3sGYgQ74wRlMmg9zeyrdy/UfeNyPD6rYedo/lSaaH6cmmWL1nL/EBL7PrGri0zItcVMZbawPctnsLn8wMsSLiQzLzjOXhinOXcWFAIB/v4zdtI6T0PLtjaUb1Xn72ok40XMTlDdXUqkVcNj/MEy/u5661Bc4Jq5j5FM+1DeKbPofGoBtZFTh3SjX3N2/nrmdybKsrJSpaDI+lqJ/TyI21IY6odzLVJVXctsrmziea+OZzMp+/dAbTXIeUEptC3wg7PrmW1m4vjd+5mAUXhpD/9auFOjg4ODj8iyGP9I9vgwqqB1fQhXJc1XWB8fooRxtFJI+baFUR9KdJDiSwAUmW8ZcWES5xj+/wqS4iVSGEviRj/QlsRBSfl2ilH7/32H11QRQRZRFBgUnG3IOkUFRbQ0Rx41YEbMFP9dypuIKeSS/m/lFEQSTic5O08oR8QYq8CpRHqTYHcPv9BJQjKwV/SS3vWTDKT3Yf4Jc9PSCILFsc4vKqAF41wILKAKs3N/NEq45hyZSEK7hxxQxeXzZxVzrLytOf7MaMvJFPqV0rSgAAIABJREFULL2C2X7/seeaBYYGn+L7Gx9Gtw7672Qe4wcxmDJN5dyq+czw1XPNwlvp3fBLHtjyv9jqbM6vOZ+Lyr2EDjWmVrKgsorVm3/NE61JDCtASfh8blzxZl5fFjx8TVH2Mm/623nL2Hd4qPW3PKuBNzALIXzRhBQWUfIyZ+Z/cHvB5tdbH+aX7UkOrYmXLyhlWcVcyhFxyV7cR8fOCDIexYf7UAaqoqW8e/GNxJ77Nb/Y8jyR4pXcsmA5jzevPezGJQcW8p9L30By0+/41cYdTCk/j3esWkXzni2oooAgSJRXXsUnViT41ab7+f2WQZIHz22ovZ7ZVRdT5XJTV/sGbp3VxA+aH+D/rFoumHU1H5oywL7U+FiQ1GIuavwQBfOn3Lvndzyu5TEAUVS51rWSVSWl4/IueT+xzT/lFzufJ1K6kncsfz0t+9bgmuT7IrkruXjuTezM/Zg1u35B3oRo2euYUraKBq+baGQhdZ7H+f2uJ0hqEi51NufP+E/eN28FxRNM5hYIz+eGZfMnJ9hxCECRz4MgWRSkIqqDMkGrmDl00+PyUu51Iys2q+Yt4rrkHh7a0URG9LGwspzLayXihyYSQ2NvVxvf2z50pPGudr7XfdT7Vsiwbl8L93alDh/yfHMLL6ou3uAq55IyL5LoZdWiRj5o7eUvLb38tLWAIvu5av5CZrvHEwikRgf5+eZ9xPKHfOGy/HxzjGhZLVPKKmjwqZw7fzF35Hfzw+Z2ftRs4lJDnD97Hu87p566gzEo1ZUNfPg8i99s6+DBLXsoWBLTyxu4yucaT2kuiLiUQzWbJKorp/DRFTk++WIHP9ilctviBmoO3r/ilfGWeNCeSzLSrmGdx8sR/OTg4ODg4PCyInTH949vnAoCiiqd4K6FbWPqBpYgHVtLxbYxdBPTPHS6gKRIh9OSHn3uIZd9UZKQ1RML0NmWhaGZIEsox/lw6bpOLpcjGAzyqse20QpZOtMmRX4vUbeMZRboH80heLyUedVjsvxoWo6BbIG8AQjgcfuo9o378RuGxlA2R0q3wRZQFRelfhfeyVSOtC1yWpyMHSDidp2o6NgWWiFGZzp1wqmqK0qlrwhVFLCMPPH0IGOGji16KXIHwEhgqcWUuN0H5U0ylB0mpZtgS6hKEaX+0AmuZ7Ztksz1M5zPYVogiApRfw2RCaZqBhtDTzGSHiZlmocVDK+njDJvEBmD0fQBsmKEMm9wvL+tPIPpGJoUpdrnG3dPNJIMpoZJmhaqGiaSWss71/yc5St+zcemlSAJYBkJBtNDpAwRjytMxKOQSsVRfdWH5bWsHGOpQUZ1nUPLVFUNUuYvw3MwRXUuP8RgNoVuuwn7IniELElNovhg/47XWYkznE2QOVjHCEEg6Kum7GD/2kaWwewgSd1EdYUpdblJZUeRPNUUTzBL1SEsK088O8hYQcOyQZL9lPnL8Mvicc9HQBC9FHmjJx8/LzOmlqM9peFxeSj3q4iWzuBohoKiUub34hHBti2S6SzDhfE5yudy4RN0sigUe1UULBLZLIO547IdHv2+WQaD6SwJ7diYIEEQ8Pv8VLgPjk3bJl8oMJTTyJkWgiBR5PNRfLAw0ri8hcMxZYeQZIUyvxe/LAA2WqEw/t6bNoIoU+T1EHEfWyDTMHRGswVGdQNsAa/LTZlPHU+6YZvE0zlyoovKg/OFbWj0pPMYokJV0IMLsJJZEu0p9n9/G7sfzTHvJxex6HVFE0z84eDg4ODg8OpBGMx1TdTT45/CWaWwOPydFBgY3kdzYoTjE0sdIcys6jlUuiYT9zJx9P4HeMvqnx6jsJwdGCRSnTTFusmc8hgvNSWzmBoMO5vrrxVMi6F7n2f1l3vB66b0hrksffcUwiXOCHBwcHBwOPtwvl4OrwJGWLf5m3xhx9MMn+IIWVrBl9/2Nd5WWTuBOJXXEln2tv+W2x/7X1pPecw03vu6u05Sd8XhXxZBwDOnhtnvDhFaVEbVecW4XI5pxcHBwcHh7MSxsDi8CshzYHA3zYkRCqc4QhSjzKmeS43b87JkObLyvWwa6iYSOYfpvrNpYWcQT7Sya/ClLCw+GsrnMc2xsDg4ODg4ODichTgKi4ODg4ODg4ODg4PDqxanzpiDg8MrgEm6I0E6/UoWc3VweI1hmeR6U6QGtQmnIXdwcHA4G3AUFgcHh5edzI4utty5mb0vZrAcncXB4WXBGEnR8u0NPPeDLjJJ8/QnODg4OJwlOArLWYJp5khrGXLma3u1pxtZ0noe4/jcsQ6nx9bJahnSh/8KvOyjybbR2gfZfc8uerM+yioURGfWmRSWZZDXs4efW87QT/LcbLThGK33dZHUz/y7YRsp2n/VyuBA4SzYubfRdIO0po//6SbmCULbFA79rumkjb/vTbAsk+xR7eROvNCZwbbIaToF66XbF/1eonOD5J7axabf9JPLvvqfloODg8NEkLWCgSxLiKfI42rpBoZpI0gSsnJUDRXbxjRMLPNgBWxBQJKP1GGxDBPjpB8BAVEWkWVn1TIZOlp/xOe3rSM49ZN8e+k5KBNc9dm2STY/xoghUeELjddxeJnQ9RSj+TyiGqLYdeZzeZl6kvVbv8gX9hu8Y+VHeMuUKU7GsAljkRxZzWee+DHbchlsRAKeS/nMtR9kuc//su1cWJkMPX/YS/sGN7O/P5OqWe6X6Ur/mlhWmv29T3Dvpj+xfrSfHFBXdTW3r/ooCwNHjjPiYzTftYsDg6VELgeiZ1YOO6GTerKLvU9mWPKteZRHXs3pG7I8tXE7P2iOMQoQKOX28xq5ptJ3+AjTGuM3j23m90NpcoBSOoXvXjiHucHJzCgm/UMdfO3R3Wy1bJAU5s9ZzLeXVpzxedbIDvLdtfsQGxZy6+wI8imaFz0qlW+exeydCbb/tIm2xjCzV/jPojTtDg4ODidH7N47xHAsh36SXTlb1xjtjtG5p4/+/izG4dprNnoqw0hHjJ49fXTs7qNzb4zB3iR5zQYssoNxDjSN/3bMX9MAQ7E8jrF6cuTzMTpH2+jMZCd1XjbTwQPrPs8tq++lKZl+maQD286zs+kXfOyRL/K91o6X6SoWmWwPLfEe4prjoz1ZbMFLsb+SKo+XZLqLtvgg2ZezF22L9I4e9vxhgPCN05m6LOwsnCaFzcjQC3zvqc/xu4FOZH8FNaEaKn1R3EdrmPkCPf+3k/3tKtNun0ZR0ZnvZLEozPSPTUUZ6qXp3l7yuTN+iTOIiNfjpjrkp9QNw2NpEvpxm2e2SCjgoyrkIyQa9I3lyP8d1hFFVigJ+akNuTDSGXoyp64k9Q9hGgwmUvTnT28JEj0hpr93OpGiFPt+2sro2GvbKu/g4PCvgex2m8T7xhBdEtGI6ygLikV2OEEyYSFJYFn24aWNrRUYHRgjqcv4SgIERAFLK5AcSWKrbirLVNSAlzDyMaZ4O5djLG0hSKLji/aKYJLJtbG+42+0+opfVjcq2x5jb+ffWD9SoMwwTn+CwyuMSCh6EZ+55iJSg6v5+ON38HTy5b2indcZebKduLuEc19Xjj/oaCuTwsrSH3uep2I2cxrfwZ3n3cgcj/u4tN4W2d09ND+VpeyWJUyZ6355XO5EEc/sKua/9QDP/WQ/XStKmb7E8yqdxz1csGQJFywx6erbx0cf7T3hCEkKcf3FK7meAht2bOWOnX/PdSRKo3V8+k11mOYQ3/jDBjb+w7KfGaSplcy/poM1v+qhc8sMii/znf4kBwcHh1cxcmlVGLs9TiFvYlpwyFNLT2cYG9VQI0HkQoKjN9Qs3UTXLdRQgOIKL4okYBYymPkxDM0AXKhBH5HgUZOkZZDsKSC7VPxF6jEfXSObZzSWQQgGiRQpTM6abmOZNoIoIghg2xa2LSCIwstSr+OlMPQU67bdyb1DRVzTeBOvr6pCT7fxly3f4En7Au5Yeg0V9POXLd9gq3wxV5dYPN/6HPsLClPLX8fNCy6i1q8CFgUtxp59f+GvnTtoNwwSid30aRwp/GfrdPWu56/Nz7E52Y0N1AQXc+HCN3NBtIjM4GN8c/sj7B87QFNGx9Se4ktPdBJWFIJFS7ll0U0sCXuw7RwD8R08tvNRNo4OYKsRljW8mTdOa6RMPf1yRM/18vjOH3P/gQ56BnrI5k2e2X4n72gPIMk+Vsz9CO9oqEPGeEl5FQFAJz66i3U7HuSpeIykoFBeej7vWngF0/yREy9u52jv/is/2b6WpG8Z71l2HQtCISZURcXSGI7v4YFdj7FxrBObKFPKL+emRedR71Y40PkbfrxvM6VVb2KGvpFHO1vJyfVcOuvNXDd1KqposXvP1/lJV4LZDW/nnbPnohx6/mOV3Nh4ExeXnkTmk2EbZNKdPLrrMZ6MNVGw3JSEz+dtS69kjjrGmp0/4Y99OlcseT//VlWNWwTbirN20/d5MG5xzuz/4Ob6GjAzdPZv5ne7V9OcjSFJtTTWX83b5jUSnaBp4/TjwcYwE3R0ruav+9axu1DAUEq4YMY13DBtMQFJOdyWkY7T81iWonl1lM33nrC4NXSNdds28VDaz+W1QTo7DrAtZRINlfG2xqksjJ5hh7+X6J/Iwef5q74CC+suQR5azdOxGIpnAf82/3ourirFMk7/fk/1e08vh22SS3fwwv7HWNfTRJdhUOxp4Mp5N7KysgavaFIwCuh6imR2lDHcRFzFeGyDjJZFkd24Dmkl6Rx9q7tI+ItpXB5GPsZXyCI2coAHdydZMLuGzEAnf+qMI6k+rl44k0srQiiAaRbo6O/jkd0H2J3VMBSFYo/AgqkL+PfaEIfKEgmqQuTCqVQ8sJH2x/qpntWA7wytg23bpqlpOw+N+nnrimnUHz1e7RzP7WjmCS3KrY2VhOw8Ozs6Wd02REvBxKN4uHDGdK6cVkLgDJdQMvU8Hb0H+F1zH20Zg4AnwpsWzOCiKu+Evy+mWaCjs5NH9vWz+yh5L59aQuiQZ51tkYgP8VhLF08MpLFwsXTKNN4+t5SQcuKVLFNny54d3DtoMW/GLN5WF8Rz1O+CpBK5qobQD3cx/EyM3GVTjvkdwMppdP1sDz3JIHPe20BxibOh4ODg8OpFlmQZSQL7KNcQWyuQiGWw/UGKoyrp4zaoJJeCx6swFk8Slyz8AZncaAYdmUDYhXCSec/M5EikTNzREF7l6KWLhZ7NkRpKgy4TCAZxncpB9yRYeoHBzgF0d4Sqaj9mOk5vR5bAlGqiAfEVVVosK0933xr+1l3LvGnXYQGGnqSp+wkep4wPLDQoYfzf9w1v4El3EJdgY5gZNhx4gXbtM3xl5RUUCwd46Pm7+eGu9cRlD15FRcsnKFhHvsZGZge/3fRz1gz3kcMEK8fGzs1sGB1Cvfx2Zmmj9Ix20JYYImUJWPoovWPtxESRiFhNxrAAk77+J7n7qbtZl9BxKSqmkWVDZyvd2u3ctmA54dNoj7alM5LqpDXeRbKQA1tgLN1Fi+5CUYqYktcnJO/5IZVM8nnufvRrPDYyjOzyIYsCTcND2ET52KrLj3PLNxgYepIfrf0eD2UD3HDBW6jy+yemrGAQ73uET677KS8Mx/G6PKiixIF0GzWVC7i5NkpibA9Ptz5E//5tlCgiomCSzqxn60graemL3DKlnNjQBp7YP4QWfj0GIB16/rG5XDjzhomOGnKjm/jGs/dwX1cnLtWDR5JoH91HqGQm06aXIhqjbG17nERwFZeWleNWZXJjW/nLvifZZC/lDcujYOfY3/y/fHTDA7RlNPwuF4rQzpAWZ3rlPF5XopxelImMByHJtn0/58tr76ND8OJRRBD20zFUoKiolqtLK8bjimwbs3eU4ZxK0TnFhE4SumJZJt19PTzYbrCm2Y1fFDFtnVRXH01Zna9ePIc5fnlS77Cey6NbAi63ejieDjht/1wRhdjQBh7evZtHWtcSlgUEwWAs/Tw7Er2YF9/OBWH9tO/36bHRsvv41XNf5xctTeDyIIoWO3Kbebavg7ed/1neV6dx//P38Kv23STyMXQryzM77qKp5TvIcgWXLriV2xcvxQcUhjMMbhglvLKBQPHxz9gmV0ixuaWDTT39DOXTDFkmhj7IpiQUX7mQJUGR5rYW7nyumXZNRJDAtkwShQJ60Syuqzm6PQFXWZiKFSG61sdIDVfj801eqbRNk0JewxYV3G754PfCxi6kWNuVYsWCqdR7dbrTOuGAl6CeZWt3L22BMIJg09Xbw882NbM3D3lsbGOITX1p8v6V3FDlxzVpiU6BpbGrdQ9feq6DbltAFgUEUpguN3Uls2iYwK3blk7T/n3c9WwL7cZ4/2IM82JvnP3WCj40M4pPtEnFD/D1NdtZM6JhyQISAgMZnbqqMFeVHHtHlqHT0t7EPTv7kGvmcHmp98R7FgSkaBHFNQYD3QkySfAcU8rMxkiPcuC3+2nNhomcX0JRSXCC86eDg4PDK49cyGbQLJWQX0USAcskG0+TNRQilV5U6STRJrJKuDKE0R1ntHeEMQSQZCLVUUL+kwRjWgapeBZDdFMUdR1nQRFRPG78URMx7EKZpJO7KEmogkZP1yCeoIew6sJMH6C3241/VgnuV6nTvGZBdf07+dTSKwmPPsxnn/o265v+xo5F5zJ1eA1/2Pc4I4E38rGL38e1FRXs2/k5bn3xycPnC5KXxTNv4nXnT2daIIqR3c7dj9zBA7H1bBwc4rxp1/P9f7+KvtgavvLwJ3jCdw3fvPIDNIYDIIi4ZC+GNsjzu/+PR+Myb172Kf5z7iJyg0/zldV38uudj3FV3WyWF4VecsGo+uq58aIfcu2qfu5/7AN8tdfgDSv+hy/OmwWAKPuQBQHzNPKeH6wgE9vBY8N92EVv5LYLP8BlJS66h1vozgRPqNCeHNvML3b9lkcTKtecexsfmL2CEmmC6orWwf3b7+OF/hEaG2/lM0uvpsqVIhbfSVzxHbEE2BaWUsxlyz7Fu6eVsvPFO7h9x07W7H+BK+qum/CzfiksY4RnW+7n4da9VM14F59fcSPzgzbJxFZ6zCgutZilteezYO9TbOl6gbalF1CsKuxqe4wtyVHqZ1/GkpCHXPp5fr7lQfZlFK4797P81+ylBMVBDozsR1Am2i9Dpx8PngTN/VvZnBNZ3vj/+OKyFRTLCTa1dlCqHuUiZNtoXUnSQGmR+pKuQ6Zl44vW8P9WzGaBFOf7T77AfS1drG+sZ5oviGuCr7CZS9OxaR99GZmGBdOorvQfnmty6S2n6Z/xec5GQPTN5ZaVH+H1xXkeXnsbX21fz9N9zTSGGiYmyEthZ2nqeJQHWp7HCL+Db175Hhr9Oda/+C3u2PE0D+15nKurLiXgLaM2nCSWyNGd1fC6iqkJlaIqUUo8h/rZQk+lSKa8lM0P4XafvKNGE0kGVB/vP28Fr6/2s29PE1/YOExTVmOObPLs/m66vTV86vK5XFCioo8M8Jm1mzlpQiq3i6IFxfgej5FM6ZTy0s/2xPu3SPf307SzGytQzryldQQ8EgICJWE/khmjN2WSSbXz38/2cP6KlbwrpNGrmVSEfSiigOIN8YZly/lUdZSQAiN9rXzu6V1sHshxbZkf1xnKB5BJD/PAtg4SoSq+fP48lkZVtFyC5oSBOsExmU2N8sjOdrr9tXxq1VwuKJFJDPfy3XU7+cvubm6oD9Hg0li3u5WnkhLXLV/J2+YUE6BA28AQhls6Zv61DJ3mtibu3trN1Pq5fHBJHeWek9+wqHoJzRDoPJAhF7cgePSTEpA8ISqvr8cqBCmf6XGUFQcHh1c18lgsj6skQsCvIGCjZ3MkxjQ8xRG8bgn0k4XHW2hZA90QUAIe3JJNNqGRHU3j8av4PUdPjDZGJkc6aeAuP966clAIn4fShuMN1hNEVCiqriA60kZPxwj+ucWU10fY09RLfyRAbZlnXBF7lSH7FnHz0ss5p6Qc2buchSV17OrdR8foCHK8la60TePCN3Ft9XRCsoBPcR0TsCx5ZrO8PsDW/Rv4Y3qAUStJr14gYyoMZBMIYjVe1U/Q5Rv/uAoKXtVPwHUotZBNxuhiR3crplzGcGoXf9jdgqnFybgktLEeerQsSxh3G3nJe5F9BEU/HlECDCTJe9R1JiYvVKIEGpjmNnl2eDW/3iTQWVHBnMoLWDV1NhE4kqjB6Gf19h8xnBtj5vRP8t6FF1IxiYc8NtTEC7E9GMErecfia5gV8iMQIlhZfeyBoofaiit5Z+Mi6gXwT7+Q0qZdDKXbGTlDQce5zCBbutfRp87lA43Xsay4BFWAYOnrOCRNcfE8FhVPY1PnCzwbG2WpkmF9XztJewbvmbuCqCTQ2fMsLySHKSu5mZvmX0itWwKChL3TJyiJTWEi4yHgpyJQSbG4nq2tv+BH7GVutIbFtZfQGAwfUSxtyMfzCLKAO3yarWg1wLULp3BZTRCfJrKiNsKfB0doH9XRK8E1oZWUjW0a5PM6Wt6ioJlYNocVlv7T9I9lHRxdUoRzpr+B62fMoNjMcOH0lfyw/UF6EgNk9TOgsOgJ2oebadeCvH7uZSwqKSEgCVy68ArmdGygKf48+/I3ce25/821Root2z/HtWufZeW8j/DFcy6n9Ji1qY2Zy5NPy7hDyikTGtjuEDcsX8j1s6K4gQUzp/I+OUy9TyGTT9EybHL1kilcVuPHB+BXCLkETj7EJZSQCyVTIJ81J5+ywbYxdB2tYGAqGtqhl1oAd1GQenuA0VyWjswYklng+e5RrptloxluphYpyKJETTRKKjvAw7tbyFk25FMMmSLBMxmiZ9vkR4fYqnm46pz5XFHpH/9/Vynl4Yk2YjGWS7B3VOH6C6ZxZY0fN1BUXc//N62PXdtj7M6bTDHTbBvJUDl1Ae+ZX0GRIgAqi+sDxzVn0tPTxhfzcSpr5vKhJXWUnkJZARAkEXepB71FR88YcFxORcnvZurHlzF1orfj4ODg8E9EJhQkWuIZj12xbAqJNOmMgWqPUYiDbdloWRNTTDKg5/EVhwmqGvG+MTQ1QGlVAI9ikx1NEevLEB/K4a7xHUm7aJpkx7LkBJUK/2TjUyaG6HLh8ynE4hk0qwSP240q5EmmdazSf+7OkWWPL5yON1MI+PChIAC2qOCXVGR7mFROI69lyQNB1ce4U5uNfVzAfH7kOb66/mes7WgiY2bJY6HrWXS3f4KS2Vh2jlTBJpdt57E9v+CJo4T0SyZ5Uz9DOaTs08sriASi5/G5Sz/OI81reLjzfn7abePzrea8Ge/kw+e8gemHvrcCSKKKZIlougiSyWRKCulGDs3II7tLKXvJ1bCITBAvAgggKB4imIyaSfIn9f45Wb2Hl8a0DHJaEkGJUuz2nnzR6a7niinL+UvvAzzfvp03qjo7R9qoaPgEF0THLUJ5PY1hW6juSqIn8Xk/PRMcD3IZ58x5J/+jlPLnpodZs+fHPIqXmuhzXHfOx3j3/9/encfHcZYJHv/V2V3d1ZdaLbVOW5YtWfIdO7aTkDgHISQMwxACJAx8YGAIAQLDfj7ALhOYgYUd2A0Dw7LAcGTzSQhhOIdAOBJC7tjxhR3HtnzJh2xLasnd6vusY/+QL8VSLMUOcbLv9y/Zqu5+u7qqVU+9z/M+c9vHax4kMKIGrpWhPFY9y2srGCjjwY4kYWgqBhbFmsP014mQUHxB5i6fT5MlEwybnL5y+vT3j4oH/3iKjSSjaH6ClCjVipPeu5nq/J6SY1OqFSgRIG5GUI7nz7qql5As41pjFGey0NTx133R3eTViRo6J7LyAuEoNy6PAg5HhnMMFWVaVeVksOm47oQU4RdyXeCl1gjKCsHmZhb6griaj4j/1PmnegI0eVxGSxn2JWVWzoqyYWSIDbEgGVTaDA3FLrNp106+su4A24tlao4LrkPF4TxfeLuMZXPkZIkW8yXeTMPFcqrkJZ2w99T+BwVDU5Ali3zFpWxXSJTLNJo+1MnyqU97Pll2qBUtqpKGJb/4VJLrQCVVRvOF0fwX8jLUgiAIZ6fWN5jox7/Lxi+KZVRNwq7Wxu9ouy62M/6HuVauYVkOtlujVgVPvRfDUFEk8Ee8GCNFyoUqFj7U4xfatVKZbLqKEYng0Se/OHQdB6vmIKkK6oxTuFwqY2lGUzXq2lvxqTaZZJqKFmVug5dpZsOcN4qigetg2w6uneVoajM7U86UfRFc12Yk1c/OzFGq6jxaAl70jIYqQb6co4ZDtZpgf3qUonWi6L7Ic/2/4fH9m5GbP8i/rn4DzfIhfvLkV7g/OfH5JZTxGSa7Qtl2OHVtJaHIMVpCBkG9l79f/XFuaIqdvICSMGgINcygz4mCpkhIroNVq2K5nNYrYHrjdW2Xhqa/4bb4dbxz9RF27/kVn372F/ym/7esmbuKefHjo1EaufqiG1H7/4O7D97HNza38LkVa2hQp/dH2TTqiRhRatnn2DQ6QlfbLAzZplbLUHQChDxnzilZtQK7Dm/hoK3SbrQT9kBV8TC+6IONY1dIpp9lS6KMM4ND2KP5iQXakBK72Th8gMsiUeo0sK0cGctL2ONBlrx0tl/CMv/vWXv0N/xUC9GfjXH9JcuIq+NjjQTaCSgaifQWnht7Ew3RMKpkUa7msaQA5llPhOkdD5rjUFbirJz/QS7qvJGRbB+/2PB/+ff+h7h/3+u4ZXYcv6KDJKHNCuKvDFI6WKBC3bRqCzK5AtsTadKyn9aAOiHoqCWLlLIOetTAGzzz/UiyjC8aYbKy97PtH98ku6dSTrJzcBtDUpSLzBiGOvPz+wyqQb3ZSL20lYPHBil0zMWnOwwN72RfuYDq66TRN90DSEL1+/AFqhRHK1huYMr+HFPRFZ2AVGEwX6bkgmpV2DOcZCBToGGyB7gWlWNFKqYXv1854zaBW7MpJ4rU0DCbPJP291I8HiKNLzwaJFTZpNWEjUeGWKeoXNrRyKLkHp45ChXDQ1xTKOfz/HHHLobCrXzxjT0s9KpsqKZPAAAWQ0lEQVSUU4P824adM3vj0+D3+VCsFPtTaXINEUxFxnUsipaLrmnTSgtTJAVPKc/zxzIcazepl8GqFTmYKVFRTJr9Mh5XI6RrbE8lGSqH8Zk6Cg6lShVb9WCe2IeyQnPrbP6qU+c7f97OPUGND/TGaZgqAHdqVI6BN+LHqJv8hk4tmaeUB2+jge4VSWGCIFy41Gq+RBVAUvCaOv6membHT23gVKukBkYo6mHizSa6JuMUasiqSzlbIKu5aDJY5RIly0UzNU6WyTo25bE8JclDY3iq4MGlmi2QOJRFqovQ1GzMKGhxrQqpoSSWGaMjbuIWM4wOF6nv6CQ0oyZg506RdVrqFuDb1cf2A0/wQL7MMzt/xA77zHG4VoKtA0/hHIP1fT/nmdESnd1v4OL6OEq5h1m+37Jh7y95IJqB0Sf4ed9GRiyF8Y9GwnaquJKNq46RKe/j6Mgf+VMqQdFpOn1E+PVGWsNh3IGt/HbnQ2Sb6/F5G+iJ9RBVW1g5bzn3rX2Wh/c9TrO6nPrj0avhn0OzNP0/YBIhOqLNaHs2sav/D/xnIEVEV4hHL6I3qJ11vK5rs3/PT/k/RxSubO8g6HHIymAiUVI9+LTTgxGZoH8Zb1mp8ezDX+KXW77N3HCcD3UtmNifYgqBcDdXNC/msdF1/GDtt1AWv4FmT5bh5DbygXdza8+Je7UOucIunup/FCnTx8+2PkNObWF5+2ravBJKdAFBt5/DR9fx+22H2LnrHp4q2TgzWDnJYzSwvO0KZh38D36+6TtE7bfTE3TJpjezX76e2xZeRFBT0AMLuK5tFr/b8hg/SElEYu/kkoYmPMffb33jaq5p+DXfOvQo31nbQL5rOQF5mIHkYeqaPsBNs2MUszvZlEyQTm5lqFzFcRNsPfQkttHI3Nh82jxnPx6qxQEe2Hg/B5RuVsTDaJRRVBkfKlHDONXQVAI5Hibqt8jsy1AsteGZ6ka1U6U/keBhKUv/wUP87ECBWHweq+uNk+/PtSrs/5dn2fRwjjkfXs7yW1tP3miZjrPtnxvbj+f5uGUSY8/x6L4KyaF1/Hj7NvTgKi5p7ibqmf75PSU1RE/jUpaYj7B26z3c7yvSYxRZu/VhBopeVva8nh5zuuedjB4MEIpUSGxJU7o2SsA/k4hFxvQG6aq3+eXu/fxKr+DPDvNA3wB9BZmmSR7hFsqktoxSrqvDDOpnzLKU94+w/kNrGZJjXPa/L6Z1gTHtWXVVUWjwKezeM8SC3nl0R+rxRvfyhb4jeKIteOTx+WbLcdAVKOcKHMhbPN8/wK50iZUnnsiq0Dea4kixykhyjFS1wq7BIR6xM8SjDfQGdeRqgfWJNNlahV0jefIVWH/oKJmsj9n19czxKwQbm7jGc4Afb1hPrTqPFUEPtVKWo1Wd1y/oosvjks2k2JgsUbPS9JctUpkkf9ovY5pBlsWC1AVirGpz+f623cT1Gov9MumRQe7dl6a+aymLvCqKFuSapiiPbH2ez6sV3jYrSoAKB4bHaOlZwg3RU1PLiuLjigULcQtb+eaGLejqxfx9bz2hM2ZmXKyhYQa3SPjeFsL3guwyGG/q2v+Vx9n0uMv8z65k8ZsaZ3ROCYIg/CWph3cnAJB0H83dUQI+deJdM0VGliSQJGRFRpZBNryEYwGSiQKJVA6X8eJ3f12AcOOpdDC7VCKdtjBCIXy+qb8JXcfGtmyo1XDOWHzxLCQVo76BDq+J3ytjSyqxOa34YgFeUmbMOVBUg4Wdb+X6/l38ZvuXeUhu4rK2S7m6eS8PviCFyCo8yzceeRbQ8Xnnc0Xvrbzv4hvo8Pixm67iHT3P8+2tf+COX/+WUHgxN85eQ+LQ1uOPNuicdRXXHdzOD/fdy8f3/ITWusWsCMcZSU+82PH5Z/H67r/lmcw93Lv+09zlQKzpzXz1ui/zxkaT5Ys+wMeyFX6+84d8as93OZGNMrf7U9z1+g8y35zemjuSpNLd+R6uHxjid0Pf5fYH/h1Nr+PGNffxtWW90xqvGYlQ2XE3d/xxF2MVF1lqZE58DbctuYXV9XXgpk97QY2Glhv49LL1fHbtA/xo4910Ru7gDQ2Rs9/51Nu4YemtDNk6v9rzOP/twZ/iEqKt4So+eo05frwDOEUOHb6bjx2+GwjTHL2E9618E++ZvwRTdmlu/Sv+pm0j9/V/j08MhFjQfCU3zIpzb3IGRVNKiOXd7+b2YoUfbn+KO/94OzXXQyS4nPdfeSPa8docWY6wsvd6Onds5s/VAFfPv5qFwcjJc1X1LeRdqz/KiHQ/j+7/Ebf3fQtZirNg9pv4r11eXNeif99d3PbEAySrJz7lp/lfv3kavMv5zBu/zIe7O896PMzTfTQGCvxwyxf53voxao6Oz9vBiq73ceuCVQROznJJqGaEtuu9HHo0wcjOTkJT9e2oZvnpuvX8FAldM1k6q4v3ruxmWdh72vYWHr9DZTDP4LpR5r27lfrgZE82ubPtn5PsY6zb8VXW7QBZitPVfB3/5aKbuK6lDUOpTvv8nppGe/O1fHjlKF/b9DvufGT88w4Hurly8Yf50PIrqZ9B3qwWM2laE+PQfw6SfHcr/nneGRXB+/xB3rJ4Plv/9Dyf/V0/uhHkuq4Wlo0emySV1qUymmNke5H4VT2YZ6xK5iBrFrJrk9mU4Oj+Ek09BvI04y8JiYBHYk+uyjIjSMyvQ30AK30Es7kLU1MxNJMr5s1l/fp+PtO/H0kzWdoQotFjnKq1K6S468m1/PDgqUZDfU8e4x7dy41rruVry+qxU0f4wkOb2ZyqnNzmCw8dwR+s4xPXXsPH55r4fTHed/lCBp7ZzY8fXce3LAe/J8w7Vy4jogBWjb17t/Hexw6Np6YBjKR5726Y272Mu16/kPlmmJsuXkry6ef57h+fJGeBzxvmigXd3H5RCxFNBnxcvriXd5dsft7Xx0c3lQGdpbO7+cKiM1e6lGWTq5ctJFfczP9ctxUzcBHvao8yISaxa4w+eJikV6PnigYmm7RzbQen7FDoS3H46TTz1jSiT7s+RxAE4S9L2jfYN/5NKysYpn7m7IbjUClWsGUNr6GeulvmOFSKVarHOwjLsozu86CdFiW41SqFoo1qePB6pv4z6tQsysUaslfH+4KaglqtRqlUIhicwdXJK8hxyhw9to09mTS2HKEjMgeP1U9fJcSqeCdy/nnufPDt3JVeykcueSdLQ3X4tGa6GjtoNk5dbJTzR+kb3UPCcvD7ZtEb1NgzdgTHN59L66Pglhk9tpst6QQOOlGznTYtw/PZAi3RpSwInaplsSpj7EvuYKBYwHbB421iYUMvDR4VcCgXB9k3so/BWuVkYbtpdrEsNgtTnf7lj+vUSKX62J4bpmi5yLKHpvqLWRzy405jvI6TZyi1n325YYoWyFKIWKiNeZFmAiq4TpXR5BY25yS6G3qZbfqxqqPsOLqVhO2nM76ETtOc5gWbSz4/yL7kAEPVHOCjLtDJosY4Pkli+9bPcNtTv6Ba9w7+YcVl1MmBCb8HcN0aqUwf20eHKeGnJTyXVjXB+ozFwsZeWo1J1vKdQqV8jAPJQxwsJnHRMb2z6I23ET0xs+RapDIPc8d9/8iT/lX89zf8D97aUj/hvbquRSY7wK7UUcasErIUpjE8l976OnTXIZPZwfpjQ9gvLAyRI3Q39jLbNJHPejxAuTLKvuReBosFbFfFozUwO9pBu2lOTEmybbLrdvPY7dvQ33oxr/tkJ4HTZp+qlRL3//4B7jio8ddLurm+NYhX9jK7PsyckH6ypsK1bKySTfqRrfzpYwcw37KEy78x/1QPi2l6sf2jOjUee+LtfOS5w3R1/C1/17sQ/+n77/hznO38DmvTG5RrZdk70s/+wiguOn5vE3PrZ9NknN68t0Y208fa0RRN0QXMj8QmWTHNpbpzgGc++RyVa5ey5kNtGCevTseXNd42VKalsY7WqQq0a2X2JVLsL1komkGPr8K/PbGRUsfr+JelMQInDsFymcP3bGTzQy5LvrSajt6JMyxOuUY1mWPPnWvZfD8s+8XlLHpdaMrFAM7cKQ7ZTJK1ozVmN9YxN+ihVsmxbSCNFK5jUZ2JoYBVGR/vQMUC2cvssA+3nMf2R5gf8iBbZZ5PpDhSmhhFyrJMU30ji0MaTjnH+uEM6drELvCKqjG3oYE5x2trHMdmJJVmT6ZEwXHQVYOehjqa/cpp4y2dUfFjmiGWxYKYqgSOxWg6zY6xEiUHPJqPrsYQzcbEm4P5fI59yRxDVQsJlZZIhAXR8Rkqp1ZkRyKLG4iyOKQBLuV8micTBeoiYRbWmafVyLjUdh3isds3k26czVXfvIhY3cQPwbVsapkKQ/dv4fF/OkTjpy7hdZ/oYDpthARBEF4JUqJ06OVrf34evNoClrPJjm3hzgffzt2FG/je2z7HdbHYBbucpEuJ0XSCnONMuY2mRogHIzOodXn5nM/xbt/6GW57+td42j7HfW9+B00zbh9eJZUZJm1bU5YvS5JJPFyPT3qR53YtssVREundPLHlm3xnf4rVK+7g8yuvJjaDYPKV4hbz9H99AxvurTH/26tYfFX4ZF3KyYBlwM+nrruUD3dHJ61zKfz5ABu/tIWhvTZqvI6FX7iM7ktnNpNwNs6JgGXbKFeu+DJfvewKJsmieVGv2PliWQz9ZBMb78oy57OrmX95EHU6bXemkhni0w8/OzFgsSzSj+9m3dcPE7x5Katujk94Ddd2GPz+U2y4N0k5axO+YTGrPj2PuvoL/xh9rXFKGXZ/bgPPPerS+/VLWHBF4Iygsbiujye/uIf0kRpKZyMX/dNyOpb6XpZFcQRBEM4HkbEqTMEhX9jAnT/7R35dyDDZ4tbgZV7z+/na2z5EzzR7oLx8Lqzx2nY/9/7+U9w1fHCK5WFlwv4386/v+gyX+19kVqgyyIPr/5l/fm49hhxlydxbeP+iy6l/FQQrAJLPpP2WHkb6NrD7+7torF9I82Jz0uayU5E9Gr62IG09DXS+Zx6xuec3WDk/XsHjT1VpvLGbzq3bGPj+AeJLF1Nfd36vPJ1Mmr3fH8ZzZReLb2qYNCBSQj6C3TBnTQdz/roFM3LhfUqvdU6pxtDP9tK3PkfTravoWmlOOsMleXWCnWHqrm6g8+Z2wk0iWBEE4cImApa/MI/RzJWLP0qo2kWnMUVO/wVBQlNbWbPoZmK16hSzBBoRcwnRGc8+vBzO73hj8Wv4u4tbILiAwEyurk+MRoqyovcmrJbkFBevEoanl3bd8+LLw6phFsy6ng9qi2gO9HL5vGto92svbUnZV4g+p4nFn1xI7Z/6OLK7TPMic7woX1ZY2t3LP8R1VkanXn7cWNDKym+0TvHb80OSJGbPvpnbvFnmNLe/hBmQV/Z8kY0w3Z9fRvDpAsa51iF4TK7tnU81bHBi4Sgp7KP1I734VjcSmCS9V1Jk4rdcTPyWc3xt4Zy4xRKp3QXM65ew7B2NeI3JvymMZZ1c+k3RgUUQhFcPkRImCMLLz7HI787itkdmuJKVIAjT5tiUEkUcj4GvTn1V3dgQBEF4MWKGRRCEl5+sYvbUvdKjEITXNlnBaJpp9ZUgCMKF7zUQsLhUR3Okns9Q8WgEu+oI1+szypEXBEEQBEEQBOHCpCaHC/hDBl5jkrxq16WSzZPL26h+H4GgjnJiM9uinCtTKlrYLqAoGAEDn089GSy4tRqlbJly2cYBJFXDF/JinNeOujbZ9ft55vYtHNN9tNzUy6qPLyAWvxDqKgRBEARBEARBOBfKO2+6+fOlsoNm6Oj6xIt8u1hg9NAYY6kiluLBDHjGAxbXIp9IMzqYI5cpU8xXKOXKlPIVZK+BxyODUyV9eIzkSJ58dnybYn48eFF9Bvo0uzo6joNlWXg8UzUwlFCDPqIrmoh6axx4KIHc3URr9/R7YAiCIAiCIAiCcGFSG5q8jA4XyRd8GH7l5Eo9rlUlk8hRdXV8ZpXTOws45SrZsSJOIEC80Y8uS9jlAonDObLZCqGADztXIpuroNaHaYx6UYBqPkdisEwhX8U0TgUgruNg1RwkVTmzceVZSejxEM1vDBLt0Unu/zPVXPUcd4sgCIIgCIIgCBcCOVgXxPQ4WDUb90RU4jqUkjlyVZlAPIihnhlESJKEjIIqK2heFVVX0GQZ5UTAIR3fRlJRFBXNo6KoMpokI08ISlyq2TxDuxIMDZaw7Je6aJmEHNDwTjURIwiCIAiCIAjCq47quDaOI6Oq8vHaExerWCSdqmHEwoQDMmNjEx8kezwEoz6SwxkSA2W8PoVqoYpimkSiXiQJFJ9BKFIhdSxFouRF16BSqKFHTILBiV0OXMfBtmyoWUzdI3qaClWKO9MUs3X4gq90M0NBEARBEARBEM6FXEzmsHUDM+RBkcCpWeRG8ziGQSjkmXy1LVnBiJj4TIVqrkRmOEcxb6N6NTzHZ2MkVcMf9eP1QCmdJ53IU664eE0P+oQ4QkIPmMTnNtDU4kefcUrYKYrho/XaCKVHt/HIex5j3Y9HqJQu6DYzgiAIgiAIgiC8CDlTlAg2h/F7ZHBdqtkcmTx4/R6wLKplC8t2cS2barmGZbm4To3sUJpcAczmCE0dYUwDciNjjKVruC44tTJjR7KUbIXwrHqa2oN4FZvU0BiZwsR5FFlTMUJevJ5zmxGRNQ9GswlWjdyhPPljopZFEARBEARBEF7N1EA8QiigIEng2g61QplysUL5YIXkieWJHQeXNIPZHIGWBuo8FbJjZdRoPbEGH5oKhqEw2J8mlywSjASxUgVyBQujuYFYVEeS/Hi8Ekf3FyikSwRMP+c7YcsuFjn6h0H0NYtZ88m5BEIqmlc0ZBEEQRAEQRCEVys1HDzVZFGSJPSgSVQ2Tm7g2jaldIGq4iUY9mL4Fai5uA7ICiADSMiqjCJL2LaDi4vruOCCrIIrScgS49vg4tgupydq2ZUq+XQZye/H9CvILzHGcKwKxbxC4IoYdY362R8gCIIgCIIgCMIFTT26N3H8Jw91LQGMcJBY+NQGTrVKqlLC1X1E4gF0FZyShm7I5EbSDOXyyIBjW1QsMGM+NElG8esoapns0SSVYwoyYNdq1FSVQMh72uyKQzVfIHk4C2HwzA6crIMRBEEQBEEQBOH/b2qlVANA0lWcSZbokiQJRVfRNJkTYYTsNahvi6IM58kXqrguKJpGtDVEIOJBBmQzQLxNIZXIUyrXcAHN46GhJYQZVDkVksgomo7X70EyVdRzalDv4IiyFUEQBEEQBEF4zVA7FjYf/1FCkiVeOLchaRrh9kZCSMgngglJQvP7iHUY1LunkrskWT61qpgs4wmbxAO+09K/jr/GC15ED/qJ+w2QJOSXmg+GRWngGKkDNkGxMJggCIIgCIIgvCaosnL2KQ1Jls8IZMb/X+LMEOcF2yiTP/aFXmwctVqNfD4PgKIoGIZx2m8dintGOPi7AY4+c5Sk5aVtljH5EwmCIAiCIAiC8KqivtIDOBtFUfH7zZP/PnMGxqV0YJR9P9hDygzQ9YH5dK3w/2UHKQiCIAiCIAjCy0JKlA696hOo7HyF4nAZW1MwYj48vnMqhBEEQRAEQRAE4QLxmghYBEEQBEEQBEF4bfp/HrdmQXxbrwkAAAAASUVORK5CYII=;" vertex="1" parent="1">
          <mxGeometry x="167" y="30" width="403.98" height="100" as="geometry" />
        </mxCell>
        <mxCell id="SGKVoEZ6r1D_lGeSKff7-10" value="mark_task_starting" style="text;whiteSpace=wrap;html=1;" vertex="1" parent="1">
          <mxGeometry x="-29.999975585937477" y="22" width="129" height="36" as="geometry" />
        </mxCell>
        <mxCell id="SGKVoEZ6r1D_lGeSKff7-13" style="edgeStyle=orthogonalEdgeStyle;rounded=0;orthogonalLoop=1;jettySize=auto;html=1;exitX=1;exitY=0.5;exitDx=0;exitDy=0;entryX=0;entryY=0.5;entryDx=0;entryDy=0;strokeColor=#000000;" edge="1" parent="1" source="SGKVoEZ6r1D_lGeSKff7-11" target="SGKVoEZ6r1D_lGeSKff7-12">
          <mxGeometry relative="1" as="geometry" />
        </mxCell>
        <mxCell id="SGKVoEZ6r1D_lGeSKff7-11" value="&lt;div style=&quot;text-align: left;&quot;&gt;&lt;span style=&quot;background-color: initial;&quot;&gt;scheduler_tick&lt;/span&gt;&lt;/div&gt;" style="rounded=0;whiteSpace=wrap;html=1;" vertex="1" parent="1">
          <mxGeometry x="-25.5" y="239" width="120" height="34" as="geometry" />
        </mxCell>
        <mxCell id="SGKVoEZ6r1D_lGeSKff7-16" style="edgeStyle=orthogonalEdgeStyle;rounded=0;orthogonalLoop=1;jettySize=auto;html=1;exitX=1;exitY=0.5;exitDx=0;exitDy=0;strokeColor=#000000;" edge="1" parent="1" source="SGKVoEZ6r1D_lGeSKff7-12" target="SGKVoEZ6r1D_lGeSKff7-14">
          <mxGeometry relative="1" as="geometry" />
        </mxCell>
        <mxCell id="SGKVoEZ6r1D_lGeSKff7-12" value="android_rvh_tick_entry" style="rounded=0;whiteSpace=wrap;html=1;" vertex="1" parent="1">
          <mxGeometry x="157" y="239" width="138" height="34" as="geometry" />
        </mxCell>
        <mxCell id="SGKVoEZ6r1D_lGeSKff7-14" value="walt_update_task_ravg" style="rounded=0;whiteSpace=wrap;html=1;" vertex="1" parent="1">
          <mxGeometry x="358" y="239" width="138" height="34" as="geometry" />
        </mxCell>
        <mxCell id="SGKVoEZ6r1D_lGeSKff7-15" value="TASK_UPDATE" style="text;whiteSpace=wrap;html=1;" vertex="1" parent="1">
          <mxGeometry x="370.5000244140625" y="214" width="113" height="36" as="geometry" />
        </mxCell>
      </root>
    </mxGraphModel>
  </diagram>
</mxfile>
